mtllib Prop_Fireplace_Mid.mtl
o object1
g object1
v 0.42500000 -0.00000000 -0.95000000
v -0.42500000 -0.00000000 -0.95000000
v -0.42500000 1.00000000 -0.95000000
v 0.42500000 1.00000000 -0.95000000
v -0.25000000 -0.00000000 -0.50000000
v -0.25000000 -0.00000000 -0.75000000
v 0.25000000 -0.00000000 -0.75000000
v 0.25000000 -0.00000000 -0.50000000
v 0.45000000 -0.00000000 -0.50000000
v 0.45000000 -0.00000000 -0.92500000
v -0.45000000 -0.00000000 -0.92500000
v -0.45000000 -0.00000000 -0.50000000
v 0.25000000 -0.00000000 -0.25000000
v -0.25000000 -0.00000000 -0.25000000
v -0.45000000 -0.00000000 -0.07500000
v -0.42500000 0.00000000 -0.05000000
v 0.42500000 0.00000000 -0.05000000
v 0.45000000 -0.00000000 -0.07500000
v -0.25000000 1.00000000 -0.75000000
v 0.25000000 1.00000000 -0.75000000
v 0.25000000 1.00000000 -0.25000000
v 0.25000000 1.00000000 -0.50000000
v -0.25000000 1.00000000 -0.25000000
v -0.25000000 1.00000000 -0.50000000
v -0.45000000 1.00000000 -0.92500000
v -0.45000000 1.00000000 -0.07500000
v -0.45000000 1.00000000 -0.50000000
v -0.42500000 1.00000000 -0.05000000
v 0.42500000 1.00000000 -0.05000000
v 0.45000000 1.00000000 -0.07500000
v 0.45000000 1.00000000 -0.92500000
v 0.45000000 1.00000000 -0.50000000
vt 0.00000000 1.00000000
vt 0.00000000 0.00000000
vt 1.00000000 0.00000000
vt 1.00000000 1.00000000
vt 0.50000000 0.22222222
vt 0.22222222 0.22222222
vt 0.22222222 0.77777778
vt 0.50000000 0.77777778
vt 0.50000000 1.00000000
vt 0.02777778 1.00000000
vt 0.00000000 0.97222222
vt 0.00000000 0.02777778
vt 0.02777778 0.00000000
vt 0.50000000 0.00000000
vt 0.77777778 0.77777778
vt 0.77777778 0.22222222
vt 0.97222222 0.00000000
vt 1.00000000 0.02777778
vt 1.00000000 0.97222222
vt 0.97222222 1.00000000
vt 0.00000000 1.00000000
vt 0.00000000 0.00000000
vt 1.00000000 0.00000000
vt 1.00000000 1.00000000
vt 0.00000000 1.00000000
vt 0.00000000 0.00000000
vt 1.00000000 0.00000000
vt 1.00000000 1.00000000
vt 0.00000000 0.50000000
vt 1.00000000 0.50000000
vt 0.00000000 1.00000000
vt 0.00000000 0.00000000
vt 1.00000000 0.00000000
vt 1.00000000 1.00000000
vt 0.00000000 1.00000000
vt 0.00000000 0.00000000
vt 1.00000000 0.00000000
vt 1.00000000 1.00000000
vt 1.00000000 0.50000000
vt 0.00000000 0.50000000
vt 0.00000000 1.00000000
vt 0.00000000 0.00000000
vt 1.00000000 0.00000000
vt 1.00000000 1.00000000
vt 1.00000000 0.50000000
vt 0.00000000 0.50000000
vt 1.00000000 0.00000000
vt 1.00000000 1.00000000
vt 0.00000000 1.00000000
vt 0.00000000 0.00000000
vt 0.00000000 1.00000000
vt 0.00000000 0.00000000
vt 1.00000000 0.00000000
vt 1.00000000 1.00000000
vt 1.00000000 0.00000000
vt 1.00000000 1.00000000
vt 0.00000000 1.00000000
vt 0.00000000 0.00000000
vt 1.00000000 0.00000000
vt 1.00000000 1.00000000
vt 0.00000000 1.00000000
vt 0.00000000 0.00000000
vt 1.00000000 0.50000000
vt 0.00000000 0.50000000
vt 1.00000000 0.00000000
vt 1.00000000 1.00000000
vt 0.00000000 1.00000000
vt 0.00000000 0.00000000
vt 0.50000000 0.22222222
vt 0.22222222 0.22222222
vt 0.22222222 0.77777778
vt 0.50000000 0.77777778
vt 0.50000000 1.00000000
vt 0.02777778 1.00000000
vt 0.00000000 0.97222222
vt 0.00000000 0.02777778
vt 0.02777778 0.00000000
vt 0.50000000 0.00000000
vt 0.77777778 0.77777778
vt 0.77777778 0.22222222
vt 0.97222222 0.00000000
vt 1.00000000 0.02777778
vt 1.00000000 0.97222222
vt 0.97222222 1.00000000
vt 1.00000000 0.00000000
vt 1.00000000 1.00000000
vt 0.00000000 1.00000000
vt 0.00000000 0.00000000
vn 0.00000000 -0.00000000 -1.00000000
vn 0.00000000 -0.00000000 -1.00000000
vn 0.00000000 -0.00000000 -1.00000000
vn 0.00000000 -0.00000000 -1.00000000
vn 0.00000000 -1.00000000 0.00000000
vn 0.00000000 -1.00000000 0.00000000
vn 0.00000000 -1.00000000 0.00000000
vn 0.00000000 -1.00000000 0.00000000
vn 0.00000000 -1.00000000 0.00000000
vn 0.00000000 -1.00000000 0.00000000
vn 0.00000000 -1.00000000 0.00000000
vn 0.00000000 -1.00000000 0.00000000
vn 0.00000000 -1.00000000 0.00000000
vn 0.00000000 -1.00000000 0.00000000
vn 0.00000000 -1.00000000 0.00000000
vn 0.00000000 -1.00000000 0.00000000
vn 0.00000000 -1.00000000 0.00000000
vn 0.00000000 -1.00000000 0.00000000
vn 0.00000000 -1.00000000 0.00000000
vn 0.00000000 -1.00000000 0.00000000
vn 0.00000000 0.00000000 1.00000000
vn 0.00000000 0.00000000 1.00000000
vn 0.00000000 0.00000000 1.00000000
vn 0.00000000 0.00000000 1.00000000
vn -1.00000000 0.00000000 0.00000000
vn -1.00000000 0.00000000 0.00000000
vn -1.00000000 0.00000000 0.00000000
vn -1.00000000 0.00000000 0.00000000
vn -1.00000000 0.00000000 0.00000000
vn -1.00000000 0.00000000 0.00000000
vn 0.00000000 -0.00000000 -1.00000000
vn 0.00000000 -0.00000000 -1.00000000
vn 0.00000000 -0.00000000 -1.00000000
vn 0.00000000 -0.00000000 -1.00000000
vn 1.00000000 0.00000000 0.00000000
vn 1.00000000 0.00000000 0.00000000
vn 1.00000000 0.00000000 0.00000000
vn 1.00000000 0.00000000 0.00000000
vn 1.00000000 0.00000000 0.00000000
vn 1.00000000 0.00000000 0.00000000
vn -1.00000000 0.00000000 0.00000000
vn -1.00000000 0.00000000 0.00000000
vn -1.00000000 0.00000000 0.00000000
vn -1.00000000 0.00000000 0.00000000
vn -1.00000000 0.00000000 0.00000000
vn -1.00000000 0.00000000 0.00000000
vn -0.70710678 0.00000000 0.70710678
vn -0.70710678 0.00000000 0.70710678
vn -0.70710678 0.00000000 0.70710678
vn -0.70710678 0.00000000 0.70710678
vn 0.00000000 0.00000000 1.00000000
vn 0.00000000 0.00000000 1.00000000
vn 0.00000000 0.00000000 1.00000000
vn 0.00000000 0.00000000 1.00000000
vn 0.70710678 0.00000000 0.70710678
vn 0.70710678 0.00000000 0.70710678
vn 0.70710678 0.00000000 0.70710678
vn 0.70710678 0.00000000 0.70710678
vn 1.00000000 0.00000000 0.00000000
vn 1.00000000 0.00000000 0.00000000
vn 1.00000000 0.00000000 0.00000000
vn 1.00000000 0.00000000 0.00000000
vn 1.00000000 0.00000000 0.00000000
vn 1.00000000 0.00000000 0.00000000
vn 0.70710678 -0.00000000 -0.70710678
vn 0.70710678 -0.00000000 -0.70710678
vn 0.70710678 -0.00000000 -0.70710678
vn 0.70710678 -0.00000000 -0.70710678
vn -0.00000000 1.00000000 -0.00000000
vn 0.00000000 1.00000000 -0.00000000
vn 0.00000000 1.00000000 -0.00000000
vn -0.00000000 1.00000000 -0.00000000
vn -0.00000000 1.00000000 -0.00000000
vn 0.00000000 1.00000000 -0.00000000
vn 0.00000000 1.00000000 -0.00000000
vn 0.00000000 1.00000000 -0.00000000
vn 0.00000000 1.00000000 -0.00000000
vn -0.00000000 1.00000000 -0.00000000
vn -0.00000000 1.00000000 -0.00000000
vn -0.00000000 1.00000000 -0.00000000
vn 0.00000000 1.00000000 -0.00000000
vn -0.00000000 1.00000000 -0.00000000
vn -0.00000000 1.00000000 -0.00000000
vn -0.00000000 1.00000000 -0.00000000
vn -0.70710678 -0.00000000 -0.70710678
vn -0.70710678 -0.00000000 -0.70710678
vn -0.70710678 -0.00000000 -0.70710678
vn -0.70710678 -0.00000000 -0.70710678
s 1
usemtl Gray
f 1/1/1 2/2/2 4/4/4
f 2/2/2 3/3/3 4/4/4
s 2
f 9/9/9 8/8/8 7/7/7
f 10/10/10 7/7/7 6/6/6
f 6/6/6 12/14/14 11/13/13
f 15/17/17 12/14/14 14/16/16
f 14/16/16 13/15/15 18/20/20
f 18/20/20 17/19/19 15/17/17
f 17/19/19 16/18/18 15/17/17
f 15/17/17 14/16/16 18/20/20
f 12/14/14 5/5/5 14/16/16
f 6/6/6 5/5/5 12/14/14
f 11/13/13 2/12/12 10/10/10
f 2/12/12 1/11/11 10/10/10
f 10/10/10 6/6/6 11/13/13
f 13/15/15 9/9/9 18/20/20
f 13/15/15 8/8/8 9/9/9
f 10/10/10 9/9/9 7/7/7
s 3
f 20/24/24 19/23/23 7/21/21
f 19/23/23 6/22/22 7/21/21
s 4
f 13/26/26 21/27/27 22/30/30
f 7/25/25 22/30/30 20/28/28
f 7/25/25 8/29/29 22/30/30
f 8/29/29 13/26/26 22/30/30
s 5
f 13/31/31 14/32/32 21/34/34
f 14/32/32 23/33/33 21/34/34
s 6
f 6/35/35 19/38/38 24/39/39
f 24/39/39 23/37/37 14/36/36
f 14/36/36 5/40/40 24/39/39
f 5/40/40 6/35/35 24/39/39
s 7
f 12/46/46 15/41/41 26/44/44
f 27/45/45 11/42/42 12/46/46
f 27/45/45 25/43/43 11/42/42
f 12/46/46 26/44/44 27/45/45
s 8
f 28/47/47 26/48/48 16/50/50
f 26/48/48 15/49/49 16/50/50
s 9
f 29/54/54 28/53/53 17/51/51
f 28/53/53 16/52/52 17/51/51
s 10
f 30/55/55 29/56/56 17/57/57
f 30/55/55 17/57/57 18/58/58
s 11
f 10/62/62 31/59/59 32/63/63
f 32/63/63 30/60/60 9/64/64
f 30/60/60 18/61/61 9/64/64
f 32/63/63 9/64/64 10/62/62
s 12
f 4/65/65 31/66/66 1/68/68
f 31/66/66 10/67/67 1/68/68
s 13
f 20/71/71 22/72/72 32/73/73
f 30/84/84 32/73/73 21/79/79
f 26/81/81 29/83/83 30/84/84
f 26/81/81 28/82/82 29/83/83
f 23/80/80 27/78/78 26/81/81
f 25/77/77 27/78/78 19/70/70
f 31/74/74 4/75/75 25/77/77
f 4/75/75 3/76/76 25/77/77
f 25/77/77 19/70/70 31/74/74
f 27/78/78 24/69/69 19/70/70
f 23/80/80 24/69/69 27/78/78
f 30/84/84 23/80/80 26/81/81
f 30/84/84 21/79/79 23/80/80
f 32/73/73 22/72/72 21/79/79
f 19/70/70 20/71/71 31/74/74
f 20/71/71 32/73/73 31/74/74
s 14
f 25/85/85 3/86/86 2/87/87
f 25/85/85 2/87/87 11/88/88
