mtllib Prop_Misc_Picture_Square_Small.mtl
o object1
g object1
v -0.17500000 0.32500000 -0.43750000
v -0.17500000 0.67500000 -0.43750000
v 0.17500000 0.67500000 -0.43750000
v 0.17500000 0.32500000 -0.43750000
vt 0.00000000 0.00000000
vt 1.00000000 0.00000000
vt 1.00000000 1.00000000
vt 0.00000000 1.00000000
vn 0.00000000 -0.00000000 1.00000000
vn 0.00000000 -0.00000000 1.00000000
vn 0.00000000 -0.00000000 1.00000000
vn 0.00000000 -0.00000000 1.00000000
s 1
usemtl Picture1
f 4/4/4 3/3/3 1/1/1
f 3/3/3 2/2/2 1/1/1
o object2
g object2
v 0.25000000 0.75000000 -0.45000000
v 0.25000000 0.25000000 -0.45000000
v 0.25000000 0.25000000 -0.42500000
v 0.25000000 0.75000000 -0.42500000
v 0.23750000 0.26250000 -0.40000000
v 0.23750000 0.73750000 -0.40000000
v -0.23750000 0.73750000 -0.40000000
v -0.25000000 0.75000000 -0.42500000
v 0.20000000 0.70000000 -0.42500000
v -0.20000000 0.70000000 -0.42500000
v -0.18750000 0.68750000 -0.41250000
v 0.18750000 0.68750000 -0.41250000
v -0.17500000 0.67500000 -0.42500000
v 0.17500000 0.67500000 -0.42500000
v -0.17500000 0.32500000 -0.42500000
v -0.18750000 0.31250000 -0.41250000
v -0.17500000 0.32500000 -0.45000000
v -0.17500000 0.67500000 -0.45000000
v 0.17500000 0.32500000 -0.42500000
v 0.17500000 0.32500000 -0.45000000
v 0.00000000 0.32500000 -0.45000000
v 0.17500000 0.67500000 -0.45000000
v 0.18750000 0.31250000 -0.41250000
v -0.20000000 0.30000000 -0.42500000
v 0.20000000 0.30000000 -0.42500000
v -0.23750000 0.26250000 -0.40000000
v 0.00000000 0.67500000 -0.45000000
v -0.25000000 0.25000000 -0.42500000
v -0.25000000 0.25000000 -0.45000000
v -0.25000000 0.75000000 -0.45000000
v 0.00000000 0.75000000 -0.45000000
v 0.00000000 0.25000000 -0.45000000
vt 1.00000000 1.00000000
vt 0.00000000 1.00000000
vt 0.00000000 0.00000000
vt 1.00000000 0.00000000
vt 1.00000000 0.00000000
vt 0.97500000 1.00000000
vt 0.02500000 1.00000000
vt 0.00000000 0.00000000
vt 0.97500000 1.00000000
vt 0.02500000 1.00000000
vt 0.00000000 0.00000000
vt 1.00000000 0.00000000
vt 0.07894737 1.00000000
vt 0.00000000 0.00000000
vt 1.00000000 0.00000000
vt 0.92105263 1.00000000
vt 0.96875000 1.00000000
vt 0.03125000 1.00000000
vt 0.00000000 0.00000000
vt 1.00000000 0.00000000
vt 1.00000000 0.00000000
vt 0.96666667 1.00000000
vt 0.03333333 1.00000000
vt 0.00000000 0.00000000
vt 0.03333333 1.00000000
vt 0.00000000 0.00000000
vt 1.00000000 0.00000000
vt 0.96666667 1.00000000
vt 0.00000000 1.00000000
vt 0.00000000 0.00000000
vt 1.00000000 0.00000000
vt 1.00000000 1.00000000
vt 0.00000000 1.00000000
vt 0.00000000 0.00000000
vt 1.00000000 0.00000000
vt 1.00000000 1.00000000
vt 0.50000000 1.00000000
vt 0.00000000 1.00000000
vt 0.00000000 0.00000000
vt 1.00000000 0.00000000
vt 1.00000000 1.00000000
vt 0.03333333 1.00000000
vt 0.00000000 0.00000000
vt 1.00000000 0.00000000
vt 0.96666667 1.00000000
vt 0.00000000 0.00000000
vt 1.00000000 0.00000000
vt 0.96875000 1.00000000
vt 0.03125000 1.00000000
vt 0.00000000 0.00000000
vt 1.00000000 0.00000000
vt 0.92105263 1.00000000
vt 0.07894737 1.00000000
vt 0.03333333 1.00000000
vt 0.00000000 0.00000000
vt 1.00000000 0.00000000
vt 0.96666667 1.00000000
vt 1.00000000 0.00000000
vt 1.00000000 1.00000000
vt 0.00000000 1.00000000
vt 0.00000000 0.00000000
vt 0.50000000 1.00000000
vt 0.96875000 1.00000000
vt 0.03125000 1.00000000
vt 0.00000000 0.00000000
vt 1.00000000 0.00000000
vt 0.00000000 0.00000000
vt 1.00000000 0.00000000
vt 0.96875000 1.00000000
vt 0.03125000 1.00000000
vt 0.07894737 1.00000000
vt 0.00000000 0.00000000
vt 1.00000000 0.00000000
vt 0.92105263 1.00000000
vt 0.97500000 1.00000000
vt 0.02500000 1.00000000
vt 0.00000000 0.00000000
vt 1.00000000 0.00000000
vt 1.00000000 1.00000000
vt 0.00000000 1.00000000
vt 0.00000000 0.00000000
vt 1.00000000 0.00000000
vt 0.00000000 0.00000000
vt 1.00000000 0.00000000
vt 0.97500000 1.00000000
vt 0.02500000 1.00000000
vt 0.00000000 0.00000000
vt 1.00000000 0.00000000
vt 0.92105263 1.00000000
vt 0.07894737 1.00000000
vt 1.00000000 1.00000000
vt 0.00000000 1.00000000
vt 0.00000000 0.00000000
vt 1.00000000 0.00000000
vt 0.50000000 0.00000000
vt 0.50000000 0.15000000
vt 0.15000000 0.15000000
vt 0.15000000 0.85000000
vt 0.50000000 0.85000000
vt 0.50000000 1.00000000
vt 0.00000000 1.00000000
vt 0.00000000 0.00000000
vt 0.50000000 0.00000000
vt 0.85000000 0.85000000
vt 0.85000000 0.15000000
vt 1.00000000 0.00000000
vt 1.00000000 1.00000000
vt 0.00000000 0.00000000
vt 1.00000000 0.00000000
vt 1.00000000 1.00000000
vt 0.00000000 1.00000000
vt 0.50000000 0.00000000
vn 1.00000000 -0.00000000 -0.00000000
vn 1.00000000 -0.00000000 -0.00000000
vn 1.00000000 -0.00000000 -0.00000000
vn 1.00000000 -0.00000000 -0.00000000
vn 0.89442719 0.00000000 0.44721360
vn 0.89442719 0.00000000 0.44721360
vn 0.89442719 0.00000000 0.44721360
vn 0.89442719 0.00000000 0.44721360
vn 0.00000000 0.89442719 0.44721360
vn 0.00000000 0.89442719 0.44721360
vn 0.00000000 0.89442719 0.44721360
vn 0.00000000 0.89442719 0.44721360
vn -0.00000000 -0.55470020 0.83205029
vn -0.00000000 -0.55470020 0.83205029
vn -0.00000000 -0.55470020 0.83205029
vn -0.00000000 -0.55470020 0.83205029
vn 0.00000000 0.70710678 0.70710678
vn 0.00000000 0.70710678 0.70710678
vn 0.00000000 0.70710678 0.70710678
vn 0.00000000 0.70710678 0.70710678
vn -0.00000000 -0.70710678 0.70710678
vn -0.00000000 -0.70710678 0.70710678
vn -0.00000000 -0.70710678 0.70710678
vn -0.00000000 -0.70710678 0.70710678
vn 0.70710678 0.00000000 0.70710678
vn 0.70710678 0.00000000 0.70710678
vn 0.70710678 0.00000000 0.70710678
vn 0.70710678 0.00000000 0.70710678
vn 1.00000000 0.00000000 0.00000000
vn 1.00000000 0.00000000 0.00000000
vn 1.00000000 0.00000000 0.00000000
vn 1.00000000 0.00000000 0.00000000
vn 0.00000000 1.00000000 0.00000000
vn 0.00000000 1.00000000 0.00000000
vn 0.00000000 1.00000000 0.00000000
vn 0.00000000 1.00000000 0.00000000
vn 0.00000000 1.00000000 0.00000000
vn -1.00000000 -0.00000000 0.00000000
vn -1.00000000 -0.00000000 0.00000000
vn -1.00000000 -0.00000000 0.00000000
vn -1.00000000 -0.00000000 0.00000000
vn 0.00000000 0.70710678 0.70710678
vn 0.00000000 0.70710678 0.70710678
vn 0.00000000 0.70710678 0.70710678
vn 0.00000000 0.70710678 0.70710678
vn -0.00000000 -0.70710678 0.70710678
vn -0.00000000 -0.70710678 0.70710678
vn -0.00000000 -0.70710678 0.70710678
vn -0.00000000 -0.70710678 0.70710678
vn 0.00000000 0.55470020 0.83205029
vn 0.00000000 0.55470020 0.83205029
vn 0.00000000 0.55470020 0.83205029
vn 0.00000000 0.55470020 0.83205029
vn -0.70710678 -0.00000000 0.70710678
vn -0.70710678 -0.00000000 0.70710678
vn -0.70710678 -0.00000000 0.70710678
vn -0.70710678 -0.00000000 0.70710678
vn -0.00000000 -1.00000000 -0.00000000
vn -0.00000000 -1.00000000 -0.00000000
vn -0.00000000 -1.00000000 -0.00000000
vn -0.00000000 -1.00000000 -0.00000000
vn -0.00000000 -1.00000000 -0.00000000
vn -0.70710678 0.00000000 0.70710678
vn -0.70710678 0.00000000 0.70710678
vn -0.70710678 0.00000000 0.70710678
vn -0.70710678 0.00000000 0.70710678
vn 0.70710678 0.00000000 0.70710678
vn 0.70710678 0.00000000 0.70710678
vn 0.70710678 0.00000000 0.70710678
vn 0.70710678 0.00000000 0.70710678
vn 0.55470020 0.00000000 0.83205029
vn 0.55470020 0.00000000 0.83205029
vn 0.55470020 0.00000000 0.83205029
vn 0.55470020 0.00000000 0.83205029
vn -0.89442719 0.00000000 0.44721360
vn -0.89442719 0.00000000 0.44721360
vn -0.89442719 -0.00000000 0.44721360
vn -0.89442719 -0.00000000 0.44721360
vn -1.00000000 -0.00000000 0.00000000
vn -1.00000000 -0.00000000 0.00000000
vn -1.00000000 -0.00000000 0.00000000
vn -1.00000000 -0.00000000 0.00000000
vn -0.00000000 -0.89442719 0.44721360
vn -0.00000000 -0.89442719 0.44721360
vn -0.00000000 -0.89442719 0.44721360
vn -0.00000000 -0.89442719 0.44721360
vn -0.55470020 -0.00000000 0.83205029
vn -0.55470020 -0.00000000 0.83205029
vn -0.55470020 -0.00000000 0.83205029
vn -0.55470020 -0.00000000 0.83205029
vn 0.00000000 1.00000000 0.00000000
vn 0.00000000 1.00000000 0.00000000
vn 0.00000000 1.00000000 0.00000000
vn 0.00000000 1.00000000 0.00000000
vn 0.00000000 1.00000000 0.00000000
vn 0.00000000 0.00000000 -1.00000000
vn 0.00000000 0.00000000 -1.00000000
vn 0.00000000 0.00000000 -1.00000000
vn 0.00000000 0.00000000 -1.00000000
vn 0.00000000 0.00000000 -1.00000000
vn 0.00000000 0.00000000 -1.00000000
vn 0.00000000 0.00000000 -1.00000000
vn 0.00000000 0.00000000 -1.00000000
vn 0.00000000 0.00000000 -1.00000000
vn 0.00000000 0.00000000 -1.00000000
vn 0.00000000 0.00000000 -1.00000000
vn 0.00000000 0.00000000 -1.00000000
vn -0.00000000 -1.00000000 -0.00000000
vn -0.00000000 -1.00000000 0.00000000
vn -0.00000000 -1.00000000 0.00000000
vn -0.00000000 -1.00000000 -0.00000000
vn -0.00000000 -1.00000000 0.00000000
s 1
usemtl Dark_Wood
f 8/8/8 7/7/7 5/5/5
f 7/7/7 6/6/6 5/5/5
s 2
f 8/12/12 10/11/11 9/10/10
f 8/12/12 9/10/10 7/9/9
s 3
f 11/13/13 10/14/14 8/15/15
f 11/13/13 8/15/15 12/16/16
s 4
f 13/17/17 10/18/18 14/20/20
f 10/18/18 11/19/19 14/20/20
s 5
f 15/21/21 16/22/22 13/23/23
f 15/21/21 13/23/23 14/24/24
s 6
f 15/25/25 17/26/26 18/27/27
f 15/25/25 18/27/27 16/28/28
s 7
f 17/32/32 15/31/31 19/29/29
f 15/31/31 20/30/30 19/29/29
s 8
f 22/36/36 17/35/35 19/34/34
f 22/36/36 19/34/34 21/33/33
s 9
f 25/41/41 21/37/37 19/38/38
f 19/38/38 23/39/39 25/41/41
f 23/39/39 24/40/40 25/41/41
s 10
f 24/45/45 23/44/44 26/42/42
f 23/44/44 18/43/43 26/42/42
s 11
f 19/46/46 20/47/47 27/48/48
f 19/46/46 27/48/48 23/49/49
s 12
f 28/50/50 29/51/51 27/52/52
f 28/50/50 27/52/52 20/53/53
s 13
f 30/54/54 9/55/55 29/56/56
f 30/54/54 29/56/56 28/57/57
s 14
f 23/61/61 27/60/60 18/58/58
f 27/60/60 16/59/59 18/58/58
s 15
f 17/62/62 22/63/63 31/66/66
f 31/66/66 26/64/64 18/65/65
f 17/62/62 31/66/66 18/65/65
s 16
f 14/70/70 28/69/69 15/67/67
f 28/69/69 20/68/68 15/67/67
s 17
f 16/74/74 27/73/73 29/72/72
f 16/74/74 29/72/72 13/71/71
s 18
f 14/78/78 11/77/77 28/75/75
f 11/77/77 30/76/76 28/75/75
s 19
f 12/82/82 32/81/81 30/80/80
f 12/82/82 30/80/80 11/79/79
s 20
f 34/86/86 33/85/85 32/84/84
f 34/86/86 32/84/84 12/83/83
s 21
f 32/87/87 7/88/88 30/90/90
f 7/88/88 9/89/89 30/90/90
s 22
f 13/94/94 29/93/93 9/92/92
f 13/94/94 9/92/92 10/91/91
s 23
f 8/96/96 5/97/97 35/99/99
f 35/99/99 34/98/98 12/95/95
f 12/95/95 8/96/96 35/99/99
s 24
f 26/102/102 31/103/103 35/104/104
f 34/111/111 35/104/104 22/108/108
f 21/109/109 33/110/110 34/111/111
f 21/109/109 36/107/107 33/110/110
f 6/106/106 36/107/107 24/101/101
f 36/107/107 25/100/100 24/101/101
f 21/109/109 25/100/100 36/107/107
f 34/111/111 22/108/108 21/109/109
f 35/104/104 31/103/103 22/108/108
f 26/102/102 5/105/105 6/106/106
f 6/106/106 24/101/101 26/102/102
f 26/102/102 35/104/104 5/105/105
s 25
f 36/116/116 6/113/113 7/114/114
f 36/116/116 7/114/114 32/115/115
f 32/115/115 33/112/112 36/116/116
