mtllib Prop_Exterior_Chimney.mtl
o object1
g object1
v 0.42500000 0.80000000 -0.05000000
v 0.42500000 0.00000000 -0.05000000
v -0.42500000 0.00000000 -0.05000000
v -0.42500000 0.80000000 -0.05000000
v -0.00000000 0.80000000 -0.05000000
v -0.45000000 0.80000000 -0.07500000
v -0.45000000 -0.00000000 -0.07500000
v -0.45000000 -0.00000000 -0.92500000
v -0.45000000 0.80000000 -0.92500000
v -0.45000000 -0.00000000 -0.50000000
v -0.42500000 0.80000000 -0.95000000
v -0.42500000 -0.00000000 -0.95000000
v 0.42500000 0.80000000 -0.95000000
v 0.42500000 -0.00000000 -0.95000000
v -0.00000000 0.80000000 -0.95000000
v 0.45000000 0.80000000 -0.92500000
v 0.45000000 -0.00000000 -0.92500000
v 0.45000000 0.80000000 -0.07500000
v 0.45000000 -0.00000000 -0.07500000
v 0.45000000 -0.00000000 -0.50000000
v -0.00000000 0.80000000 -1.00000000
v -0.47222222 0.80000000 -1.00000000
v -0.50000000 0.80000000 -0.97222222
v -0.50000000 0.80000000 -0.02777778
v -0.47222222 0.80000000 -0.00000000
v -0.00000000 0.80000000 -0.00000000
v 0.47222222 0.80000000 -0.00000000
v 0.50000000 0.80000000 -0.02777778
v 0.50000000 0.80000000 -0.97222222
v 0.47222222 0.80000000 -1.00000000
v -0.50000000 1.00000000 -0.97222222
v -0.50000000 1.00000000 -0.02777778
v -0.00000000 1.00000000 -0.25000000
v -0.25000000 1.00000000 -0.25000000
v -0.25000000 1.00000000 -0.75000000
v -0.00000000 1.00000000 -0.75000000
v -0.00000000 1.00000000 -1.00000000
v -0.47222222 1.00000000 -1.00000000
v -0.47222222 1.00000000 -0.00000000
v -0.00000000 1.00000000 -0.00000000
v 0.25000000 1.00000000 -0.75000000
v 0.25000000 1.00000000 -0.25000000
v 0.47222222 1.00000000 -0.00000000
v 0.50000000 1.00000000 -0.02777778
v 0.50000000 1.00000000 -0.97222222
v 0.47222222 1.00000000 -1.00000000
v 0.25000000 -0.00000000 -0.25000000
v -0.25000000 -0.00000000 -0.25000000
v 0.25000000 -0.00000000 -0.75000000
v 0.25000000 -0.00000000 -0.50000000
v -0.25000000 -0.00000000 -0.75000000
v -0.25000000 -0.00000000 -0.50000000
vt 1.00000000 1.00000000
vt 0.00000000 1.00000000
vt 0.00000000 0.00000000
vt 1.00000000 0.00000000
vt 1.00000000 0.50000000
vt 1.00000000 1.00000000
vt 0.00000000 1.00000000
vt 0.00000000 0.00000000
vt 1.00000000 0.00000000
vt 1.00000000 1.00000000
vt 0.00000000 1.00000000
vt 0.00000000 0.00000000
vt 1.00000000 0.00000000
vt 0.00000000 0.50000000
vt 1.00000000 1.00000000
vt 0.00000000 1.00000000
vt 0.00000000 0.00000000
vt 1.00000000 0.00000000
vt 1.00000000 1.00000000
vt 0.00000000 1.00000000
vt 0.00000000 0.00000000
vt 1.00000000 0.00000000
vt 1.00000000 0.50000000
vt 1.00000000 1.00000000
vt 0.00000000 1.00000000
vt 0.00000000 0.00000000
vt 1.00000000 0.00000000
vt 1.00000000 1.00000000
vt 0.00000000 1.00000000
vt 0.00000000 0.00000000
vt 1.00000000 0.00000000
vt 0.00000000 0.50000000
vt 0.95000000 0.50000000
vt 0.95000000 0.07500000
vt 0.92500000 0.05000000
vt 0.07500000 0.05000000
vt 0.05000000 0.07500000
vt 0.05000000 0.50000000
vt 0.00000000 0.50000000
vt 0.00000000 0.02777778
vt 0.02777778 0.00000000
vt 0.97222222 0.00000000
vt 1.00000000 0.02777778
vt 1.00000000 0.50000000
vt 0.05000000 0.92500000
vt 0.07500000 0.95000000
vt 0.92500000 0.95000000
vt 0.95000000 0.92500000
vt 1.00000000 0.97222222
vt 0.97222222 1.00000000
vt 0.02777778 1.00000000
vt 0.00000000 0.97222222
vt 0.00000000 1.00000000
vt 0.00000000 0.00000000
vt 1.00000000 0.00000000
vt 1.00000000 1.00000000
vt 0.75000000 0.50000000
vt 0.75000000 0.25000000
vt 0.25000000 0.25000000
vt 0.25000000 0.50000000
vt 0.00000000 0.50000000
vt 0.00000000 0.02777778
vt 0.02777778 0.00000000
vt 0.97222222 0.00000000
vt 1.00000000 0.02777778
vt 1.00000000 0.50000000
vt 0.25000000 0.75000000
vt 0.75000000 0.75000000
vt 1.00000000 0.97222222
vt 0.97222222 1.00000000
vt 0.02777778 1.00000000
vt 0.00000000 0.97222222
vt 0.00000000 1.00000000
vt 0.00000000 0.00000000
vt 1.00000000 0.00000000
vt 1.00000000 1.00000000
vt 1.00000000 0.50000000
vt 0.00000000 1.00000000
vt 0.00000000 0.00000000
vt 1.00000000 0.00000000
vt 1.00000000 1.00000000
vt 0.00000000 0.50000000
vt 0.00000000 1.00000000
vt 0.00000000 0.00000000
vt 1.00000000 0.00000000
vt 1.00000000 1.00000000
vt 1.00000000 0.50000000
vt 0.00000000 1.00000000
vt 0.00000000 0.00000000
vt 1.00000000 0.00000000
vt 1.00000000 1.00000000
vt 0.00000000 0.50000000
vt 1.00000000 0.00000000
vt 1.00000000 1.00000000
vt 0.00000000 1.00000000
vt 0.00000000 0.00000000
vt 0.00000000 1.00000000
vt 0.00000000 0.00000000
vt 1.00000000 0.00000000
vt 1.00000000 1.00000000
vt 1.00000000 0.50000000
vt 0.00000000 0.50000000
vt 1.00000000 0.00000000
vt 1.00000000 1.00000000
vt 0.00000000 1.00000000
vt 0.00000000 0.00000000
vt 1.00000000 0.00000000
vt 1.00000000 1.00000000
vt 0.00000000 1.00000000
vt 0.00000000 0.00000000
vt 1.00000000 0.00000000
vt 1.00000000 1.00000000
vt 0.00000000 1.00000000
vt 0.00000000 0.00000000
vt 0.00000000 1.00000000
vt 0.00000000 0.00000000
vt 1.00000000 0.00000000
vt 1.00000000 1.00000000
vt 0.00000000 0.50000000
vt 1.00000000 0.50000000
vt 1.00000000 0.00000000
vt 1.00000000 1.00000000
vt 0.00000000 1.00000000
vt 0.00000000 0.00000000
vt 1.00000000 1.00000000
vt 0.00000000 1.00000000
vt 0.00000000 0.00000000
vt 1.00000000 0.00000000
vt 0.50000000 0.22222222
vt 0.22222222 0.22222222
vt 0.22222222 0.77777778
vt 0.50000000 0.77777778
vt 0.50000000 1.00000000
vt 0.02777778 1.00000000
vt 0.00000000 0.97222222
vt 0.00000000 0.02777778
vt 0.02777778 0.00000000
vt 0.50000000 0.00000000
vt 0.77777778 0.77777778
vt 0.77777778 0.22222222
vt 0.97222222 0.00000000
vt 1.00000000 0.02777778
vt 1.00000000 0.97222222
vt 0.97222222 1.00000000
vn 0.00000000 0.00000000 1.00000000
vn 0.00000000 0.00000000 1.00000000
vn 0.00000000 0.00000000 1.00000000
vn 0.00000000 0.00000000 1.00000000
vn 0.00000000 0.00000000 1.00000000
vn -0.70710678 0.00000000 0.70710678
vn -0.70710678 0.00000000 0.70710678
vn -0.70710678 0.00000000 0.70710678
vn -0.70710678 0.00000000 0.70710678
vn -1.00000000 0.00000000 0.00000000
vn -1.00000000 0.00000000 0.00000000
vn -1.00000000 0.00000000 0.00000000
vn -1.00000000 0.00000000 0.00000000
vn -1.00000000 0.00000000 0.00000000
vn -0.70710678 -0.00000000 -0.70710678
vn -0.70710678 -0.00000000 -0.70710678
vn -0.70710678 -0.00000000 -0.70710678
vn -0.70710678 -0.00000000 -0.70710678
vn 0.00000000 -0.00000000 -1.00000000
vn 0.00000000 -0.00000000 -1.00000000
vn 0.00000000 -0.00000000 -1.00000000
vn 0.00000000 -0.00000000 -1.00000000
vn 0.00000000 -0.00000000 -1.00000000
vn 0.70710678 -0.00000000 -0.70710678
vn 0.70710678 -0.00000000 -0.70710678
vn 0.70710678 -0.00000000 -0.70710678
vn 0.70710678 -0.00000000 -0.70710678
vn 1.00000000 0.00000000 0.00000000
vn 1.00000000 0.00000000 0.00000000
vn 1.00000000 0.00000000 0.00000000
vn 1.00000000 0.00000000 0.00000000
vn 1.00000000 0.00000000 0.00000000
vn 0.00000000 -1.00000000 0.00000000
vn 0.00000000 -1.00000000 0.00000000
vn 0.00000000 -1.00000000 0.00000000
vn 0.00000000 -1.00000000 0.00000000
vn 0.00000000 -1.00000000 0.00000000
vn 0.00000000 -1.00000000 0.00000000
vn 0.00000000 -1.00000000 0.00000000
vn 0.00000000 -1.00000000 0.00000000
vn 0.00000000 -1.00000000 0.00000000
vn 0.00000000 -1.00000000 0.00000000
vn 0.00000000 -1.00000000 0.00000000
vn 0.00000000 -1.00000000 0.00000000
vn 0.00000000 -1.00000000 0.00000000
vn 0.00000000 -1.00000000 0.00000000
vn 0.00000000 -1.00000000 0.00000000
vn 0.00000000 -1.00000000 0.00000000
vn 0.00000000 -1.00000000 0.00000000
vn 0.00000000 -1.00000000 0.00000000
vn 0.00000000 -1.00000000 0.00000000
vn 0.00000000 -1.00000000 0.00000000
vn -1.00000000 0.00000000 0.00000000
vn -1.00000000 0.00000000 0.00000000
vn -1.00000000 0.00000000 0.00000000
vn -1.00000000 0.00000000 0.00000000
vn 0.00000000 1.00000000 -0.00000000
vn 0.00000000 1.00000000 -0.00000000
vn 0.00000000 1.00000000 -0.00000000
vn 0.00000000 1.00000000 -0.00000000
vn 0.00000000 1.00000000 -0.00000000
vn 0.00000000 1.00000000 -0.00000000
vn 0.00000000 1.00000000 -0.00000000
vn 0.00000000 1.00000000 -0.00000000
vn 0.00000000 1.00000000 -0.00000000
vn 0.00000000 1.00000000 -0.00000000
vn 0.00000000 1.00000000 -0.00000000
vn 0.00000000 1.00000000 -0.00000000
vn 0.00000000 1.00000000 -0.00000000
vn 0.00000000 1.00000000 -0.00000000
vn 0.00000000 1.00000000 -0.00000000
vn 0.00000000 1.00000000 -0.00000000
vn 0.00000000 -0.00000000 -1.00000000
vn 0.00000000 -0.00000000 -1.00000000
vn 0.00000000 -0.00000000 -1.00000000
vn 0.00000000 -0.00000000 -1.00000000
vn 0.00000000 -0.00000000 -1.00000000
vn -1.00000000 0.00000000 0.00000000
vn -1.00000000 0.00000000 0.00000000
vn -1.00000000 0.00000000 0.00000000
vn -1.00000000 0.00000000 0.00000000
vn -1.00000000 0.00000000 0.00000000
vn -0.00000000 0.00000000 1.00000000
vn -0.00000000 0.00000000 1.00000000
vn 0.00000000 0.00000000 1.00000000
vn 0.00000000 0.00000000 1.00000000
vn 0.00000000 0.00000000 1.00000000
vn 1.00000000 0.00000000 0.00000000
vn 1.00000000 0.00000000 0.00000000
vn 1.00000000 0.00000000 0.00000000
vn 1.00000000 0.00000000 0.00000000
vn 1.00000000 0.00000000 0.00000000
vn -0.70710678 0.00000000 0.70710678
vn -0.70710678 0.00000000 0.70710678
vn -0.70710678 0.00000000 0.70710678
vn -0.70710678 0.00000000 0.70710678
vn 0.00000000 0.00000000 1.00000000
vn 0.00000000 0.00000000 1.00000000
vn -0.00000000 0.00000000 1.00000000
vn -0.00000000 0.00000000 1.00000000
vn 0.00000000 0.00000000 1.00000000
vn 0.00000000 0.00000000 1.00000000
vn 0.70710678 0.00000000 0.70710678
vn 0.70710678 0.00000000 0.70710678
vn 0.70710678 0.00000000 0.70710678
vn 0.70710678 0.00000000 0.70710678
vn 1.00000000 0.00000000 0.00000000
vn 1.00000000 0.00000000 0.00000000
vn 1.00000000 0.00000000 0.00000000
vn 1.00000000 0.00000000 0.00000000
vn 0.70710678 0.00000000 -0.70710678
vn 0.70710678 0.00000000 -0.70710678
vn 0.70710678 0.00000000 -0.70710678
vn 0.70710678 0.00000000 -0.70710678
vn 0.00000000 0.00000000 -1.00000000
vn 0.00000000 0.00000000 -1.00000000
vn 0.00000000 0.00000000 -1.00000000
vn 0.00000000 0.00000000 -1.00000000
vn 0.00000000 0.00000000 -1.00000000
vn 0.00000000 0.00000000 -1.00000000
vn -0.70710678 0.00000000 -0.70710678
vn -0.70710678 0.00000000 -0.70710678
vn -0.70710678 0.00000000 -0.70710678
vn -0.70710678 0.00000000 -0.70710678
vn 0.70710678 0.00000000 0.70710678
vn 0.70710678 0.00000000 0.70710678
vn 0.70710678 0.00000000 0.70710678
vn 0.70710678 0.00000000 0.70710678
vn 0.00000000 -1.00000000 0.00000000
vn 0.00000000 -1.00000000 0.00000000
vn 0.00000000 -1.00000000 0.00000000
vn 0.00000000 -1.00000000 0.00000000
vn 0.00000000 -1.00000000 0.00000000
vn 0.00000000 -1.00000000 0.00000000
vn 0.00000000 -1.00000000 0.00000000
vn 0.00000000 -1.00000000 0.00000000
vn 0.00000000 -1.00000000 0.00000000
vn 0.00000000 -1.00000000 0.00000000
vn 0.00000000 -1.00000000 0.00000000
vn 0.00000000 -1.00000000 0.00000000
vn 0.00000000 -1.00000000 0.00000000
vn 0.00000000 -1.00000000 0.00000000
vn 0.00000000 -1.00000000 0.00000000
vn 0.00000000 -1.00000000 0.00000000
s 1
usemtl Gray
f 5/5/5 4/4/4 3/3/3
f 3/3/3 2/2/2 5/5/5
f 2/2/2 1/1/1 5/5/5
s 2
f 6/6/6 7/7/7 4/9/9
f 7/7/7 3/8/8 4/9/9
s 3
f 10/14/14 7/11/11 6/10/10
f 9/13/13 10/14/14 6/10/10
f 9/13/13 8/12/12 10/14/14
s 4
f 11/15/15 12/16/16 8/17/17
f 11/15/15 8/17/17 9/18/18
s 5
f 15/23/23 13/19/19 14/20/20
f 14/20/20 12/21/21 15/23/23
f 12/21/21 11/22/22 15/23/23
s 6
f 16/24/24 17/25/25 13/27/27
f 17/25/25 14/26/26 13/27/27
s 7
f 18/28/28 19/29/29 20/32/32
f 20/32/32 17/30/30 16/31/31
f 18/28/28 20/32/32 16/31/31
s 8
f 4/34/34 5/33/33 26/44/44
f 27/49/49 26/44/44 1/48/48
f 28/50/50 27/49/49 18/47/47
f 29/51/51 28/50/50 16/46/46
f 16/46/46 13/45/45 30/52/52
f 13/45/45 21/39/39 30/52/52
f 22/40/40 21/39/39 11/37/37
f 23/41/41 22/40/40 9/36/36
f 9/36/36 6/35/35 24/42/42
f 6/35/35 25/43/43 24/42/42
f 24/42/42 23/41/41 9/36/36
f 22/40/40 11/37/37 9/36/36
f 21/39/39 15/38/38 11/37/37
f 13/45/45 15/38/38 21/39/39
f 16/46/46 30/52/52 29/51/51
f 28/50/50 18/47/47 16/46/46
f 27/49/49 1/48/48 18/47/47
f 26/44/44 5/33/33 1/48/48
f 6/35/35 4/34/34 25/43/43
f 4/34/34 26/44/44 25/43/43
s 9
f 32/56/56 31/55/55 24/53/53
f 31/55/55 23/54/54 24/53/53
s 10
f 40/66/66 33/57/57 34/58/58
f 39/65/65 34/58/58 35/59/59
f 35/59/59 37/61/61 38/62/62
f 46/72/72 37/61/61 41/67/67
f 41/67/67 42/68/68 43/69/69
f 43/69/69 44/70/70 45/71/71
f 43/69/69 45/71/71 46/72/72
f 46/72/72 41/67/67 43/69/69
f 37/61/61 36/60/60 41/67/67
f 35/59/59 36/60/60 37/61/61
f 38/62/62 31/63/63 39/65/65
f 31/63/63 32/64/64 39/65/65
f 39/65/65 35/59/59 38/62/62
f 42/68/68 40/66/66 43/69/69
f 42/68/68 33/57/57 40/66/66
f 39/65/65 40/66/66 34/58/58
s 11
f 48/74/74 34/75/75 33/77/77
f 33/77/77 42/76/76 47/73/73
f 47/73/73 48/74/74 33/77/77
s 12
f 41/81/81 49/78/78 50/82/82
f 50/82/82 47/79/79 42/80/80
f 50/82/82 42/80/80 41/81/81
s 13
f 36/87/87 35/85/85 51/84/84
f 36/87/87 51/84/84 49/83/83
f 49/83/83 41/86/86 36/87/87
s 14
f 52/92/92 51/88/88 35/91/91
f 35/91/91 34/90/90 52/92/92
f 34/90/90 48/89/89 52/92/92
s 15
f 39/93/93 32/94/94 25/96/96
f 32/94/94 24/95/95 25/96/96
s 16
f 39/99/99 25/98/98 26/102/102
f 43/100/100 40/101/101 26/102/102
f 26/102/102 27/97/97 43/100/100
f 40/101/101 39/99/99 26/102/102
s 17
f 44/103/103 43/104/104 27/105/105
f 44/103/103 27/105/105 28/106/106
s 18
f 45/107/107 44/108/108 28/109/109
f 45/107/107 28/109/109 29/110/110
s 19
f 46/111/111 45/112/112 29/113/113
f 46/111/111 29/113/113 30/114/114
s 20
f 22/116/116 38/117/117 37/120/120
f 37/120/120 46/118/118 21/119/119
f 46/118/118 30/115/115 21/119/119
f 21/119/119 22/116/116 37/120/120
s 21
f 31/121/121 38/122/122 23/124/124
f 38/122/122 22/123/123 23/124/124
s 22
f 1/125/125 2/126/126 19/127/127
f 1/125/125 19/127/127 18/128/128
s 23
f 20/133/133 50/132/132 49/131/131
f 17/134/134 49/131/131 51/130/130
f 51/130/130 10/138/138 8/137/137
f 7/141/141 10/138/138 48/140/140
f 48/140/140 47/139/139 19/144/144
f 19/144/144 2/143/143 7/141/141
f 2/143/143 3/142/142 7/141/141
f 7/141/141 48/140/140 19/144/144
f 10/138/138 52/129/129 48/140/140
f 51/130/130 52/129/129 10/138/138
f 8/137/137 12/136/136 17/134/134
f 12/136/136 14/135/135 17/134/134
f 17/134/134 51/130/130 8/137/137
f 47/139/139 20/133/133 19/144/144
f 47/139/139 50/132/132 20/133/133
f 17/134/134 20/133/133 49/131/131
