mtllib Prop_Misc_Picture_Square_Large.mtl
o object1
g object1
v 0.42500000 0.07500000 -0.43750000
v -0.42500000 0.07500000 -0.43750000
v -0.42500000 0.92500000 -0.43750000
v 0.42500000 0.92500000 -0.43750000
vt 1.00000000 0.00000000
vt 1.00000000 1.00000000
vt 0.00000000 1.00000000
vt 0.00000000 0.00000000
vn -0.00000000 -0.00000000 1.00000000
vn -0.00000000 -0.00000000 1.00000000
vn -0.00000000 -0.00000000 1.00000000
vn -0.00000000 -0.00000000 1.00000000
s 1
usemtl Picture2
f 4/4/4 3/3/3 1/1/1
f 3/3/3 2/2/2 1/1/1
o object2
g object2
v 0.48750000 0.98750000 -0.40000000
v -0.48750000 0.98750000 -0.40000000
v -0.45000000 0.95000000 -0.42500000
v 0.45000000 0.95000000 -0.42500000
v -0.50000000 1.00000000 -0.42500000
v 0.50000000 1.00000000 -0.42500000
v -0.50000000 0.00000000 -0.42500000
v -0.48750000 0.01250000 -0.40000000
v 0.50000000 -0.00000000 -0.42500000
v 0.48750000 0.01250000 -0.40000000
v -0.50000000 0.00000000 -0.45000000
v 0.50000000 -0.00000000 -0.45000000
v 0.42500000 0.50000000 -0.45000000
v 0.42500000 0.07500000 -0.45000000
v -0.42500000 0.07500000 -0.45000000
v -0.42500000 0.50000000 -0.45000000
v -0.50000000 0.50000000 -0.45000000
v 0.50000000 0.50000000 -0.45000000
v -0.42500000 0.92500000 -0.45000000
v 0.42500000 0.92500000 -0.45000000
v 0.50000000 1.00000000 -0.45000000
v -0.50000000 1.00000000 -0.45000000
v -0.42500000 0.07500000 -0.42500000
v 0.42500000 0.07500000 -0.42500000
v -0.43750000 0.06250000 -0.41250000
v 0.43750000 0.06250000 -0.41250000
v -0.43750000 0.93750000 -0.41250000
v -0.42500000 0.92500000 -0.42500000
v 0.42500000 0.92500000 -0.42500000
v 0.43750000 0.93750000 -0.41250000
v -0.45000000 0.05000000 -0.42500000
v 0.45000000 0.05000000 -0.42500000
vt 0.00000000 0.00000000
vt 1.00000000 0.00000000
vt 0.96153846 1.00000000
vt 0.03846154 1.00000000
vt 1.00000000 0.00000000
vt 0.98750000 1.00000000
vt 0.01250000 1.00000000
vt 0.00000000 0.00000000
vt 0.00000000 0.00000000
vt 1.00000000 0.00000000
vt 0.98750000 1.00000000
vt 0.01250000 1.00000000
vt 1.00000000 0.00000000
vt 0.98750000 1.00000000
vt 0.01250000 1.00000000
vt 0.00000000 0.00000000
vt 0.00000000 0.00000000
vt 1.00000000 0.00000000
vt 1.00000000 1.00000000
vt 0.00000000 1.00000000
vt 0.50000000 0.07500000
vt 0.07500000 0.07500000
vt 0.07500000 0.92500000
vt 0.50000000 0.92500000
vt 0.50000000 1.00000000
vt 0.00000000 1.00000000
vt 0.00000000 0.00000000
vt 0.50000000 0.00000000
vt 0.92500000 0.92500000
vt 0.92500000 0.07500000
vt 1.00000000 0.00000000
vt 1.00000000 1.00000000
vt 0.00000000 1.00000000
vt 0.00000000 0.00000000
vt 1.00000000 0.00000000
vt 1.00000000 1.00000000
vt 0.01428571 1.00000000
vt 0.00000000 0.00000000
vt 1.00000000 0.00000000
vt 0.98571429 1.00000000
vt 0.01428571 1.00000000
vt 0.00000000 0.00000000
vt 1.00000000 0.00000000
vt 0.98571429 1.00000000
vt 1.00000000 0.00000000
vt 0.98571429 1.00000000
vt 0.01428571 1.00000000
vt 0.00000000 0.00000000
vt 0.00000000 0.00000000
vt 1.00000000 0.00000000
vt 0.98611111 1.00000000
vt 0.01388889 1.00000000
vt 0.01428571 1.00000000
vt 0.00000000 0.00000000
vt 1.00000000 0.00000000
vt 0.98571429 1.00000000
vt 0.00000000 0.00000000
vt 1.00000000 0.00000000
vt 0.98611111 1.00000000
vt 0.01388889 1.00000000
vt 0.00000000 0.00000000
vt 1.00000000 0.00000000
vt 0.98611111 1.00000000
vt 0.01388889 1.00000000
vt 0.00000000 1.00000000
vt 0.00000000 0.00000000
vt 1.00000000 0.00000000
vt 1.00000000 1.00000000
vt 0.50000000 1.00000000
vt 1.00000000 0.00000000
vt 1.00000000 1.00000000
vt 0.00000000 1.00000000
vt 0.00000000 0.00000000
vt 0.00000000 1.00000000
vt 0.00000000 0.00000000
vt 1.00000000 0.00000000
vt 1.00000000 1.00000000
vt 0.50000000 1.00000000
vt 1.00000000 1.00000000
vt 0.00000000 1.00000000
vt 0.00000000 0.00000000
vt 1.00000000 0.00000000
vt 0.50000000 1.00000000
vt 0.00000000 0.00000000
vt 1.00000000 0.00000000
vt 0.96153846 1.00000000
vt 0.03846154 1.00000000
vt 0.00000000 0.00000000
vt 1.00000000 0.00000000
vt 1.00000000 1.00000000
vt 0.00000000 1.00000000
vt 0.50000000 0.00000000
vt 0.00000000 0.00000000
vt 1.00000000 0.00000000
vt 1.00000000 1.00000000
vt 0.00000000 1.00000000
vt 1.00000000 0.00000000
vt 0.98750000 1.00000000
vt 0.01250000 1.00000000
vt 0.00000000 0.00000000
vt 0.00000000 0.00000000
vt 1.00000000 0.00000000
vt 0.96153846 1.00000000
vt 0.03846154 1.00000000
vt 0.00000000 0.00000000
vt 1.00000000 0.00000000
vt 0.98611111 1.00000000
vt 0.01388889 1.00000000
vt 0.00000000 0.00000000
vt 1.00000000 0.00000000
vt 0.96153846 1.00000000
vt 0.03846154 1.00000000
vn -0.00000000 -0.55470020 0.83205029
vn -0.00000000 -0.55470020 0.83205029
vn -0.00000000 -0.55470020 0.83205029
vn -0.00000000 -0.55470020 0.83205029
vn 0.00000000 0.89442719 0.44721360
vn 0.00000000 0.89442719 0.44721360
vn 0.00000000 0.89442719 0.44721360
vn 0.00000000 0.89442719 0.44721360
vn -0.89442719 -0.00000000 0.44721360
vn -0.89442719 -0.00000000 0.44721360
vn -0.89442719 0.00000000 0.44721360
vn -0.89442719 0.00000000 0.44721360
vn -0.00000000 -0.89442719 0.44721360
vn -0.00000000 -0.89442719 0.44721360
vn -0.00000000 -0.89442719 0.44721360
vn -0.00000000 -0.89442719 0.44721360
vn -0.00000000 -1.00000000 -0.00000000
vn -0.00000000 -1.00000000 0.00000000
vn -0.00000000 -1.00000000 0.00000000
vn -0.00000000 -1.00000000 -0.00000000
vn -0.00000000 -0.00000000 -1.00000000
vn -0.00000000 -0.00000000 -1.00000000
vn -0.00000000 -0.00000000 -1.00000000
vn -0.00000000 -0.00000000 -1.00000000
vn -0.00000000 -0.00000000 -1.00000000
vn -0.00000000 -0.00000000 -1.00000000
vn -0.00000000 -0.00000000 -1.00000000
vn -0.00000000 -0.00000000 -1.00000000
vn -0.00000000 -0.00000000 -1.00000000
vn -0.00000000 -0.00000000 -1.00000000
vn -0.00000000 -0.00000000 -1.00000000
vn -0.00000000 -0.00000000 -1.00000000
vn 0.00000000 1.00000000 -0.00000000
vn 0.00000000 1.00000000 -0.00000000
vn 0.00000000 1.00000000 -0.00000000
vn 0.00000000 1.00000000 -0.00000000
vn 0.00000000 0.70710678 0.70710678
vn 0.00000000 0.70710678 0.70710678
vn 0.00000000 0.70710678 0.70710678
vn 0.00000000 0.70710678 0.70710678
vn 0.70710678 0.00000000 0.70710678
vn 0.70710678 0.00000000 0.70710678
vn 0.70710678 0.00000000 0.70710678
vn 0.70710678 0.00000000 0.70710678
vn -0.00000000 -0.70710678 0.70710678
vn -0.00000000 -0.70710678 0.70710678
vn -0.00000000 -0.70710678 0.70710678
vn -0.00000000 -0.70710678 0.70710678
vn -0.70710678 -0.00000000 0.70710678
vn -0.70710678 -0.00000000 0.70710678
vn -0.70710678 -0.00000000 0.70710678
vn -0.70710678 -0.00000000 0.70710678
vn -0.70710678 -0.00000000 0.70710678
vn -0.70710678 -0.00000000 0.70710678
vn -0.70710678 -0.00000000 0.70710678
vn -0.70710678 -0.00000000 0.70710678
vn 0.70710678 0.00000000 0.70710678
vn 0.70710678 0.00000000 0.70710678
vn 0.70710678 0.00000000 0.70710678
vn 0.70710678 0.00000000 0.70710678
vn -0.00000000 -0.70710678 0.70710678
vn -0.00000000 -0.70710678 0.70710678
vn -0.00000000 -0.70710678 0.70710678
vn -0.00000000 -0.70710678 0.70710678
vn 1.00000000 0.00000000 0.00000000
vn 1.00000000 0.00000000 0.00000000
vn 1.00000000 0.00000000 0.00000000
vn 1.00000000 0.00000000 0.00000000
vn 1.00000000 0.00000000 0.00000000
vn -0.00000000 -1.00000000 0.00000000
vn -0.00000000 -1.00000000 0.00000000
vn -0.00000000 -1.00000000 0.00000000
vn -0.00000000 -1.00000000 0.00000000
vn -1.00000000 -0.00000000 -0.00000000
vn -1.00000000 -0.00000000 -0.00000000
vn -1.00000000 -0.00000000 -0.00000000
vn -1.00000000 -0.00000000 -0.00000000
vn -1.00000000 -0.00000000 0.00000000
vn 1.00000000 -0.00000000 -0.00000000
vn 1.00000000 -0.00000000 -0.00000000
vn 1.00000000 -0.00000000 -0.00000000
vn 1.00000000 -0.00000000 -0.00000000
vn 1.00000000 -0.00000000 -0.00000000
vn 0.00000000 0.55470020 0.83205029
vn 0.00000000 0.55470020 0.83205029
vn 0.00000000 0.55470020 0.83205029
vn 0.00000000 0.55470020 0.83205029
vn -1.00000000 -0.00000000 0.00000000
vn -1.00000000 -0.00000000 0.00000000
vn -1.00000000 -0.00000000 0.00000000
vn -1.00000000 -0.00000000 0.00000000
vn -1.00000000 -0.00000000 0.00000000
vn 0.00000000 1.00000000 0.00000000
vn 0.00000000 1.00000000 0.00000000
vn 0.00000000 1.00000000 0.00000000
vn 0.00000000 1.00000000 0.00000000
vn 0.89442719 0.00000000 0.44721360
vn 0.89442719 0.00000000 0.44721360
vn 0.89442719 0.00000000 0.44721360
vn 0.89442719 0.00000000 0.44721360
vn -0.55470020 -0.00000000 0.83205029
vn -0.55470020 -0.00000000 0.83205029
vn -0.55470020 -0.00000000 0.83205029
vn -0.55470020 -0.00000000 0.83205029
vn 0.00000000 0.70710678 0.70710678
vn 0.00000000 0.70710678 0.70710678
vn 0.00000000 0.70710678 0.70710678
vn 0.00000000 0.70710678 0.70710678
vn 0.55470020 0.00000000 0.83205029
vn 0.55470020 0.00000000 0.83205029
vn 0.55470020 0.00000000 0.83205029
vn 0.55470020 0.00000000 0.83205029
s 1
usemtl Dark_Wood
f 5/5/5 6/6/6 8/8/8
f 6/6/6 7/7/7 8/8/8
s 2
f 9/9/9 6/10/10 5/11/11
f 9/9/9 5/11/11 10/12/12
s 3
f 12/16/16 6/15/15 11/13/13
f 6/15/15 9/14/14 11/13/13
s 4
f 13/17/17 14/18/18 12/19/19
f 13/17/17 12/19/19 11/20/20
s 5
f 15/21/21 16/22/22 13/23/23
f 15/21/21 13/23/23 11/24/24
s 6
f 18/26/26 17/25/25 22/32/32
f 25/35/35 22/32/32 24/34/34
f 24/34/34 23/33/33 26/36/36
f 23/33/33 21/29/29 26/36/36
f 15/30/30 21/29/29 19/27/27
f 16/31/31 15/30/30 19/27/27
f 21/29/29 20/28/28 19/27/27
f 23/33/33 20/28/28 21/29/29
f 26/36/36 25/35/35 24/34/34
f 22/32/32 17/25/25 24/34/34
f 19/27/27 18/26/26 16/31/31
f 18/26/26 22/32/32 16/31/31
s 7
f 19/37/37 27/38/38 28/39/39
f 19/37/37 28/39/39 18/40/40
s 8
f 27/41/41 29/42/42 30/43/43
f 27/41/41 30/43/43 28/44/44
s 9
f 32/48/48 31/47/47 29/46/46
f 32/48/48 29/46/46 27/45/45
s 10
f 31/49/49 32/50/50 33/51/51
f 31/49/49 33/51/51 34/52/52
s 11
f 29/56/56 31/55/55 35/53/53
f 31/55/55 7/54/54 35/53/53
s 12
f 28/60/60 30/59/59 33/57/57
f 30/59/59 34/58/58 33/57/57
s 13
f 34/64/64 30/63/63 36/62/62
f 34/64/64 36/62/62 8/61/61
s 14
f 35/65/65 36/66/66 30/67/67
f 35/65/65 30/67/67 29/68/68
s 15
f 27/70/70 19/69/69 20/73/73
f 20/73/73 23/72/72 32/71/71
f 32/71/71 27/70/70 20/73/73
s 16
f 32/74/74 23/75/75 24/76/76
f 32/74/74 24/76/76 33/77/77
s 17
f 33/79/79 24/78/78 17/82/82
f 17/82/82 18/81/81 28/80/80
f 28/80/80 33/79/79 17/82/82
s 18
f 13/85/85 16/84/84 22/87/87
f 22/87/87 25/83/83 10/86/86
f 10/86/86 13/85/85 22/87/87
s 19
f 12/88/88 14/89/89 36/90/90
f 12/88/88 36/90/90 35/91/91
s 20
f 21/96/96 15/92/92 11/95/95
f 11/95/95 9/94/94 21/96/96
f 9/94/94 26/93/93 21/96/96
s 21
f 25/97/97 26/98/98 10/100/100
f 26/98/98 9/99/99 10/100/100
s 22
f 10/104/104 5/103/103 14/102/102
f 10/104/104 14/102/102 13/101/101
s 23
f 8/108/108 36/107/107 14/106/106
f 8/108/108 14/106/106 5/105/105
s 24
f 8/109/109 7/110/110 34/112/112
f 7/110/110 31/111/111 34/112/112
s 25
f 35/116/116 7/115/115 12/113/113
f 7/115/115 6/114/114 12/113/113
