mtllib Structure_Wall_Curved_Large_Main.mtl
o object1
g object1
v 0.24854019 1.00000000 -1.30713589
v 0.52202276 1.00000000 -1.16778956
v 0.52202276 0.00000000 -1.16778956
v 0.24854019 0.00000000 -1.30713589
v 1.55000000 0.00000000 0.50000000
v 1.55000000 0.00000000 0.33866150
v 1.49952220 0.00000000 0.01995719
v 1.39980952 0.00000000 -0.28692687
v 1.25331723 0.00000000 -0.57443418
v 1.06365245 0.00000000 -0.83548535
v 0.83548535 0.00000000 -1.06365245
v 0.57443418 0.00000000 -1.25331723
v 0.28692687 0.00000000 -1.39980952
v -0.01995719 0.00000000 -1.49952220
v -0.33866150 0.00000000 -1.55000000
v -0.50000000 0.00000000 -1.55000000
v -0.50000000 0.00000000 -1.45000000
v -0.34653167 0.00000000 -1.45000000
v -0.04337391 0.00000000 -1.40198453
v 0.77033973 0.00000000 -0.98737672
v 0.98737672 0.00000000 -0.77033973
v 1.16778956 0.00000000 -0.52202276
v 1.30713589 0.00000000 -0.24854019
v 1.40198453 0.00000000 0.04337391
v 1.45000000 0.00000000 0.34653167
v 1.45000000 0.00000000 0.50000000
v 1.49952220 1.00000000 0.01995719
v 1.39980952 1.00000000 -0.28692687
v 1.25331723 1.00000000 -0.57443418
v 1.06365245 1.00000000 -0.83548535
v 0.83548535 1.00000000 -1.06365245
v 0.57443418 1.00000000 -1.25331723
v 0.28692687 1.00000000 -1.39980952
v -0.01995719 1.00000000 -1.49952220
v -0.33866150 1.00000000 -1.55000000
v -0.50000000 1.00000000 -1.55000000
v -0.50000000 1.00000000 -1.45000000
v -0.34653167 1.00000000 -1.45000000
v -0.04337391 1.00000000 -1.40198453
v 0.77033973 1.00000000 -0.98737672
v 0.98737672 1.00000000 -0.77033973
v 1.16778956 1.00000000 -0.52202276
v 1.30713589 1.00000000 -0.24854019
v 1.40198453 1.00000000 0.04337391
v 1.45000000 1.00000000 0.34653167
v 1.45000000 1.00000000 0.50000000
v 1.55000000 1.00000000 0.50000000
v 1.55000000 1.00000000 0.33866150
vt 1.00000000 0.00000000
vt 1.00000000 1.00000000
vt 0.00000000 1.00000000
vt 0.00000000 0.00000000
vt 0.00000000 0.00000000
vt 0.07870171 0.00000000
vt 0.23416722 0.02462332
vt 0.38386677 0.07326365
vt 0.52411423 0.14472330
vt 0.65145627 0.23724271
vt 0.76275729 0.34854373
vt 0.85527670 0.47588577
vt 0.92673635 0.61613323
vt 0.97537668 0.76583278
vt 1.00000000 0.92129829
vt 1.00000000 1.00000000
vt 0.95121951 1.00000000
vt 0.95121951 0.92513740
vt 0.92779733 0.77725557
vt 0.88152970 0.63485844
vt 0.81355588 0.50145231
vt 0.72554962 0.38032208
vt 0.61967792 0.27445038
vt 0.49854769 0.18644412
vt 0.36514156 0.11847030
vt 0.22274443 0.07220267
vt 0.07486260 0.04878049
vt 0.00000000 0.04878049
vt 1.00000000 0.00000000
vt 1.00000000 1.00000000
vt 0.00000000 1.00000000
vt 0.00000000 0.00000000
vt 1.00000000 0.00000000
vt 1.00000000 1.00000000
vt 0.00000000 1.00000000
vt 0.00000000 0.00000000
vt 1.00000000 0.00000000
vt 1.00000000 1.00000000
vt 0.00000000 1.00000000
vt 0.00000000 0.00000000
vt 1.00000000 0.00000000
vt 1.00000000 1.00000000
vt 0.00000000 1.00000000
vt 0.00000000 0.00000000
vt 1.00000000 0.00000000
vt 1.00000000 1.00000000
vt 0.00000000 1.00000000
vt 0.00000000 0.00000000
vt 1.00000000 0.00000000
vt 1.00000000 1.00000000
vt 0.00000000 1.00000000
vt 0.00000000 0.00000000
vt 1.00000000 0.00000000
vt 1.00000000 1.00000000
vt 0.00000000 1.00000000
vt 0.00000000 0.00000000
vt 1.00000000 0.00000000
vt 1.00000000 1.00000000
vt 0.00000000 1.00000000
vt 0.00000000 0.00000000
vt 1.00000000 0.00000000
vt 1.00000000 1.00000000
vt 0.00000000 1.00000000
vt 0.00000000 0.00000000
vt 1.00000000 0.00000000
vt 1.00000000 1.00000000
vt 0.00000000 1.00000000
vt 0.00000000 0.00000000
vt 1.00000000 0.00000000
vt 1.00000000 1.00000000
vt 0.00000000 1.00000000
vt 0.00000000 0.00000000
vt 1.00000000 0.00000000
vt 1.00000000 1.00000000
vt 0.00000000 1.00000000
vt 0.00000000 0.00000000
vt 1.00000000 0.00000000
vt 1.00000000 1.00000000
vt 0.00000000 1.00000000
vt 0.00000000 0.00000000
vt 1.00000000 0.00000000
vt 1.00000000 1.00000000
vt 0.00000000 1.00000000
vt 0.00000000 0.00000000
vt 1.00000000 0.00000000
vt 1.00000000 1.00000000
vt 0.00000000 1.00000000
vt 0.00000000 0.00000000
vt 1.00000000 0.00000000
vt 1.00000000 1.00000000
vt 0.00000000 1.00000000
vt 0.00000000 0.00000000
vt 1.00000000 0.00000000
vt 1.00000000 1.00000000
vt 0.00000000 1.00000000
vt 0.00000000 0.00000000
vt 1.00000000 0.00000000
vt 1.00000000 1.00000000
vt 0.00000000 1.00000000
vt 0.00000000 0.00000000
vt 1.00000000 0.00000000
vt 1.00000000 1.00000000
vt 0.00000000 1.00000000
vt 0.00000000 0.00000000
vt 1.00000000 0.00000000
vt 1.00000000 1.00000000
vt 0.00000000 1.00000000
vt 0.00000000 0.00000000
vt 1.00000000 0.00000000
vt 1.00000000 1.00000000
vt 0.00000000 1.00000000
vt 0.00000000 0.00000000
vt 1.00000000 0.00000000
vt 1.00000000 1.00000000
vt 0.00000000 1.00000000
vt 0.00000000 0.00000000
vt 0.00000000 0.00000000
vt 0.07870171 0.00000000
vt 0.23416722 0.02462332
vt 0.38386677 0.07326365
vt 0.52411423 0.14472330
vt 0.65145627 0.23724271
vt 0.76275729 0.34854373
vt 0.85527670 0.47588577
vt 0.92673635 0.61613323
vt 0.97537668 0.76583278
vt 1.00000000 0.92129829
vt 1.00000000 1.00000000
vt 0.95121951 1.00000000
vt 0.95121951 0.92513740
vt 0.92779733 0.77725557
vt 0.88152970 0.63485844
vt 0.81355588 0.50145231
vt 0.72554962 0.38032208
vt 0.61967792 0.27445038
vt 0.49854769 0.18644412
vt 0.36514156 0.11847030
vt 0.22274443 0.07220267
vt 0.07486260 0.04878049
vt 0.00000000 0.04878049
vt 1.00000000 0.00000000
vt 1.00000000 1.00000000
vt 0.00000000 1.00000000
vt 0.00000000 0.00000000
vn -0.45399050 0.00000000 0.89100652
vn -0.45399050 0.00000000 0.89100652
vn -0.45399050 0.00000000 0.89100652
vn -0.45399050 0.00000000 0.89100652
vn 0.00000000 -1.00000000 0.00000000
vn 0.00000000 -1.00000000 0.00000000
vn 0.00000000 -1.00000000 0.00000000
vn 0.00000000 -1.00000000 0.00000000
vn 0.00000000 -1.00000000 0.00000000
vn 0.00000000 -1.00000000 0.00000000
vn 0.00000000 -1.00000000 0.00000000
vn 0.00000000 -1.00000000 0.00000000
vn 0.00000000 -1.00000000 0.00000000
vn 0.00000000 -1.00000000 0.00000000
vn 0.00000000 -1.00000000 0.00000000
vn 0.00000000 -1.00000000 0.00000000
vn 0.00000000 -1.00000000 0.00000000
vn 0.00000000 -1.00000000 0.00000000
vn 0.00000000 -1.00000000 0.00000000
vn 0.00000000 -1.00000000 0.00000000
vn 0.00000000 -1.00000000 0.00000000
vn 0.00000000 -1.00000000 0.00000000
vn 0.00000000 -1.00000000 0.00000000
vn 0.00000000 -1.00000000 0.00000000
vn 0.00000000 -1.00000000 0.00000000
vn 0.00000000 -1.00000000 0.00000000
vn 0.00000000 -1.00000000 0.00000000
vn 0.00000000 -1.00000000 0.00000000
vn 0.95105652 0.00000000 -0.30901699
vn 0.95105652 0.00000000 -0.30901699
vn 0.95105652 0.00000000 -0.30901699
vn 0.95105652 0.00000000 -0.30901699
vn 0.89100652 0.00000000 -0.45399050
vn 0.89100652 0.00000000 -0.45399050
vn 0.89100652 0.00000000 -0.45399050
vn 0.89100652 0.00000000 -0.45399050
vn 0.80901699 0.00000000 -0.58778525
vn 0.80901699 0.00000000 -0.58778525
vn 0.80901699 0.00000000 -0.58778525
vn 0.80901699 0.00000000 -0.58778525
vn 0.70710678 0.00000000 -0.70710678
vn 0.70710678 0.00000000 -0.70710678
vn 0.70710678 0.00000000 -0.70710678
vn 0.70710678 0.00000000 -0.70710678
vn 0.58778525 0.00000000 -0.80901699
vn 0.58778525 0.00000000 -0.80901699
vn 0.58778525 0.00000000 -0.80901699
vn 0.58778525 0.00000000 -0.80901699
vn 0.45399050 0.00000000 -0.89100652
vn 0.45399050 0.00000000 -0.89100652
vn 0.45399050 0.00000000 -0.89100652
vn 0.45399050 0.00000000 -0.89100652
vn 0.30901699 0.00000000 -0.95105652
vn 0.30901699 0.00000000 -0.95105652
vn 0.30901699 0.00000000 -0.95105652
vn 0.30901699 0.00000000 -0.95105652
vn 0.15643447 0.00000000 -0.98768834
vn 0.15643447 0.00000000 -0.98768834
vn 0.15643447 0.00000000 -0.98768834
vn 0.15643447 0.00000000 -0.98768834
vn 0.00000000 0.00000000 -1.00000000
vn 0.00000000 0.00000000 -1.00000000
vn 0.00000000 0.00000000 -1.00000000
vn 0.00000000 0.00000000 -1.00000000
vn -1.00000000 0.00000000 0.00000000
vn -1.00000000 0.00000000 0.00000000
vn -1.00000000 0.00000000 0.00000000
vn -1.00000000 0.00000000 0.00000000
vn 0.00000000 0.00000000 1.00000000
vn 0.00000000 0.00000000 1.00000000
vn 0.00000000 0.00000000 1.00000000
vn 0.00000000 0.00000000 1.00000000
vn -0.15643447 0.00000000 0.98768834
vn -0.15643447 0.00000000 0.98768834
vn -0.15643447 0.00000000 0.98768834
vn -0.15643447 0.00000000 0.98768834
vn -0.70710678 0.00000000 0.70710678
vn -0.70710678 0.00000000 0.70710678
vn -0.70710678 0.00000000 0.70710678
vn -0.70710678 0.00000000 0.70710678
vn -0.80901699 0.00000000 0.58778525
vn -0.80901699 0.00000000 0.58778525
vn -0.80901699 0.00000000 0.58778525
vn -0.80901699 0.00000000 0.58778525
vn -0.89100652 0.00000000 0.45399050
vn -0.89100652 0.00000000 0.45399050
vn -0.89100652 0.00000000 0.45399050
vn -0.89100652 0.00000000 0.45399050
vn -0.95105652 0.00000000 0.30901699
vn -0.95105652 0.00000000 0.30901699
vn -0.95105652 0.00000000 0.30901699
vn -0.95105652 0.00000000 0.30901699
vn -0.98768834 0.00000000 0.15643447
vn -0.98768834 0.00000000 0.15643447
vn -0.98768834 0.00000000 0.15643447
vn -0.98768834 0.00000000 0.15643447
vn -1.00000000 0.00000000 0.00000000
vn -1.00000000 0.00000000 0.00000000
vn -1.00000000 0.00000000 0.00000000
vn -1.00000000 0.00000000 0.00000000
vn -0.00000000 0.00000000 1.00000000
vn -0.00000000 0.00000000 1.00000000
vn -0.00000000 0.00000000 1.00000000
vn -0.00000000 0.00000000 1.00000000
vn 1.00000000 0.00000000 0.00000000
vn 1.00000000 0.00000000 0.00000000
vn 1.00000000 0.00000000 0.00000000
vn 1.00000000 0.00000000 0.00000000
vn 0.98768834 0.00000000 -0.15643447
vn 0.98768834 0.00000000 -0.15643447
vn 0.98768834 0.00000000 -0.15643447
vn 0.98768834 0.00000000 -0.15643447
vn -0.30901699 0.00000000 0.95105652
vn -0.30901699 0.00000000 0.95105652
vn -0.30901699 0.00000000 0.95105652
vn -0.30901699 0.00000000 0.95105652
vn 0.00000000 1.00000000 0.00000000
vn 0.00000000 1.00000000 0.00000000
vn 0.00000000 1.00000000 0.00000000
vn 0.00000000 1.00000000 0.00000000
vn 0.00000000 1.00000000 0.00000000
vn 0.00000000 1.00000000 0.00000000
vn 0.00000000 1.00000000 0.00000000
vn 0.00000000 1.00000000 0.00000000
vn 0.00000000 1.00000000 0.00000000
vn 0.00000000 1.00000000 0.00000000
vn 0.00000000 1.00000000 0.00000000
vn 0.00000000 1.00000000 0.00000000
vn 0.00000000 1.00000000 0.00000000
vn 0.00000000 1.00000000 0.00000000
vn 0.00000000 1.00000000 0.00000000
vn 0.00000000 1.00000000 0.00000000
vn 0.00000000 1.00000000 0.00000000
vn 0.00000000 1.00000000 0.00000000
vn 0.00000000 1.00000000 0.00000000
vn 0.00000000 1.00000000 0.00000000
vn 0.00000000 1.00000000 0.00000000
vn 0.00000000 1.00000000 0.00000000
vn 0.00000000 1.00000000 0.00000000
vn 0.00000000 1.00000000 0.00000000
vn -0.58778525 0.00000000 0.80901699
vn -0.58778525 0.00000000 0.80901699
vn -0.58778525 0.00000000 0.80901699
vn -0.58778525 0.00000000 0.80901699
s 1
usemtl Beige
f 4/4/4 3/3/3 1/1/1
f 3/3/3 2/2/2 1/1/1
s 2
usemtl White
f 5/5/5 26/28/28 25/27/27
f 6/6/6 25/27/27 24/26/26
f 7/7/7 24/26/26 23/25/25
f 8/8/8 23/25/25 22/24/24
f 9/9/9 22/24/24 21/23/23
f 10/10/10 21/23/23 20/22/22
f 11/11/11 20/22/22 3/21/21
f 3/21/21 13/13/13 12/12/12
f 4/20/20 14/14/14 13/13/13
f 19/19/19 15/15/15 14/14/14
f 18/18/18 16/16/16 15/15/15
f 18/18/18 17/17/17 16/16/16
f 19/19/19 18/18/18 15/15/15
f 4/20/20 19/19/19 14/14/14
f 3/21/21 4/20/20 13/13/13
f 12/12/12 11/11/11 3/21/21
f 11/11/11 10/10/10 20/22/22
f 10/10/10 9/9/9 21/23/23
f 9/9/9 8/8/8 22/24/24
f 8/8/8 7/7/7 23/25/25
f 7/7/7 6/6/6 24/26/26
f 6/6/6 5/5/5 25/27/27
s 3
usemtl Beige
f 7/32/32 8/31/31 27/29/29
f 8/31/31 28/30/30 27/29/29
s 4
f 8/36/36 9/35/35 28/33/33
f 9/35/35 29/34/34 28/33/33
s 5
f 9/40/40 10/39/39 29/37/37
f 10/39/39 30/38/38 29/37/37
s 6
f 10/44/44 11/43/43 30/41/41
f 11/43/43 31/42/42 30/41/41
s 7
f 11/48/48 12/47/47 31/45/45
f 12/47/47 32/46/46 31/45/45
s 8
f 12/52/52 13/51/51 32/49/49
f 13/51/51 33/50/50 32/49/49
s 9
f 13/56/56 14/55/55 33/53/53
f 14/55/55 34/54/54 33/53/53
s 10
f 14/60/60 15/59/59 34/57/57
f 15/59/59 35/58/58 34/57/57
s 11
f 15/64/64 16/63/63 35/61/61
f 16/63/63 36/62/62 35/61/61
s 12
f 16/68/68 17/67/67 36/65/65
f 17/67/67 37/66/66 36/65/65
s 13
f 17/72/72 18/71/71 37/69/69
f 18/71/71 38/70/70 37/69/69
s 14
f 18/76/76 19/75/75 38/73/73
f 19/75/75 39/74/74 38/73/73
s 15
f 20/80/80 21/79/79 40/77/77
f 21/79/79 41/78/78 40/77/77
s 16
f 21/84/84 22/83/83 41/81/81
f 22/83/83 42/82/82 41/81/81
s 17
f 22/88/88 23/87/87 42/85/85
f 23/87/87 43/86/86 42/85/85
s 18
f 23/92/92 24/91/91 43/89/89
f 24/91/91 44/90/90 43/89/89
s 19
f 24/96/96 25/95/95 44/93/93
f 25/95/95 45/94/94 44/93/93
s 20
f 25/100/100 26/99/99 45/97/97
f 26/99/99 46/98/98 45/97/97
s 21
f 26/104/104 5/103/103 46/101/101
f 5/103/103 47/102/102 46/101/101
s 22
f 5/108/108 6/107/107 47/105/105
f 6/107/107 48/106/106 47/105/105
s 23
f 6/112/112 7/111/111 48/109/109
f 7/111/111 27/110/110 48/109/109
s 24
f 19/116/116 4/115/115 39/113/113
f 4/115/115 1/114/114 39/113/113
s 25
usemtl Dark_Wood
f 45/139/139 46/140/140 47/117/117
f 44/138/138 45/139/139 48/118/118
f 43/137/137 44/138/138 27/119/119
f 42/136/136 43/137/137 28/120/120
f 41/135/135 42/136/136 29/121/121
f 40/134/134 41/135/135 30/122/122
f 2/133/133 40/134/134 31/123/123
f 32/124/124 33/125/125 2/133/133
f 33/125/125 34/126/126 1/132/132
f 34/126/126 39/131/131 1/132/132
f 35/127/127 38/130/130 39/131/131
f 36/128/128 37/129/129 38/130/130
f 35/127/127 36/128/128 38/130/130
f 34/126/126 35/127/127 39/131/131
f 2/133/133 31/123/123 32/124/124
f 33/125/125 1/132/132 2/133/133
f 40/134/134 30/122/122 31/123/123
f 41/135/135 29/121/121 30/122/122
f 42/136/136 28/120/120 29/121/121
f 43/137/137 27/119/119 28/120/120
f 44/138/138 48/118/118 27/119/119
f 45/139/139 47/117/117 48/118/118
s 26
usemtl Beige
f 3/144/144 20/143/143 2/141/141
f 20/143/143 40/142/142 2/141/141
