mtllib Structure_Wall_Curved_Small_Main.mtl
o object1
g object1
v -0.41736321 0.00000000 -0.55000000
v -0.50000000 0.00000000 -0.55000000
v -0.50000000 0.00000000 -0.45000000
v -0.42523338 0.00000000 -0.45000000
v -0.27754114 0.00000000 -0.42660785
v -0.13532657 0.00000000 -0.38039953
v -0.00209148 0.00000000 -0.31251286
v 0.11888346 0.00000000 -0.22461943
v 0.22461943 0.00000000 -0.11888346
v 0.31251286 0.00000000 0.00209148
v 0.38039953 0.00000000 0.13532657
v 0.42660785 0.00000000 0.27754114
v 0.45000000 0.00000000 0.42523338
v 0.45000000 0.00000000 0.50000000
v 0.55000000 0.00000000 0.50000000
v 0.55000000 0.00000000 0.41736321
v 0.52414552 0.00000000 0.25412442
v 0.47307317 0.00000000 0.09693990
v 0.39804053 0.00000000 -0.05031995
v 0.30089516 0.00000000 -0.18402908
v 0.18402908 0.00000000 -0.30089516
v 0.05031995 0.00000000 -0.39804053
v -0.09693990 0.00000000 -0.47307317
v -0.25412442 0.00000000 -0.52414552
v -0.41736321 1.00000000 -0.55000000
v -0.50000000 1.00000000 -0.55000000
v -0.50000000 1.00000000 -0.45000000
v -0.42523338 1.00000000 -0.45000000
v -0.27754114 1.00000000 -0.42660785
v -0.13532657 1.00000000 -0.38039953
v -0.00209148 1.00000000 -0.31251286
v 0.11888346 1.00000000 -0.22461943
v 0.22461943 1.00000000 -0.11888346
v 0.31251286 1.00000000 0.00209148
v 0.38039953 1.00000000 0.13532657
v 0.42660785 1.00000000 0.27754114
v 0.45000000 1.00000000 0.42523338
v 0.45000000 1.00000000 0.50000000
v 0.55000000 1.00000000 0.50000000
v 0.55000000 1.00000000 0.41736321
v 0.52414552 1.00000000 0.25412442
v 0.47307317 1.00000000 0.09693990
v 0.39804053 1.00000000 -0.05031995
v 0.30089516 1.00000000 -0.18402908
v 0.18402908 1.00000000 -0.30089516
v 0.05031995 1.00000000 -0.39804053
v -0.09693990 1.00000000 -0.47307317
v -0.25412442 1.00000000 -0.52414552
vt 1.00000000 0.92129829
vt 1.00000000 1.00000000
vt 0.90476190 1.00000000
vt 0.90476190 0.92879369
vt 0.88248366 0.78813442
vt 0.83847575 0.65269197
vt 0.77382177 0.52580141
vt 0.69011374 0.41058718
vt 0.58941282 0.30988626
vt 0.47419859 0.22617823
vt 0.34730803 0.16152425
vt 0.21186558 0.11751634
vt 0.07120631 0.09523810
vt 0.00000000 0.09523810
vt 0.00000000 0.00000000
vt 0.07870171 0.00000000
vt 0.23416722 0.02462332
vt 0.38386677 0.07326365
vt 0.52411423 0.14472330
vt 0.65145627 0.23724271
vt 0.76275729 0.34854373
vt 0.85527670 0.47588577
vt 0.92673635 0.61613323
vt 0.97537668 0.76583278
vt 1.00000000 0.92129829
vt 1.00000000 1.00000000
vt 0.90476190 1.00000000
vt 0.90476190 0.92879369
vt 0.88248366 0.78813442
vt 0.83847575 0.65269197
vt 0.77382177 0.52580141
vt 0.69011374 0.41058718
vt 0.58941282 0.30988626
vt 0.47419859 0.22617823
vt 0.34730803 0.16152425
vt 0.21186558 0.11751634
vt 0.07120631 0.09523810
vt 0.00000000 0.09523810
vt 0.00000000 0.00000000
vt 0.07870171 0.00000000
vt 0.23416722 0.02462332
vt 0.38386677 0.07326365
vt 0.52411423 0.14472330
vt 0.65145627 0.23724271
vt 0.76275729 0.34854373
vt 0.85527670 0.47588577
vt 0.92673635 0.61613323
vt 0.97537668 0.76583278
vt 0.00000000 1.00000000
vt 0.00000000 0.00000000
vt 1.00000000 0.00000000
vt 1.00000000 1.00000000
vt 0.00000000 1.00000000
vt 0.00000000 0.00000000
vt 1.00000000 0.00000000
vt 1.00000000 1.00000000
vt 0.00000000 1.00000000
vt 0.00000000 0.00000000
vt 1.00000000 0.00000000
vt 1.00000000 1.00000000
vt 0.00000000 1.00000000
vt 0.00000000 0.00000000
vt 1.00000000 0.00000000
vt 1.00000000 1.00000000
vt 0.00000000 1.00000000
vt 0.00000000 0.00000000
vt 1.00000000 0.00000000
vt 1.00000000 1.00000000
vt 0.00000000 1.00000000
vt 0.00000000 0.00000000
vt 1.00000000 0.00000000
vt 1.00000000 1.00000000
vt 0.00000000 1.00000000
vt 0.00000000 0.00000000
vt 1.00000000 0.00000000
vt 1.00000000 1.00000000
vt 0.00000000 1.00000000
vt 0.00000000 0.00000000
vt 1.00000000 0.00000000
vt 1.00000000 1.00000000
vt 0.00000000 1.00000000
vt 0.00000000 0.00000000
vt 1.00000000 0.00000000
vt 1.00000000 1.00000000
vt 0.00000000 1.00000000
vt 0.00000000 0.00000000
vt 1.00000000 0.00000000
vt 1.00000000 1.00000000
vt 0.00000000 1.00000000
vt 0.00000000 0.00000000
vt 1.00000000 0.00000000
vt 1.00000000 1.00000000
vt 0.00000000 1.00000000
vt 0.00000000 0.00000000
vt 1.00000000 0.00000000
vt 1.00000000 1.00000000
vt 0.00000000 1.00000000
vt 0.00000000 0.00000000
vt 1.00000000 0.00000000
vt 1.00000000 1.00000000
vt 0.00000000 1.00000000
vt 0.00000000 0.00000000
vt 1.00000000 0.00000000
vt 1.00000000 1.00000000
vt 0.00000000 1.00000000
vt 0.00000000 0.00000000
vt 1.00000000 0.00000000
vt 1.00000000 1.00000000
vt 0.00000000 1.00000000
vt 0.00000000 0.00000000
vt 1.00000000 0.00000000
vt 1.00000000 1.00000000
vt 0.00000000 1.00000000
vt 0.00000000 0.00000000
vt 1.00000000 0.00000000
vt 1.00000000 1.00000000
vt 0.00000000 1.00000000
vt 0.00000000 0.00000000
vt 1.00000000 0.00000000
vt 1.00000000 1.00000000
vt 0.00000000 1.00000000
vt 0.00000000 0.00000000
vt 1.00000000 0.00000000
vt 1.00000000 1.00000000
vt 0.00000000 1.00000000
vt 0.00000000 0.00000000
vt 1.00000000 0.00000000
vt 1.00000000 1.00000000
vt 0.00000000 1.00000000
vt 0.00000000 0.00000000
vt 1.00000000 0.00000000
vt 1.00000000 1.00000000
vt 0.00000000 1.00000000
vt 0.00000000 0.00000000
vt 1.00000000 0.00000000
vt 1.00000000 1.00000000
vt 0.00000000 1.00000000
vt 0.00000000 0.00000000
vt 1.00000000 0.00000000
vt 1.00000000 1.00000000
vt 0.00000000 1.00000000
vt 0.00000000 0.00000000
vt 1.00000000 0.00000000
vt 1.00000000 1.00000000
vn 0.00000000 -1.00000000 0.00000000
vn 0.00000000 -1.00000000 0.00000000
vn 0.00000000 -1.00000000 0.00000000
vn 0.00000000 -1.00000000 0.00000000
vn 0.00000000 -1.00000000 0.00000000
vn 0.00000000 -1.00000000 0.00000000
vn 0.00000000 -1.00000000 0.00000000
vn 0.00000000 -1.00000000 0.00000000
vn 0.00000000 -1.00000000 0.00000000
vn 0.00000000 -1.00000000 0.00000000
vn 0.00000000 -1.00000000 0.00000000
vn 0.00000000 -1.00000000 0.00000000
vn 0.00000000 -1.00000000 0.00000000
vn 0.00000000 -1.00000000 0.00000000
vn 0.00000000 -1.00000000 0.00000000
vn 0.00000000 -1.00000000 0.00000000
vn 0.00000000 -1.00000000 0.00000000
vn 0.00000000 -1.00000000 0.00000000
vn 0.00000000 -1.00000000 0.00000000
vn 0.00000000 -1.00000000 0.00000000
vn 0.00000000 -1.00000000 0.00000000
vn 0.00000000 -1.00000000 0.00000000
vn 0.00000000 -1.00000000 0.00000000
vn 0.00000000 -1.00000000 0.00000000
vn 0.00000000 1.00000000 0.00000000
vn 0.00000000 1.00000000 0.00000000
vn 0.00000000 1.00000000 0.00000000
vn 0.00000000 1.00000000 0.00000000
vn 0.00000000 1.00000000 0.00000000
vn 0.00000000 1.00000000 0.00000000
vn 0.00000000 1.00000000 0.00000000
vn 0.00000000 1.00000000 0.00000000
vn 0.00000000 1.00000000 0.00000000
vn 0.00000000 1.00000000 0.00000000
vn 0.00000000 1.00000000 0.00000000
vn 0.00000000 1.00000000 0.00000000
vn 0.00000000 1.00000000 0.00000000
vn 0.00000000 1.00000000 0.00000000
vn 0.00000000 1.00000000 0.00000000
vn 0.00000000 1.00000000 0.00000000
vn 0.00000000 1.00000000 0.00000000
vn 0.00000000 1.00000000 0.00000000
vn 0.00000000 1.00000000 0.00000000
vn 0.00000000 1.00000000 0.00000000
vn 0.00000000 1.00000000 0.00000000
vn 0.00000000 1.00000000 0.00000000
vn 0.00000000 1.00000000 0.00000000
vn 0.00000000 1.00000000 0.00000000
vn 0.00000000 0.00000000 -1.00000000
vn 0.00000000 0.00000000 -1.00000000
vn 0.00000000 0.00000000 -1.00000000
vn 0.00000000 0.00000000 -1.00000000
vn -1.00000000 0.00000000 0.00000000
vn -1.00000000 0.00000000 0.00000000
vn -1.00000000 0.00000000 0.00000000
vn -1.00000000 0.00000000 0.00000000
vn 0.00000000 0.00000000 1.00000000
vn 0.00000000 0.00000000 1.00000000
vn 0.00000000 0.00000000 1.00000000
vn 0.00000000 0.00000000 1.00000000
vn -0.15643447 0.00000000 0.98768834
vn -0.15643447 0.00000000 0.98768834
vn -0.15643447 0.00000000 0.98768834
vn -0.15643447 0.00000000 0.98768834
vn -0.30901699 0.00000000 0.95105652
vn -0.30901699 0.00000000 0.95105652
vn -0.30901699 0.00000000 0.95105652
vn -0.30901699 0.00000000 0.95105652
vn -0.45399050 0.00000000 0.89100652
vn -0.45399050 0.00000000 0.89100652
vn -0.45399050 0.00000000 0.89100652
vn -0.45399050 0.00000000 0.89100652
vn -0.58778525 0.00000000 0.80901699
vn -0.58778525 0.00000000 0.80901699
vn -0.58778525 0.00000000 0.80901699
vn -0.58778525 0.00000000 0.80901699
vn -0.70710678 0.00000000 0.70710678
vn -0.70710678 0.00000000 0.70710678
vn -0.70710678 0.00000000 0.70710678
vn -0.70710678 0.00000000 0.70710678
vn -0.80901699 0.00000000 0.58778525
vn -0.80901699 0.00000000 0.58778525
vn -0.80901699 0.00000000 0.58778525
vn -0.80901699 0.00000000 0.58778525
vn -0.89100652 0.00000000 0.45399050
vn -0.89100652 0.00000000 0.45399050
vn -0.89100652 0.00000000 0.45399050
vn -0.89100652 0.00000000 0.45399050
vn -0.95105652 0.00000000 0.30901699
vn -0.95105652 0.00000000 0.30901699
vn -0.95105652 0.00000000 0.30901699
vn -0.95105652 0.00000000 0.30901699
vn -0.98768834 0.00000000 0.15643447
vn -0.98768834 0.00000000 0.15643447
vn -0.98768834 0.00000000 0.15643447
vn -0.98768834 0.00000000 0.15643447
vn -1.00000000 0.00000000 0.00000000
vn -1.00000000 0.00000000 0.00000000
vn -1.00000000 0.00000000 0.00000000
vn -1.00000000 0.00000000 0.00000000
vn 0.00000000 0.00000000 1.00000000
vn 0.00000000 0.00000000 1.00000000
vn 0.00000000 0.00000000 1.00000000
vn 0.00000000 0.00000000 1.00000000
vn 1.00000000 0.00000000 0.00000000
vn 1.00000000 0.00000000 0.00000000
vn 1.00000000 0.00000000 0.00000000
vn 1.00000000 0.00000000 0.00000000
vn 0.98768834 0.00000000 -0.15643447
vn 0.98768834 0.00000000 -0.15643447
vn 0.98768834 0.00000000 -0.15643447
vn 0.98768834 0.00000000 -0.15643447
vn 0.95105652 0.00000000 -0.30901699
vn 0.95105652 0.00000000 -0.30901699
vn 0.95105652 0.00000000 -0.30901699
vn 0.95105652 0.00000000 -0.30901699
vn 0.89100652 0.00000000 -0.45399050
vn 0.89100652 0.00000000 -0.45399050
vn 0.89100652 0.00000000 -0.45399050
vn 0.89100652 0.00000000 -0.45399050
vn 0.80901699 0.00000000 -0.58778525
vn 0.80901699 0.00000000 -0.58778525
vn 0.80901699 0.00000000 -0.58778525
vn 0.80901699 0.00000000 -0.58778525
vn 0.70710678 0.00000000 -0.70710678
vn 0.70710678 0.00000000 -0.70710678
vn 0.70710678 0.00000000 -0.70710678
vn 0.70710678 0.00000000 -0.70710678
vn 0.58778525 0.00000000 -0.80901699
vn 0.58778525 0.00000000 -0.80901699
vn 0.58778525 0.00000000 -0.80901699
vn 0.58778525 0.00000000 -0.80901699
vn 0.45399050 0.00000000 -0.89100652
vn 0.45399050 0.00000000 -0.89100652
vn 0.45399050 0.00000000 -0.89100652
vn 0.45399050 0.00000000 -0.89100652
vn 0.30901699 0.00000000 -0.95105652
vn 0.30901699 0.00000000 -0.95105652
vn 0.30901699 0.00000000 -0.95105652
vn 0.30901699 0.00000000 -0.95105652
vn 0.15643447 0.00000000 -0.98768834
vn 0.15643447 0.00000000 -0.98768834
vn 0.15643447 0.00000000 -0.98768834
vn 0.15643447 0.00000000 -0.98768834
s 1
usemtl White
f 15/15/15 14/14/14 13/13/13
f 16/16/16 13/13/13 12/12/12
f 17/17/17 12/12/12 11/11/11
f 18/18/18 11/11/11 10/10/10
f 19/19/19 10/10/10 9/9/9
f 20/20/20 9/9/9 8/8/8
f 8/8/8 22/22/22 21/21/21
f 7/7/7 23/23/23 22/22/22
f 6/6/6 24/24/24 23/23/23
f 5/5/5 1/1/1 24/24/24
f 4/4/4 2/2/2 1/1/1
f 4/4/4 3/3/3 2/2/2
f 5/5/5 4/4/4 1/1/1
f 6/6/6 5/5/5 24/24/24
f 7/7/7 6/6/6 23/23/23
f 8/8/8 7/7/7 22/22/22
f 21/21/21 20/20/20 8/8/8
f 20/20/20 19/19/19 9/9/9
f 19/19/19 18/18/18 10/10/10
f 18/18/18 17/17/17 11/11/11
f 17/17/17 16/16/16 12/12/12
f 16/16/16 15/15/15 13/13/13
s 2
usemtl Dark_Wood
f 37/37/37 38/38/38 39/39/39
f 36/36/36 37/37/37 40/40/40
f 35/35/35 36/36/36 41/41/41
f 34/34/34 35/35/35 42/42/42
f 33/33/33 34/34/34 43/43/43
f 32/32/32 33/33/33 44/44/44
f 32/32/32 44/44/44 45/45/45
f 45/45/45 46/46/46 32/32/32
f 46/46/46 47/47/47 31/31/31
f 47/47/47 30/30/30 31/31/31
f 48/48/48 29/29/29 30/30/30
f 25/25/25 28/28/28 29/29/29
f 26/26/26 27/27/27 28/28/28
f 25/25/25 26/26/26 28/28/28
f 48/48/48 25/25/25 29/29/29
f 47/47/47 48/48/48 30/30/30
f 46/46/46 31/31/31 32/32/32
f 33/33/33 43/43/43 44/44/44
f 34/34/34 42/42/42 43/43/43
f 35/35/35 41/41/41 42/42/42
f 36/36/36 40/40/40 41/41/41
f 37/37/37 39/39/39 40/40/40
s 3
usemtl Beige
f 26/52/52 25/51/51 2/49/49
f 25/51/51 1/50/50 2/49/49
s 4
f 27/56/56 26/55/55 3/53/53
f 26/55/55 2/54/54 3/53/53
s 5
f 28/60/60 27/59/59 4/57/57
f 27/59/59 3/58/58 4/57/57
s 6
f 29/64/64 28/63/63 5/61/61
f 28/63/63 4/62/62 5/61/61
s 7
f 30/68/68 29/67/67 6/65/65
f 29/67/67 5/66/66 6/65/65
s 8
f 31/72/72 30/71/71 7/69/69
f 30/71/71 6/70/70 7/69/69
s 9
f 32/76/76 31/75/75 8/73/73
f 31/75/75 7/74/74 8/73/73
s 10
f 33/80/80 32/79/79 9/77/77
f 32/79/79 8/78/78 9/77/77
s 11
f 34/84/84 33/83/83 10/81/81
f 33/83/83 9/82/82 10/81/81
s 12
f 35/88/88 34/87/87 11/85/85
f 34/87/87 10/86/86 11/85/85
s 13
f 36/92/92 35/91/91 12/89/89
f 35/91/91 11/90/90 12/89/89
s 14
f 37/96/96 36/95/95 13/93/93
f 36/95/95 12/94/94 13/93/93
s 15
f 38/100/100 37/99/99 14/97/97
f 37/99/99 13/98/98 14/97/97
s 16
f 39/104/104 38/103/103 15/101/101
f 38/103/103 14/102/102 15/101/101
s 17
f 40/108/108 39/107/107 16/105/105
f 39/107/107 15/106/106 16/105/105
s 18
f 41/112/112 40/111/111 17/109/109
f 40/111/111 16/110/110 17/109/109
s 19
f 42/116/116 41/115/115 18/113/113
f 41/115/115 17/114/114 18/113/113
s 20
f 43/120/120 42/119/119 19/117/117
f 42/119/119 18/118/118 19/117/117
s 21
f 44/124/124 43/123/123 20/121/121
f 43/123/123 19/122/122 20/121/121
s 22
f 45/128/128 44/127/127 21/125/125
f 44/127/127 20/126/126 21/125/125
s 23
f 46/132/132 45/131/131 22/129/129
f 45/131/131 21/130/130 22/129/129
s 24
f 47/136/136 46/135/135 23/133/133
f 46/135/135 22/134/134 23/133/133
s 25
f 48/140/140 47/139/139 24/137/137
f 47/139/139 23/138/138 24/137/137
s 26
f 25/144/144 48/143/143 1/141/141
f 48/143/143 24/142/142 1/141/141
