mtllib Structure_Wall_Doorway.mtl
o object1
g object1
v -0.40000000 0.00000000 -0.41875000
v -0.40000000 1.90000000 -0.41875000
v 0.40000000 1.90000000 -0.41875000
v 0.40000000 0.00000000 -0.41875000
v 0.42500000 0.00000000 -0.41875000
v 0.42500000 1.92500000 -0.41875000
v -0.42500000 1.92500000 -0.41875000
v -0.42500000 0.00000000 -0.41875000
v -0.40000000 0.00000000 -0.58125000
v -0.40000000 1.90000000 -0.58125000
v -0.42500000 0.00000000 -0.58125000
v -0.42500000 1.92500000 -0.58125000
v 0.42500000 1.92500000 -0.58125000
v 0.42500000 0.00000000 -0.58125000
v 0.40000000 0.00000000 -0.58125000
v 0.40000000 1.90000000 -0.58125000
v 0.42500000 1.92500000 -0.60000000
v 0.42500000 0.00000000 -0.60000000
v -0.42500000 1.92500000 -0.60000000
v -0.42500000 0.00000000 -0.60000000
v -0.50000000 0.00000000 -0.60000000
v -0.50000000 2.00000000 -0.60000000
v 0.50000000 2.00000000 -0.60000000
v 0.50000000 0.00000000 -0.60000000
v 0.50000000 0.00000000 -0.40000000
v 0.50000000 2.00000000 -0.40000000
v -0.42500000 1.92500000 -0.40000000
v 0.42500000 1.92500000 -0.40000000
v 0.42500000 0.00000000 -0.40000000
v -0.50000000 2.00000000 -0.40000000
v -0.50000000 0.00000000 -0.40000000
v -0.42500000 0.00000000 -0.40000000
vt 1.00000000 0.02941176
vt 0.01298701 0.02941176
vt 0.01298701 0.97058824
vt 1.00000000 0.97058824
vt 1.00000000 1.00000000
vt 0.00000000 1.00000000
vt 0.00000000 0.00000000
vt 1.00000000 0.00000000
vt 1.00000000 1.00000000
vt 0.00000000 1.00000000
vt 0.00000000 0.00000000
vt 1.00000000 0.00000000
vt 0.98701299 0.02941176
vt 0.00000000 0.02941176
vt 0.00000000 0.00000000
vt 1.00000000 0.00000000
vt 1.00000000 1.00000000
vt 0.00000000 1.00000000
vt 0.00000000 0.97058824
vt 0.98701299 0.97058824
vt 0.00000000 0.00000000
vt 1.00000000 0.00000000
vt 1.00000000 1.00000000
vt 0.00000000 1.00000000
vt 0.96250000 0.07500000
vt 0.00000000 0.07500000
vt 0.00000000 0.00000000
vt 1.00000000 0.00000000
vt 1.00000000 1.00000000
vt 0.00000000 1.00000000
vt 0.00000000 0.92500000
vt 0.96250000 0.92500000
vt 0.00000000 0.00000000
vt 1.00000000 0.00000000
vt 1.00000000 1.00000000
vt 0.00000000 1.00000000
vt 0.03750000 0.07500000
vt 0.03750000 0.92500000
vt 1.00000000 0.92500000
vt 1.00000000 1.00000000
vt 0.00000000 1.00000000
vt 0.00000000 0.00000000
vt 1.00000000 0.00000000
vt 1.00000000 0.07500000
vt 0.00000000 0.00000000
vt 1.00000000 0.00000000
vt 1.00000000 1.00000000
vt 0.00000000 1.00000000
vt 1.00000000 0.00000000
vt 1.00000000 1.00000000
vt 0.00000000 1.00000000
vt 0.00000000 0.00000000
vt 0.00000000 0.00000000
vt 1.00000000 0.00000000
vt 1.00000000 1.00000000
vt 0.00000000 1.00000000
vt 0.00000000 0.00000000
vt 1.00000000 0.00000000
vt 1.00000000 1.00000000
vt 0.00000000 1.00000000
vt 1.00000000 1.00000000
vt 0.00000000 1.00000000
vt 0.00000000 0.25000000
vt 0.09375000 0.25000000
vt 0.09375000 0.00000000
vt 0.90625000 0.00000000
vt 0.90625000 0.25000000
vt 1.00000000 0.25000000
vt 0.00000000 1.00000000
vt 0.00000000 0.00000000
vt 1.00000000 0.00000000
vt 1.00000000 1.00000000
vt 0.00000000 0.00000000
vt 1.00000000 0.00000000
vt 1.00000000 1.00000000
vt 0.00000000 1.00000000
vt 1.00000000 1.00000000
vt 0.00000000 1.00000000
vt 0.00000000 0.00000000
vt 1.00000000 0.00000000
vt 1.00000000 0.75000000
vt 0.90625000 0.75000000
vt 0.90625000 1.00000000
vt 0.09375000 1.00000000
vt 0.09375000 0.75000000
vt 0.00000000 0.75000000
vt 0.00000000 0.00000000
vt 1.00000000 0.00000000
vt 1.00000000 1.00000000
vt 0.00000000 1.00000000
vt 0.00000000 0.00000000
vt 1.00000000 0.00000000
vt 1.00000000 1.00000000
vt 0.00000000 1.00000000
vt 0.00000000 0.00000000
vt 1.00000000 0.00000000
vn 0.00000000 0.00000000 1.00000000
vn 0.00000000 0.00000000 1.00000000
vn 0.00000000 0.00000000 1.00000000
vn 0.00000000 0.00000000 1.00000000
vn 0.00000000 0.00000000 1.00000000
vn 0.00000000 0.00000000 1.00000000
vn 0.00000000 0.00000000 1.00000000
vn 0.00000000 0.00000000 1.00000000
vn 1.00000000 -0.00000000 0.00000000
vn 1.00000000 -0.00000000 0.00000000
vn 1.00000000 -0.00000000 0.00000000
vn 1.00000000 -0.00000000 0.00000000
vn 0.00000000 0.00000000 -1.00000000
vn 0.00000000 0.00000000 -1.00000000
vn 0.00000000 0.00000000 -1.00000000
vn 0.00000000 0.00000000 -1.00000000
vn 0.00000000 0.00000000 -1.00000000
vn 0.00000000 0.00000000 -1.00000000
vn 0.00000000 0.00000000 -1.00000000
vn 0.00000000 0.00000000 -1.00000000
vn -1.00000000 0.00000000 0.00000000
vn -1.00000000 0.00000000 0.00000000
vn -1.00000000 0.00000000 0.00000000
vn -1.00000000 0.00000000 0.00000000
vn 0.00000000 0.00000000 -1.00000000
vn 0.00000000 0.00000000 -1.00000000
vn 0.00000000 0.00000000 -1.00000000
vn 0.00000000 0.00000000 -1.00000000
vn 0.00000000 0.00000000 -1.00000000
vn 0.00000000 0.00000000 -1.00000000
vn 0.00000000 0.00000000 -1.00000000
vn 0.00000000 0.00000000 -1.00000000
vn 1.00000000 0.00000000 0.00000000
vn 1.00000000 0.00000000 0.00000000
vn 1.00000000 0.00000000 0.00000000
vn 1.00000000 0.00000000 0.00000000
vn 0.00000000 0.00000000 1.00000000
vn 0.00000000 0.00000000 1.00000000
vn 0.00000000 0.00000000 1.00000000
vn 0.00000000 0.00000000 1.00000000
vn 0.00000000 0.00000000 1.00000000
vn 0.00000000 0.00000000 1.00000000
vn 0.00000000 0.00000000 1.00000000
vn 0.00000000 0.00000000 1.00000000
vn 0.00000000 1.00000000 -0.00000000
vn 0.00000000 1.00000000 -0.00000000
vn 0.00000000 1.00000000 -0.00000000
vn 0.00000000 1.00000000 -0.00000000
vn -1.00000000 0.00000000 0.00000000
vn -1.00000000 0.00000000 0.00000000
vn -1.00000000 0.00000000 0.00000000
vn -1.00000000 0.00000000 0.00000000
vn 0.00000000 -1.00000000 0.00000000
vn 0.00000000 -1.00000000 0.00000000
vn 0.00000000 -1.00000000 0.00000000
vn 0.00000000 -1.00000000 0.00000000
vn 1.00000000 0.00000000 0.00000000
vn 1.00000000 0.00000000 0.00000000
vn 1.00000000 0.00000000 0.00000000
vn 1.00000000 0.00000000 0.00000000
vn 0.00000000 -1.00000000 0.00000000
vn 0.00000000 -1.00000000 0.00000000
vn 0.00000000 -1.00000000 0.00000000
vn 0.00000000 -1.00000000 0.00000000
vn 0.00000000 -1.00000000 0.00000000
vn 0.00000000 -1.00000000 0.00000000
vn 0.00000000 -1.00000000 0.00000000
vn 0.00000000 -1.00000000 0.00000000
vn 1.00000000 0.00000000 0.00000000
vn 1.00000000 0.00000000 0.00000000
vn 1.00000000 0.00000000 0.00000000
vn 1.00000000 0.00000000 0.00000000
vn 0.00000000 -1.00000000 0.00000000
vn 0.00000000 -1.00000000 0.00000000
vn 0.00000000 -1.00000000 0.00000000
vn 0.00000000 -1.00000000 0.00000000
vn -1.00000000 0.00000000 0.00000000
vn -1.00000000 0.00000000 0.00000000
vn -1.00000000 0.00000000 0.00000000
vn -1.00000000 0.00000000 0.00000000
vn 0.00000000 -1.00000000 0.00000000
vn 0.00000000 -1.00000000 0.00000000
vn 0.00000000 -1.00000000 0.00000000
vn 0.00000000 -1.00000000 0.00000000
vn 0.00000000 -1.00000000 0.00000000
vn 0.00000000 -1.00000000 0.00000000
vn 0.00000000 -1.00000000 0.00000000
vn 0.00000000 -1.00000000 0.00000000
vn -1.00000000 0.00000000 0.00000000
vn -1.00000000 0.00000000 0.00000000
vn -1.00000000 0.00000000 0.00000000
vn -1.00000000 0.00000000 0.00000000
vn 0.00000000 -1.00000000 0.00000000
vn 0.00000000 -1.00000000 0.00000000
vn 0.00000000 -1.00000000 0.00000000
vn 0.00000000 -1.00000000 0.00000000
s 1
usemtl White
f 8/8/8 1/1/1 2/2/2
f 7/7/7 2/2/2 3/3/3
f 3/3/3 5/5/5 6/6/6
f 3/3/3 4/4/4 5/5/5
f 6/6/6 7/7/7 3/3/3
f 7/7/7 8/8/8 2/2/2
s 2
f 10/12/12 2/11/11 9/9/9
f 2/11/11 1/10/10 9/9/9
s 3
f 10/13/13 9/14/14 11/15/15
f 16/20/20 10/13/13 12/16/16
f 13/17/17 14/18/18 16/20/20
f 16/20/20 12/16/16 13/17/17
f 14/18/18 15/19/19 16/20/20
f 10/13/13 11/15/15 12/16/16
s 4
f 18/24/24 14/23/23 17/21/21
f 14/23/23 13/22/22 17/21/21
s 5
f 24/30/30 18/31/31 17/32/32
f 23/29/29 17/32/32 19/25/25
f 19/25/25 21/27/27 22/28/28
f 19/25/25 20/26/26 21/27/27
f 22/28/28 23/29/29 19/25/25
f 23/29/29 24/30/30 17/32/32
s 6
f 23/36/36 26/35/35 24/33/33
f 26/35/35 25/34/34 24/33/33
s 7
f 28/38/38 29/39/39 25/40/40
f 27/37/37 28/38/38 26/41/41
f 27/37/37 30/42/42 31/43/43
f 27/37/37 26/41/41 30/42/42
f 31/43/43 32/44/44 27/37/37
f 28/38/38 25/40/40 26/41/41
s 8
f 22/45/45 30/46/46 26/47/47
f 22/45/45 26/47/47 23/48/48
s 9
f 21/49/49 31/50/50 22/52/52
f 31/50/50 30/51/51 22/52/52
s 10
f 17/56/56 13/55/55 19/53/53
f 13/55/55 12/54/54 19/53/53
s 11
f 19/60/60 12/59/59 20/57/57
f 12/59/59 11/58/58 20/57/57
s 12
f 8/64/64 32/63/63 31/62/62
f 31/62/62 21/61/61 11/67/67
f 11/67/67 9/66/66 1/65/65
f 21/61/61 20/68/68 11/67/67
f 1/65/65 8/64/64 11/67/67
f 8/64/64 31/62/62 11/67/67
s 13
f 7/69/69 27/70/70 8/72/72
f 27/70/70 32/71/71 8/72/72
s 14
f 27/73/73 7/74/74 6/75/75
f 27/73/73 6/75/75 28/76/76
s 15
f 6/77/77 5/78/78 28/80/80
f 5/78/78 29/79/79 28/80/80
s 16
f 25/87/87 29/86/86 5/85/85
f 5/85/85 4/84/84 15/83/83
f 15/83/83 14/82/82 5/85/85
f 14/82/82 18/81/81 24/88/88
f 14/82/82 25/87/87 5/85/85
f 14/82/82 24/88/88 25/87/87
s 17
f 15/89/89 4/90/90 16/92/92
f 4/90/90 3/91/91 16/92/92
s 18
f 16/93/93 3/94/94 10/96/96
f 3/94/94 2/95/95 10/96/96
