mtllib Structure_Kitchen_Bar_Edge.mtl
o object1
g object1
v 0.35000000 1.13500000 -0.58500000
v 0.35000000 1.06500000 -0.58500000
v 0.35000000 1.06500000 0.03500000
v 0.35000000 1.13500000 0.03500000
v 0.36500000 1.13500000 -0.60000000
v 0.36500000 1.06500000 -0.60000000
v 0.36500000 1.15000000 -0.58500000
v 0.50000000 1.15000000 -0.58500000
v 0.50000000 1.13500000 -0.60000000
v 0.50000000 1.15000000 0.03500000
v 0.36500000 1.15000000 0.03500000
v 0.36500000 1.13500000 0.05000000
v 0.50000000 1.13500000 0.05000000
v 0.50000000 1.06500000 0.05000000
v 0.36500000 1.06500000 0.05000000
v 0.50000000 1.06500000 -0.60000000
vt 1.00000000 0.00000000
vt 1.00000000 1.00000000
vt 0.00000000 1.00000000
vt 0.00000000 0.00000000
vt 0.00000000 1.00000000
vt 0.00000000 0.00000000
vt 1.00000000 0.00000000
vt 1.00000000 1.00000000
vt 1.00000000 0.00000000
vt 1.00000000 1.00000000
vt 0.00000000 0.50000000
vt 0.00000000 0.00000000
vt 1.00000000 0.00000000
vt 1.00000000 1.00000000
vt 0.00000000 1.00000000
vt 0.00000000 0.00000000
vt 1.00000000 0.00000000
vt 1.00000000 1.00000000
vt 0.00000000 1.00000000
vt 0.00000000 1.00000000
vt 0.00000000 0.00000000
vt 1.00000000 0.00000000
vt 1.00000000 1.00000000
vt 0.00000000 0.00000000
vt 1.00000000 0.00000000
vt 1.00000000 1.00000000
vt 0.00000000 1.00000000
vt 1.00000000 0.00000000
vt 1.00000000 1.00000000
vt 0.00000000 0.50000000
vt 0.82352941 0.00000000
vt 1.00000000 0.02307692
vt 1.00000000 0.97692308
vt 0.82352941 1.00000000
vt 0.00000000 1.00000000
vt 0.00000000 0.00000000
vt 0.00000000 1.00000000
vt 0.00000000 0.00000000
vt 1.00000000 0.00000000
vt 1.00000000 1.00000000
vt 1.00000000 0.00000000
vt 1.00000000 1.00000000
vt 0.00000000 1.00000000
vt 0.00000000 0.00000000
vt 0.00000000 1.00000000
vt 0.00000000 0.00000000
vt 1.00000000 0.00000000
vt 1.00000000 1.00000000
vt 0.10000000 1.00000000
vt 0.00000000 0.97692308
vt 0.00000000 0.02307692
vt 0.10000000 0.00000000
vt 1.00000000 0.00000000
vt 1.00000000 1.00000000
vn -1.00000000 0.00000000 0.00000000
vn -1.00000000 0.00000000 0.00000000
vn -1.00000000 0.00000000 0.00000000
vn -1.00000000 0.00000000 0.00000000
vn -0.70710678 0.00000000 -0.70710678
vn -0.70710678 0.00000000 -0.70710678
vn -0.70710678 0.00000000 -0.70710678
vn -0.70710678 0.00000000 -0.70710678
vn -0.57735027 0.57735027 -0.57735027
vn -0.57735027 0.57735027 -0.57735027
vn -0.57735027 0.57735027 -0.57735027
vn 0.00000000 0.70710678 -0.70710678
vn 0.00000000 0.70710678 -0.70710678
vn 0.00000000 0.70710678 -0.70710678
vn 0.00000000 0.70710678 -0.70710678
vn 0.00000000 1.00000000 -0.00000000
vn 0.00000000 1.00000000 -0.00000000
vn 0.00000000 1.00000000 -0.00000000
vn 0.00000000 1.00000000 -0.00000000
vn 0.00000000 0.70710678 0.70710678
vn 0.00000000 0.70710678 0.70710678
vn 0.00000000 0.70710678 0.70710678
vn 0.00000000 0.70710678 0.70710678
vn 0.00000000 -0.00000000 1.00000000
vn 0.00000000 -0.00000000 1.00000000
vn 0.00000000 -0.00000000 1.00000000
vn 0.00000000 -0.00000000 1.00000000
vn -0.57735027 0.57735027 0.57735027
vn -0.57735027 0.57735027 0.57735027
vn -0.57735027 0.57735027 0.57735027
vn 1.00000000 0.00000000 0.00000000
vn 1.00000000 0.00000000 0.00000000
vn 1.00000000 0.00000000 0.00000000
vn 1.00000000 0.00000000 0.00000000
vn 1.00000000 0.00000000 0.00000000
vn 1.00000000 0.00000000 0.00000000
vn 0.00000000 0.00000000 -1.00000000
vn 0.00000000 0.00000000 -1.00000000
vn 0.00000000 0.00000000 -1.00000000
vn 0.00000000 0.00000000 -1.00000000
vn -0.70710678 0.70710678 -0.00000000
vn -0.70710678 0.70710678 -0.00000000
vn -0.70710678 0.70710678 -0.00000000
vn -0.70710678 0.70710678 -0.00000000
vn -0.70710678 0.00000000 0.70710678
vn -0.70710678 0.00000000 0.70710678
vn -0.70710678 0.00000000 0.70710678
vn -0.70710678 0.00000000 0.70710678
vn 0.00000000 -1.00000000 -0.00000000
vn 0.00000000 -1.00000000 -0.00000000
vn 0.00000000 -1.00000000 -0.00000000
vn 0.00000000 -1.00000000 -0.00000000
vn 0.00000000 -1.00000000 -0.00000000
vn 0.00000000 -1.00000000 -0.00000000
s 1
usemtl Counters
f 1/1/1 2/2/2 4/4/4
f 2/2/2 3/3/3 4/4/4
s 2
f 1/5/5 5/6/6 2/8/8
f 5/6/6 6/7/7 2/8/8
s 3
f 5/11/11 1/10/10 7/9/9
s 4
f 7/12/12 8/13/13 9/14/14
f 7/12/12 9/14/14 5/15/15
s 5
f 11/19/19 10/18/18 8/17/17
f 11/19/19 8/17/17 7/16/16
s 6
f 13/23/23 10/22/22 12/20/20
f 10/22/22 11/21/21 12/20/20
s 7
f 15/27/27 14/26/26 12/24/24
f 14/26/26 13/25/25 12/24/24
s 8
f 11/28/28 4/29/29 12/30/30
s 9
f 16/35/35 9/34/34 8/33/33
f 8/33/33 10/32/32 14/36/36
f 10/32/32 13/31/31 14/36/36
f 14/36/36 16/35/35 8/33/33
s 10
f 9/37/37 16/38/38 6/39/39
f 9/37/37 6/39/39 5/40/40
s 11
f 4/44/44 11/43/43 7/42/42
f 4/44/44 7/42/42 1/41/41
s 12
f 3/48/48 15/47/47 12/46/46
f 3/48/48 12/46/46 4/45/45
s 13
f 16/53/53 14/54/54 15/49/49
f 15/49/49 3/50/50 6/52/52
f 3/50/50 2/51/51 6/52/52
f 6/52/52 16/53/53 15/49/49
o object2
g object2
v 0.50000000 1.06500000 -0.22126992
v 0.50000000 1.03373008 -0.22126992
v 0.47126992 1.03373008 -0.22126992
v 0.47000000 1.03500000 -0.22126992
v 0.47000000 1.06500000 -0.22126992
v 0.48000000 1.02500000 -0.23000000
v 0.48000000 1.02500000 -0.47000000
v 0.47000000 1.03500000 -0.48000000
v 0.50000000 1.03500000 -0.48000000
v 0.50000000 1.02500000 -0.47000000
v 0.50000000 1.06500000 -0.48000000
v 0.47000000 1.06500000 -0.48000000
v 0.50000000 1.01500000 -0.47000000
v 0.48000000 1.01500000 -0.47000000
v 0.50000000 1.00500000 -0.48000000
v 0.47000000 1.00500000 -0.48000000
v 0.47126992 1.00626992 -0.22126992
v 0.47000000 1.00500000 -0.22126992
v 0.48000000 1.01500000 -0.23000000
v 0.50000000 1.01500000 -0.23000000
v 0.50000000 1.00626992 -0.22126992
v 0.50000000 1.02500000 -0.23000000
v 0.50000000 0.97373008 -0.22126992
v 0.47126992 0.97373008 -0.22126992
v 0.47000000 0.97500000 -0.22126992
v 0.49000000 0.95500000 -0.24000000
v 0.50000000 0.95500000 -0.24000000
v 0.50000000 0.95500000 -0.46000000
v 0.49000000 0.95500000 -0.46000000
v 0.50000000 0.97500000 -0.48000000
v 0.47000000 0.97500000 -0.48000000
vt 1.00000000 1.00000000
vt 0.00000000 1.00000000
vt 0.00000000 0.04233079
vt 0.04061166 0.00000000
vt 1.00000000 0.00000000
vt 0.00000000 0.87300764
vt 0.03374202 0.00000000
vt 0.96134968 0.00000000
vt 1.00000000 1.00000000
vt 0.00000000 1.00000000
vt 0.00000000 1.00000000
vt 0.00000000 0.00000000
vt 0.66666667 0.00000000
vt 1.00000000 1.00000000
vt 0.00000000 1.00000000
vt 0.00000000 0.00000000
vt 1.00000000 0.00000000
vt 1.00000000 1.00000000
vt 0.00000000 1.00000000
vt 0.00000000 0.00000000
vt 1.00000000 0.00000000
vt 1.00000000 1.00000000
vt 0.00000000 1.00000000
vt 0.00000000 0.00000000
vt 1.00000000 0.00000000
vt 0.66666667 1.00000000
vt 0.00000000 0.12699236
vt 0.00000000 0.00000000
vt 1.00000000 0.00000000
vt 0.96134968 1.00000000
vt 0.03374202 1.00000000
vt 1.00000000 1.00000000
vt 0.30386541 1.00000000
vt 0.00000000 0.00000000
vt 1.00000000 0.00000000
vt 0.00000000 1.00000000
vt 0.00000000 0.00000000
vt 1.00000000 0.00000000
vt 1.00000000 1.00000000
vt 0.00000000 1.00000000
vt 0.00000000 0.04233079
vt 0.03902672 0.00000000
vt 0.96097328 0.00000000
vt 1.00000000 0.04233079
vt 1.00000000 1.00000000
vt 0.65193270 0.00000000
vt 1.00000000 0.00000000
vt 1.00000000 1.00000000
vt 0.00000000 1.00000000
vt 1.00000000 1.00000000
vt 0.00000000 1.00000000
vt 0.00000000 0.00000000
vt 1.00000000 0.00000000
vt 0.00000000 1.00000000
vt 0.00000000 0.00000000
vt 0.33333333 0.00000000
vt 1.00000000 1.00000000
vt 0.00000000 0.93650382
vt 0.07239234 0.00000000
vt 0.92269936 0.00000000
vt 1.00000000 1.00000000
vt 0.00000000 1.00000000
vt 1.00000000 1.00000000
vt 0.00000000 1.00000000
vt 0.00000000 0.00000000
vt 1.00000000 0.00000000
vt 0.00000000 1.00000000
vt 0.00000000 0.00000000
vt 1.00000000 0.00000000
vt 1.00000000 1.00000000
vt 1.00000000 1.00000000
vt 0.00000000 1.00000000
vt 0.00000000 0.00000000
vt 1.00000000 0.00000000
vt 1.00000000 1.00000000
vt 0.00000000 1.00000000
vt 0.00000000 0.00000000
vt 1.00000000 0.00000000
vt 0.00000000 1.00000000
vt 0.00000000 0.00000000
vt 1.00000000 0.00000000
vt 1.00000000 1.00000000
vt 0.00000000 0.07239234
vt 0.17027342 0.00000000
vt 0.46609021 0.00000000
vt 0.54545455 0.03374202
vt 0.63636364 0.03374202
vt 0.71572797 0.00000000
vt 1.00000000 0.00000000
vt 1.00000000 1.00000000
vt 0.72727273 1.00000000
vt 0.63636364 0.96134968
vt 0.54545455 0.96134968
vt 0.45454545 1.00000000
vt 0.18181818 1.00000000
vt 0.00000000 0.92269936
vt 0.30386541 0.00000000
vt 1.00000000 0.00000000
vt 1.00000000 1.00000000
vt 0.00000000 1.00000000
vn 0.00000000 0.00000000 1.00000000
vn 0.00000000 0.00000000 1.00000000
vn 0.00000000 0.00000000 1.00000000
vn 0.00000000 0.00000000 1.00000000
vn 0.00000000 0.00000000 1.00000000
vn -0.70710678 -0.70710678 -0.00000000
vn -0.70710678 -0.70710678 -0.00000000
vn -0.70710678 -0.70710678 -0.00000000
vn -0.70710678 -0.70710678 -0.00000000
vn -0.70710678 -0.70710678 -0.00000000
vn -0.00000000 -0.70710678 -0.70710678
vn -0.00000000 -0.70710678 -0.70710678
vn -0.00000000 -0.70710678 -0.70710678
vn -0.00000000 -0.70710678 -0.70710678
vn -0.00000000 0.00000000 -1.00000000
vn -0.00000000 0.00000000 -1.00000000
vn -0.00000000 0.00000000 -1.00000000
vn -0.00000000 0.00000000 -1.00000000
vn -0.00000000 0.00000000 -1.00000000
vn -0.00000000 0.00000000 -1.00000000
vn -0.00000000 0.00000000 -1.00000000
vn -0.00000000 0.00000000 -1.00000000
vn -0.00000000 0.70710678 -0.70710678
vn -0.00000000 0.70710678 -0.70710678
vn -0.00000000 0.70710678 -0.70710678
vn -0.00000000 0.70710678 -0.70710678
vn -0.70710678 0.70710678 0.00000000
vn -0.70710678 0.70710678 0.00000000
vn -0.70710678 0.70710678 0.00000000
vn -0.70710678 0.70710678 0.00000000
vn -0.70710678 0.70710678 0.00000000
vn -0.00000000 0.70710678 0.70710678
vn -0.00000000 0.70710678 0.70710678
vn -0.00000000 0.70710678 0.70710678
vn -0.00000000 0.70710678 0.70710678
vn 0.00000000 0.00000000 1.00000000
vn 0.00000000 0.00000000 1.00000000
vn 0.00000000 0.00000000 1.00000000
vn 0.00000000 0.00000000 1.00000000
vn 0.00000000 0.00000000 1.00000000
vn 0.00000000 0.00000000 1.00000000
vn 0.00000000 0.00000000 1.00000000
vn 0.00000000 0.00000000 1.00000000
vn 0.00000000 0.00000000 1.00000000
vn 0.00000000 0.00000000 1.00000000
vn 0.00000000 -0.70710678 0.70710678
vn 0.00000000 -0.70710678 0.70710678
vn 0.00000000 -0.70710678 0.70710678
vn 0.00000000 -0.70710678 0.70710678
vn 0.00000000 -1.00000000 -0.00000000
vn 0.00000000 -1.00000000 -0.00000000
vn 0.00000000 -1.00000000 -0.00000000
vn 0.00000000 -1.00000000 -0.00000000
vn -0.00000000 -0.70710678 -0.70710678
vn -0.00000000 -0.70710678 -0.70710678
vn -0.00000000 -0.70710678 -0.70710678
vn -0.00000000 -0.70710678 -0.70710678
vn -0.70710678 -0.70710678 -0.00000000
vn -0.70710678 -0.70710678 -0.00000000
vn -0.70710678 -0.70710678 -0.00000000
vn -0.70710678 -0.70710678 -0.00000000
vn -0.70710678 -0.70710678 -0.00000000
vn -1.00000000 0.00000000 -0.00000000
vn -1.00000000 0.00000000 -0.00000000
vn -1.00000000 0.00000000 -0.00000000
vn -1.00000000 0.00000000 -0.00000000
vn -0.00000000 0.00000000 -1.00000000
vn -0.00000000 0.00000000 -1.00000000
vn -0.00000000 0.00000000 -1.00000000
vn -0.00000000 0.00000000 -1.00000000
vn -1.00000000 0.00000000 -0.00000000
vn -1.00000000 0.00000000 -0.00000000
vn -1.00000000 0.00000000 -0.00000000
vn -1.00000000 0.00000000 -0.00000000
vn -1.00000000 0.00000000 -0.00000000
vn -1.00000000 0.00000000 -0.00000000
vn -1.00000000 0.00000000 -0.00000000
vn -1.00000000 0.00000000 -0.00000000
vn -0.00000000 1.00000000 0.00000000
vn -0.00000000 1.00000000 0.00000000
vn -0.00000000 1.00000000 0.00000000
vn -0.00000000 1.00000000 0.00000000
vn 1.00000000 0.00000000 0.00000000
vn 1.00000000 0.00000000 0.00000000
vn 1.00000000 0.00000000 0.00000000
vn 1.00000000 0.00000000 0.00000000
vn 1.00000000 0.00000000 0.00000000
vn 1.00000000 0.00000000 0.00000000
vn 1.00000000 0.00000000 0.00000000
vn 1.00000000 0.00000000 0.00000000
vn 1.00000000 0.00000000 0.00000000
vn 1.00000000 0.00000000 0.00000000
vn 1.00000000 0.00000000 0.00000000
vn 1.00000000 0.00000000 0.00000000
vn 1.00000000 0.00000000 0.00000000
vn 1.00000000 0.00000000 0.00000000
vn 0.00000000 -0.70710678 0.70710678
vn 0.00000000 -0.70710678 0.70710678
vn 0.00000000 -0.70710678 0.70710678
vn 0.00000000 -0.70710678 0.70710678
s 1
usemtl White
f 17/55/55 21/59/59 20/58/58
f 20/58/58 19/57/57 17/55/55
f 19/57/57 18/56/56 17/55/55
s 2
f 22/61/61 19/60/60 20/64/64
f 20/64/64 24/63/63 23/62/62
f 23/62/62 22/61/61 20/64/64
s 3
f 25/65/65 26/66/66 23/67/67
f 25/65/65 23/67/67 24/68/68
s 4
f 27/69/69 25/70/70 28/72/72
f 25/70/70 24/71/71 28/72/72
s 5
f 26/73/73 29/74/74 23/76/76
f 29/74/74 30/75/75 23/76/76
s 6
f 29/77/77 31/78/78 30/80/80
f 31/78/78 32/79/79 30/80/80
s 7
f 34/82/82 33/81/81 35/85/85
f 30/84/84 32/83/83 34/82/82
f 34/82/82 35/85/85 30/84/84
s 8
f 36/86/86 35/87/87 37/89/89
f 35/87/87 33/88/88 37/89/89
s 9
f 22/90/90 35/91/91 38/93/93
f 35/91/91 36/92/92 38/93/93
s 10
f 39/94/94 37/99/99 33/98/98
f 33/98/98 34/97/97 40/95/95
f 34/97/97 41/96/96 40/95/95
f 40/95/95 39/94/94 33/98/98
s 11
f 42/100/100 43/101/101 39/102/102
f 42/100/100 39/102/102 40/103/103
s 12
f 44/104/104 43/105/105 45/107/107
f 43/105/105 42/106/106 45/107/107
s 13
f 46/108/108 44/109/109 45/110/110
f 46/108/108 45/110/110 47/111/111
s 14
f 42/113/113 40/112/112 41/116/116
f 41/116/116 47/115/115 45/114/114
f 45/114/114 42/113/113 41/116/116
s 15
f 47/120/120 41/119/119 34/118/118
f 47/120/120 34/118/118 32/117/117
s 16
f 31/121/121 46/122/122 32/124/124
f 46/122/122 47/123/123 32/124/124
s 17
f 30/128/128 35/127/127 23/125/125
f 35/127/127 22/126/126 23/125/125
s 18
f 24/132/132 20/131/131 21/130/130
f 24/132/132 21/130/130 28/129/129
s 19
f 28/133/133 21/134/134 17/135/135
f 28/133/133 17/135/135 27/136/136
s 20
f 17/143/143 18/142/142 38/141/141
f 38/141/141 29/147/147 26/146/146
f 26/146/146 25/145/145 27/144/144
f 36/140/140 43/137/137 29/147/147
f 36/140/140 39/138/138 43/137/137
f 36/140/140 37/139/139 39/138/138
f 43/137/137 44/150/150 29/147/147
f 44/150/150 46/149/149 29/147/147
f 46/149/149 31/148/148 29/147/147
f 38/141/141 36/140/140 29/147/147
f 26/146/146 27/144/144 17/143/143
f 17/143/143 38/141/141 26/146/146
s 21
f 22/151/151 38/152/152 18/153/153
f 22/151/151 18/153/153 19/154/154
o object3
g object3
v 0.48000000 0.12000000 -0.54500000
v 0.48000000 0.10000000 -0.54500000
v 0.50000000 0.10000000 -0.54500000
v 0.50000000 0.12000000 -0.54500000
v 0.50000000 -0.00000000 -0.22500000
v 0.50000000 0.09500000 -0.22500000
v 0.50000000 0.10000000 -0.23000000
v 0.50000000 0.12000000 -0.23000000
v 0.50000000 0.12500000 -0.23500000
v 0.50000000 0.13500000 -0.23500000
v 0.50000000 0.15000000 -0.25000000
v 0.50000000 0.15000000 -0.52500000
v 0.50000000 0.13500000 -0.54000000
v 0.50000000 0.12500000 -0.54000000
v 0.50000000 0.09500000 -0.55000000
v 0.50000000 -0.00000000 -0.55000000
v 0.48000000 0.12000000 -0.23000000
v 0.48000000 0.10000000 -0.23000000
v 0.48500000 0.12500000 -0.23500000
v 0.48500000 0.12500000 -0.54000000
v 0.48500000 0.13500000 -0.54000000
v 0.48500000 0.13500000 -0.23500000
v 0.47500000 -0.00000000 -0.55000000
v 0.47500000 0.09500000 -0.55000000
v 0.47500000 0.09500000 -0.22500000
v 0.47500000 -0.00000000 -0.22500000
vt 1.00000000 0.00000000
vt 1.00000000 1.00000000
vt 0.00000000 1.00000000
vt 0.00000000 0.00000000
vt 1.00000000 0.00000000
vt 1.00000000 0.63333333
vt 0.98461538 0.66666667
vt 0.98461538 0.80000000
vt 0.96923077 0.83333333
vt 0.96923077 0.90000000
vt 0.92307692 1.00000000
vt 0.07692308 1.00000000
vt 0.03076923 0.90000000
vt 0.03076923 0.83333333
vt 0.01538462 0.80000000
vt 0.01538462 0.66666667
vt 0.00000000 0.63333333
vt 0.00000000 0.00000000
vt 1.00000000 0.00000000
vt 1.00000000 1.00000000
vt 0.00000000 1.00000000
vt 0.00000000 0.00000000
vt 0.75000000 0.00000000
vt 1.00000000 1.00000000
vt 0.00000000 1.00000000
vt 0.00000000 0.00000000
vt 0.01587302 0.00000000
vt 0.98412698 0.00000000
vt 1.00000000 1.00000000
vt 0.00000000 1.00000000
vt 0.00000000 0.00000000
vt 1.00000000 0.00000000
vt 1.00000000 1.00000000
vt 0.00000000 1.00000000
vt 1.00000000 0.00000000
vt 1.00000000 1.00000000
vt 0.00000000 1.00000000
vt 0.00000000 0.00000000
vt 0.00000000 1.00000000
vt 0.00000000 0.00000000
vt 1.00000000 1.00000000
vt 0.04918033 0.00000000
vt 0.95081967 0.00000000
vt 1.00000000 1.00000000
vt 0.00000000 1.00000000
vt 0.00000000 1.00000000
vt 0.00000000 0.00000000
vt 1.00000000 1.00000000
vt 1.00000000 0.00000000
vt 1.00000000 1.00000000
vt 0.00000000 1.00000000
vt 0.00000000 0.00000000
vt 0.00000000 1.00000000
vt 0.00000000 0.00000000
vt 1.00000000 0.00000000
vt 1.00000000 1.00000000
vt 0.00000000 0.00000000
vt 1.00000000 0.00000000
vt 1.00000000 1.00000000
vt 0.00000000 1.00000000
vt 0.01538462 0.00000000
vt 0.98461538 0.00000000
vt 1.00000000 1.00000000
vt 0.00000000 1.00000000
vt 1.00000000 1.00000000
vt 0.00000000 1.00000000
vt 0.00000000 0.00000000
vt 1.00000000 0.00000000
vt 1.00000000 0.00000000
vt 1.00000000 1.00000000
vt 0.00000000 1.00000000
vt 0.00000000 0.00000000
vt 0.80000000 0.00000000
vt 1.00000000 1.00000000
vt 0.00000000 1.00000000
vt 0.00000000 0.00000000
vt 0.75000000 0.00000000
vt 1.00000000 1.00000000
vt 0.00000000 1.00000000
vt 0.00000000 0.00000000
vt 0.00000000 0.00000000
vt 1.00000000 0.00000000
vt 1.00000000 1.00000000
vt 0.00000000 1.00000000
vt 0.80000000 0.00000000
vt 1.00000000 1.00000000
vt 0.00000000 1.00000000
vt 0.00000000 0.00000000
vn 0.00000000 0.00000000 -1.00000000
vn 0.00000000 0.00000000 -1.00000000
vn 0.00000000 0.00000000 -1.00000000
vn 0.00000000 0.00000000 -1.00000000
vn 1.00000000 0.00000000 0.00000000
vn 1.00000000 0.00000000 0.00000000
vn 1.00000000 0.00000000 0.00000000
vn 1.00000000 0.00000000 0.00000000
vn 1.00000000 0.00000000 0.00000000
vn 1.00000000 0.00000000 0.00000000
vn 1.00000000 0.00000000 0.00000000
vn 1.00000000 0.00000000 0.00000000
vn 1.00000000 0.00000000 0.00000000
vn 1.00000000 0.00000000 0.00000000
vn 1.00000000 0.00000000 0.00000000
vn 1.00000000 0.00000000 0.00000000
vn 1.00000000 0.00000000 0.00000000
vn 1.00000000 0.00000000 0.00000000
vn 0.00000000 0.00000000 1.00000000
vn 0.00000000 0.00000000 1.00000000
vn 0.00000000 0.00000000 1.00000000
vn 0.00000000 0.00000000 1.00000000
vn 0.00000000 0.70710678 0.70710678
vn 0.00000000 0.70710678 0.70710678
vn 0.00000000 0.70710678 0.70710678
vn 0.00000000 0.70710678 0.70710678
vn -0.70710678 0.70710678 -0.00000000
vn -0.70710678 0.70710678 -0.00000000
vn -0.70710678 0.70710678 -0.00000000
vn -0.70710678 0.70710678 -0.00000000
vn -1.00000000 0.00000000 -0.00000000
vn -1.00000000 0.00000000 -0.00000000
vn -1.00000000 0.00000000 -0.00000000
vn -1.00000000 0.00000000 -0.00000000
vn 0.00000000 0.00000000 1.00000000
vn 0.00000000 0.00000000 1.00000000
vn 0.00000000 0.00000000 1.00000000
vn 0.00000000 0.00000000 1.00000000
vn 0.00000000 0.70710678 0.70710678
vn 0.00000000 0.70710678 0.70710678
vn 0.00000000 0.70710678 0.70710678
vn -0.70710678 0.70710678 -0.00000000
vn -0.70710678 0.70710678 -0.00000000
vn -0.70710678 0.70710678 -0.00000000
vn -0.70710678 0.70710678 -0.00000000
vn 0.00000000 0.70710678 -0.70710678
vn 0.00000000 0.70710678 -0.70710678
vn 0.00000000 0.70710678 -0.70710678
vn 0.00000000 0.00000000 -1.00000000
vn 0.00000000 0.00000000 -1.00000000
vn 0.00000000 0.00000000 -1.00000000
vn 0.00000000 0.00000000 -1.00000000
vn 0.00000000 0.00000000 -1.00000000
vn 0.00000000 0.00000000 -1.00000000
vn 0.00000000 0.00000000 -1.00000000
vn 0.00000000 0.00000000 -1.00000000
vn -1.00000000 0.00000000 -0.00000000
vn -1.00000000 0.00000000 -0.00000000
vn -1.00000000 0.00000000 -0.00000000
vn -1.00000000 0.00000000 -0.00000000
vn -0.70710678 0.70710678 -0.00000000
vn -0.70710678 0.70710678 -0.00000000
vn -0.70710678 0.70710678 -0.00000000
vn -0.70710678 0.70710678 -0.00000000
vn -0.00000000 -1.00000000 0.00000000
vn -0.00000000 -1.00000000 0.00000000
vn -0.00000000 -1.00000000 0.00000000
vn -0.00000000 -1.00000000 0.00000000
vn 0.00000000 0.00000000 1.00000000
vn 0.00000000 0.00000000 1.00000000
vn 0.00000000 0.00000000 1.00000000
vn 0.00000000 0.00000000 1.00000000
vn 0.00000000 0.70710678 0.70710678
vn 0.00000000 0.70710678 0.70710678
vn 0.00000000 0.70710678 0.70710678
vn 0.00000000 0.70710678 0.70710678
vn 0.00000000 0.70710678 -0.70710678
vn 0.00000000 0.70710678 -0.70710678
vn 0.00000000 0.70710678 -0.70710678
vn 0.00000000 0.70710678 -0.70710678
vn -1.00000000 0.00000000 -0.00000000
vn -1.00000000 0.00000000 -0.00000000
vn -1.00000000 0.00000000 -0.00000000
vn -1.00000000 0.00000000 -0.00000000
vn 0.00000000 0.70710678 -0.70710678
vn 0.00000000 0.70710678 -0.70710678
vn 0.00000000 0.70710678 -0.70710678
vn 0.00000000 0.70710678 -0.70710678
s 1
usemtl White
f 51/158/158 50/157/157 48/155/155
f 50/157/157 49/156/156 48/155/155
s 2
f 56/163/163 55/162/162 54/161/161
f 62/171/171 58/165/165 54/161/161
f 50/170/170 59/166/166 58/165/165
f 61/168/168 60/167/167 59/166/166
f 50/170/170 61/168/168 59/166/166
f 50/170/170 51/169/169 61/168/168
f 62/171/171 50/170/170 58/165/165
f 53/160/160 52/159/159 62/171/171
f 52/159/159 63/172/172 62/171/171
f 54/161/161 53/160/160 62/171/171
f 58/165/165 56/163/163 54/161/161
f 58/165/165 57/164/164 56/163/163
s 3
f 64/173/173 65/174/174 55/176/176
f 65/174/174 54/175/175 55/176/176
s 4
f 66/177/177 64/178/178 55/179/179
f 66/177/177 55/179/179 56/180/180
s 5
f 48/184/184 64/183/183 66/182/182
f 48/184/184 66/182/182 67/181/181
s 6
f 67/188/188 66/187/187 68/185/185
f 66/187/187 69/186/186 68/185/185
s 7
f 69/189/189 66/190/190 57/192/192
f 66/190/190 56/191/191 57/192/192
s 8
f 57/193/193 58/194/194 69/195/195
s 9
f 68/199/199 69/198/198 58/197/197
f 68/199/199 58/197/197 59/196/196
s 10
f 68/202/202 59/201/201 60/200/200
s 11
f 60/206/206 61/205/205 68/203/203
f 61/205/205 67/204/204 68/203/203
s 12
f 71/210/210 62/209/209 63/208/208
f 71/210/210 63/208/208 70/207/207
s 13
f 70/214/214 73/213/213 72/212/212
f 70/214/214 72/212/212 71/211/211
s 14
f 71/218/218 72/217/217 65/216/216
f 71/218/218 65/216/216 49/215/215
s 15
f 70/219/219 63/220/220 52/221/221
f 70/219/219 52/221/221 73/222/222
s 16
f 72/223/223 73/224/224 53/226/226
f 73/224/224 52/225/225 53/226/226
s 17
f 65/227/227 72/228/228 53/229/229
f 65/227/227 53/229/229 54/230/230
s 18
f 61/234/234 51/233/233 67/231/231
f 51/233/233 48/232/232 67/231/231
s 19
f 49/238/238 65/237/237 48/235/235
f 65/237/237 64/236/236 48/235/235
s 20
f 50/242/242 62/241/241 49/239/239
f 62/241/241 71/240/240 49/239/239
