mtllib Prop_Living_Room_Modular_Couch_Leg_Rest.mtl
o object1
g object1
v 0.47500000 0.27500000 0.47500000
v -0.47500000 0.27500000 0.47500000
v -0.47500000 0.27500000 -0.55000000
v 0.47500000 0.27500000 -0.55000000
v -0.50000000 0.02500000 -0.55000000
v -0.47500000 0.00000000 -0.55000000
v 0.47500000 0.00000000 -0.55000000
v 0.50000000 0.02500000 -0.55000000
v 0.50000000 0.25000000 -0.55000000
v -0.50000000 0.25000000 -0.55000000
v 0.50000000 0.02500000 0.47500000
v 0.47500000 0.00000000 0.47500000
v 0.47500000 0.02500000 0.50000000
v -0.47500000 0.02500000 0.50000000
v -0.47500000 0.00000000 0.47500000
v 0.47500000 0.25000000 0.50000000
v -0.47500000 0.25000000 0.50000000
v -0.50000000 0.25000000 0.47500000
v -0.50000000 0.02500000 0.47500000
v 0.50000000 0.25000000 0.47500000
vt 0.00000000 0.00000000
vt 1.00000000 0.00000000
vt 1.00000000 1.00000000
vt 0.00000000 1.00000000
vt 0.09090909 1.00000000
vt 0.00000000 0.97500000
vt 0.00000000 0.02500000
vt 0.09090909 0.00000000
vt 0.90909091 0.00000000
vt 1.00000000 0.02500000
vt 1.00000000 0.97500000
vt 0.90909091 1.00000000
vt 1.00000000 1.00000000
vt 0.00000000 1.00000000
vt 0.00000000 0.00000000
vt 1.00000000 0.00000000
vt 1.00000000 0.00000000
vt 1.00000000 1.00000000
vt 0.00000000 0.50000000
vt 1.00000000 1.00000000
vt 0.00000000 1.00000000
vt 0.00000000 0.00000000
vt 1.00000000 0.00000000
vt 0.00000000 1.00000000
vt 0.00000000 0.00000000
vt 1.00000000 0.00000000
vt 1.00000000 1.00000000
vt 0.00000000 0.00000000
vt 1.00000000 0.00000000
vt 1.00000000 1.00000000
vt 0.00000000 1.00000000
vt 1.00000000 0.00000000
vt 1.00000000 1.00000000
vt 0.00000000 0.50000000
vt 1.00000000 0.00000000
vt 1.00000000 1.00000000
vt 0.00000000 0.50000000
vt 0.00000000 0.00000000
vt 1.00000000 0.00000000
vt 1.00000000 1.00000000
vt 0.00000000 1.00000000
vt 1.00000000 0.00000000
vt 1.00000000 1.00000000
vt 0.00000000 0.50000000
vt 0.00000000 1.00000000
vt 0.00000000 0.00000000
vt 1.00000000 0.00000000
vt 1.00000000 1.00000000
vt 0.00000000 1.00000000
vt 0.00000000 0.00000000
vt 1.00000000 0.00000000
vt 1.00000000 1.00000000
vt 1.00000000 1.00000000
vt 0.00000000 1.00000000
vt 0.00000000 0.00000000
vt 1.00000000 0.00000000
vt 0.00000000 0.00000000
vt 1.00000000 0.00000000
vt 1.00000000 1.00000000
vt 0.00000000 1.00000000
vt 1.00000000 1.00000000
vt 0.00000000 1.00000000
vt 0.00000000 0.00000000
vt 1.00000000 0.00000000
vt 1.00000000 1.00000000
vt 0.00000000 1.00000000
vt 0.00000000 0.00000000
vt 1.00000000 0.00000000
vt 1.00000000 1.00000000
vt 0.00000000 1.00000000
vt 0.00000000 0.00000000
vt 1.00000000 0.00000000
vn 0.00000000 1.00000000 0.00000000
vn 0.00000000 1.00000000 0.00000000
vn 0.00000000 1.00000000 0.00000000
vn 0.00000000 1.00000000 0.00000000
vn 0.00000000 0.00000000 -1.00000000
vn 0.00000000 0.00000000 -1.00000000
vn 0.00000000 0.00000000 -1.00000000
vn 0.00000000 0.00000000 -1.00000000
vn 0.00000000 0.00000000 -1.00000000
vn 0.00000000 0.00000000 -1.00000000
vn 0.00000000 0.00000000 -1.00000000
vn 0.00000000 0.00000000 -1.00000000
vn 0.70710678 -0.70710678 -0.00000000
vn 0.70710678 -0.70710678 -0.00000000
vn 0.70710678 -0.70710678 0.00000000
vn 0.70710678 -0.70710678 0.00000000
vn 0.57735027 -0.57735027 0.57735027
vn 0.57735027 -0.57735027 0.57735027
vn 0.57735027 -0.57735027 0.57735027
vn -0.00000000 -0.70710678 0.70710678
vn -0.00000000 -0.70710678 0.70710678
vn -0.00000000 -0.70710678 0.70710678
vn -0.00000000 -0.70710678 0.70710678
vn 0.00000000 0.00000000 1.00000000
vn 0.00000000 0.00000000 1.00000000
vn 0.00000000 0.00000000 1.00000000
vn 0.00000000 0.00000000 1.00000000
vn -0.70710678 -0.00000000 0.70710678
vn -0.70710678 -0.00000000 0.70710678
vn -0.70710678 -0.00000000 0.70710678
vn -0.70710678 -0.00000000 0.70710678
vn -0.57735027 0.57735027 0.57735027
vn -0.57735027 0.57735027 0.57735027
vn -0.57735027 0.57735027 0.57735027
vn -0.57735027 -0.57735027 0.57735027
vn -0.57735027 -0.57735027 0.57735027
vn -0.57735027 -0.57735027 0.57735027
vn 0.70710678 0.00000000 0.70710678
vn 0.70710678 0.00000000 0.70710678
vn 0.70710678 0.00000000 0.70710678
vn 0.70710678 0.00000000 0.70710678
vn 0.57735027 0.57735027 0.57735027
vn 0.57735027 0.57735027 0.57735027
vn 0.57735027 0.57735027 0.57735027
vn 1.00000000 0.00000000 0.00000000
vn 1.00000000 0.00000000 0.00000000
vn 1.00000000 0.00000000 0.00000000
vn 1.00000000 0.00000000 0.00000000
vn -1.00000000 0.00000000 0.00000000
vn -1.00000000 0.00000000 0.00000000
vn -1.00000000 0.00000000 0.00000000
vn -1.00000000 0.00000000 0.00000000
vn -0.70710678 -0.70710678 0.00000000
vn -0.70710678 -0.70710678 0.00000000
vn -0.70710678 -0.70710678 0.00000000
vn -0.70710678 -0.70710678 0.00000000
vn 0.00000000 -1.00000000 0.00000000
vn 0.00000000 -1.00000000 0.00000000
vn 0.00000000 -1.00000000 0.00000000
vn 0.00000000 -1.00000000 0.00000000
vn 0.70710678 0.70710678 0.00000000
vn 0.70710678 0.70710678 0.00000000
vn 0.70710678 0.70710678 0.00000000
vn 0.70710678 0.70710678 0.00000000
vn -0.00000000 0.70710678 0.70710678
vn -0.00000000 0.70710678 0.70710678
vn -0.00000000 0.70710678 0.70710678
vn -0.00000000 0.70710678 0.70710678
vn -0.70710678 0.70710678 0.00000000
vn -0.70710678 0.70710678 0.00000000
vn -0.70710678 0.70710678 0.00000000
vn -0.70710678 0.70710678 0.00000000
s 1
usemtl Fabric_2
f 4/4/4 3/3/3 1/1/1
f 3/3/3 2/2/2 1/1/1
s 2
f 6/6/6 5/5/5 10/12/12
f 10/12/12 3/11/11 9/9/9
f 9/9/9 8/8/8 7/7/7
f 3/11/11 4/10/10 9/9/9
f 9/9/9 7/7/7 10/12/12
f 7/7/7 6/6/6 10/12/12
s 3
f 8/13/13 11/14/14 7/16/16
f 11/14/14 12/15/15 7/16/16
s 4
f 11/19/19 13/18/18 12/17/17
s 5
f 13/20/20 14/21/21 12/23/23
f 14/21/21 15/22/22 12/23/23
s 6
f 14/24/24 13/25/25 17/27/27
f 13/25/25 16/26/26 17/27/27
s 7
f 14/28/28 17/29/29 19/31/31
f 17/29/29 18/30/30 19/31/31
s 8
f 18/34/34 17/33/33 2/32/32
s 9
f 15/35/35 14/36/36 19/37/37
s 10
f 11/38/38 20/39/39 13/41/41
f 20/39/39 16/40/40 13/41/41
s 11
f 1/42/42 16/43/43 20/44/44
s 12
f 9/48/48 20/47/47 8/45/45
f 20/47/47 11/46/46 8/45/45
s 13
f 5/49/49 19/50/50 10/52/52
f 19/50/50 18/51/51 10/52/52
s 14
f 6/56/56 15/55/55 5/53/53
f 15/55/55 19/54/54 5/53/53
s 15
f 12/57/57 15/58/58 7/60/60
f 15/58/58 6/59/59 7/60/60
s 16
f 4/61/61 1/62/62 20/63/63
f 4/61/61 20/63/63 9/64/64
s 17
f 1/65/65 2/66/66 16/68/68
f 2/66/66 17/67/67 16/68/68
s 18
f 10/72/72 18/71/71 2/70/70
f 10/72/72 2/70/70 3/69/69
o object2
g object2
v -0.46250000 0.43750000 0.50000000
v -0.50000000 0.43750000 0.46250000
v -0.46250000 0.47500000 0.46250000
v 0.46250000 0.47500000 0.46250000
v 0.46250000 0.43750000 0.50000000
v -0.46250000 0.31250000 0.50000000
v 0.46250000 0.31250000 0.50000000
v 0.46250000 0.27500000 0.46250000
v -0.46250000 0.27500000 0.46250000
v -0.46250000 0.27500000 -0.46250000
v 0.46250000 0.27500000 -0.46250000
v 0.46250000 0.31250000 -0.50000000
v -0.46250000 0.31250000 -0.50000000
v 0.50000000 0.31250000 -0.46250000
v 0.46250000 0.43750000 -0.50000000
v 0.50000000 0.43750000 -0.46250000
v 0.50000000 0.43750000 0.46250000
v 0.50000000 0.31250000 0.46250000
v 0.46250000 0.47500000 -0.46250000
v -0.46250000 0.47500000 -0.46250000
v -0.46250000 0.43750000 -0.50000000
v -0.50000000 0.43750000 -0.46250000
v -0.50000000 0.31250000 -0.46250000
v -0.50000000 0.31250000 0.46250000
vt 1.00000000 1.00000000
vt 0.00000000 0.50000000
vt 1.00000000 0.00000000
vt 1.00000000 1.00000000
vt 0.00000000 1.00000000
vt 0.00000000 0.00000000
vt 1.00000000 0.00000000
vt 0.00000000 1.00000000
vt 0.00000000 0.00000000
vt 1.00000000 0.00000000
vt 1.00000000 1.00000000
vt 1.00000000 1.00000000
vt 0.00000000 1.00000000
vt 0.00000000 0.00000000
vt 1.00000000 0.00000000
vt 1.00000000 1.00000000
vt 0.00000000 1.00000000
vt 0.00000000 0.00000000
vt 1.00000000 0.00000000
vt 0.00000000 1.00000000
vt 0.00000000 0.00000000
vt 1.00000000 0.00000000
vt 1.00000000 1.00000000
vt 0.00000000 0.50000000
vt 1.00000000 0.00000000
vt 1.00000000 1.00000000
vt 0.00000000 1.00000000
vt 0.00000000 0.00000000
vt 1.00000000 0.00000000
vt 1.00000000 1.00000000
vt 1.00000000 0.00000000
vt 1.00000000 1.00000000
vt 0.00000000 1.00000000
vt 0.00000000 0.00000000
vt 0.00000000 0.00000000
vt 1.00000000 0.00000000
vt 1.00000000 1.00000000
vt 0.00000000 1.00000000
vt 1.00000000 1.00000000
vt 0.00000000 0.50000000
vt 1.00000000 0.00000000
vt 1.00000000 1.00000000
vt 0.00000000 1.00000000
vt 0.00000000 0.00000000
vt 1.00000000 0.00000000
vt 1.00000000 1.00000000
vt 0.00000000 0.50000000
vt 1.00000000 0.00000000
vt 0.00000000 1.00000000
vt 0.00000000 0.00000000
vt 1.00000000 0.00000000
vt 1.00000000 1.00000000
vt 1.00000000 0.00000000
vt 1.00000000 1.00000000
vt 0.00000000 1.00000000
vt 0.00000000 0.00000000
vt 0.00000000 1.00000000
vt 0.00000000 0.00000000
vt 1.00000000 0.00000000
vt 1.00000000 1.00000000
vt 0.00000000 0.50000000
vt 1.00000000 0.00000000
vt 1.00000000 1.00000000
vt 1.00000000 0.00000000
vt 1.00000000 1.00000000
vt 0.00000000 1.00000000
vt 0.00000000 0.00000000
vt 1.00000000 0.00000000
vt 1.00000000 1.00000000
vt 0.00000000 1.00000000
vt 0.00000000 0.00000000
vt 0.00000000 0.50000000
vt 1.00000000 0.00000000
vt 1.00000000 1.00000000
vt 0.00000000 0.50000000
vt 1.00000000 0.00000000
vt 1.00000000 1.00000000
vt 0.00000000 1.00000000
vt 0.00000000 0.00000000
vt 1.00000000 0.00000000
vt 1.00000000 1.00000000
vt 1.00000000 1.00000000
vt 0.00000000 1.00000000
vt 0.00000000 0.00000000
vt 1.00000000 0.00000000
vt 1.00000000 1.00000000
vt 0.00000000 0.50000000
vt 1.00000000 0.00000000
vt 0.00000000 1.00000000
vt 0.00000000 0.00000000
vt 1.00000000 0.00000000
vt 1.00000000 1.00000000
vt 0.00000000 0.00000000
vt 1.00000000 0.00000000
vt 1.00000000 1.00000000
vt 0.00000000 1.00000000
vn -0.57735027 0.57735027 0.57735027
vn -0.57735027 0.57735027 0.57735027
vn -0.57735027 0.57735027 0.57735027
vn 0.00000000 0.70710678 0.70710678
vn 0.00000000 0.70710678 0.70710678
vn 0.00000000 0.70710678 0.70710678
vn 0.00000000 0.70710678 0.70710678
vn 0.00000000 0.00000000 1.00000000
vn 0.00000000 0.00000000 1.00000000
vn 0.00000000 0.00000000 1.00000000
vn 0.00000000 0.00000000 1.00000000
vn 0.00000000 -0.70710678 0.70710678
vn 0.00000000 -0.70710678 0.70710678
vn 0.00000000 -0.70710678 0.70710678
vn 0.00000000 -0.70710678 0.70710678
vn 0.00000000 -1.00000000 0.00000000
vn 0.00000000 -1.00000000 0.00000000
vn 0.00000000 -1.00000000 0.00000000
vn 0.00000000 -1.00000000 0.00000000
vn 0.00000000 -0.70710678 -0.70710678
vn 0.00000000 -0.70710678 -0.70710678
vn 0.00000000 -0.70710678 -0.70710678
vn 0.00000000 -0.70710678 -0.70710678
vn 0.57735027 -0.57735027 -0.57735027
vn 0.57735027 -0.57735027 -0.57735027
vn 0.57735027 -0.57735027 -0.57735027
vn 0.70710678 0.00000000 -0.70710678
vn 0.70710678 0.00000000 -0.70710678
vn 0.70710678 0.00000000 -0.70710678
vn 0.70710678 0.00000000 -0.70710678
vn 1.00000000 0.00000000 -0.00000000
vn 1.00000000 0.00000000 -0.00000000
vn 1.00000000 0.00000000 -0.00000000
vn 1.00000000 0.00000000 -0.00000000
vn 0.70710678 0.70710678 -0.00000000
vn 0.70710678 0.70710678 -0.00000000
vn 0.70710678 0.70710678 -0.00000000
vn 0.70710678 0.70710678 -0.00000000
vn 0.57735027 0.57735027 -0.57735027
vn 0.57735027 0.57735027 -0.57735027
vn 0.57735027 0.57735027 -0.57735027
vn 0.00000000 0.70710678 -0.70710678
vn 0.00000000 0.70710678 -0.70710678
vn 0.00000000 0.70710678 -0.70710678
vn 0.00000000 0.70710678 -0.70710678
vn -0.57735027 0.57735027 -0.57735027
vn -0.57735027 0.57735027 -0.57735027
vn -0.57735027 0.57735027 -0.57735027
vn -0.70710678 0.00000000 -0.70710678
vn -0.70710678 0.00000000 -0.70710678
vn -0.70710678 0.00000000 -0.70710678
vn -0.70710678 0.00000000 -0.70710678
vn -1.00000000 0.00000000 -0.00000000
vn -1.00000000 0.00000000 -0.00000000
vn -1.00000000 0.00000000 -0.00000000
vn -1.00000000 0.00000000 -0.00000000
vn 0.00000000 0.00000000 -1.00000000
vn 0.00000000 0.00000000 -1.00000000
vn 0.00000000 0.00000000 -1.00000000
vn 0.00000000 0.00000000 -1.00000000
vn -0.57735027 -0.57735027 -0.57735027
vn -0.57735027 -0.57735027 -0.57735027
vn -0.57735027 -0.57735027 -0.57735027
vn -0.70710678 -0.70710678 0.00000000
vn -0.70710678 -0.70710678 0.00000000
vn -0.70710678 -0.70710678 0.00000000
vn -0.70710678 -0.70710678 0.00000000
vn 0.70710678 -0.70710678 0.00000000
vn 0.70710678 -0.70710678 0.00000000
vn 0.70710678 -0.70710678 0.00000000
vn 0.70710678 -0.70710678 0.00000000
vn -0.57735027 -0.57735027 0.57735027
vn -0.57735027 -0.57735027 0.57735027
vn -0.57735027 -0.57735027 0.57735027
vn 0.57735027 -0.57735027 0.57735027
vn 0.57735027 -0.57735027 0.57735027
vn 0.57735027 -0.57735027 0.57735027
vn 0.70710678 0.00000000 0.70710678
vn 0.70710678 0.00000000 0.70710678
vn 0.70710678 0.00000000 0.70710678
vn 0.70710678 0.00000000 0.70710678
vn 0.00000000 1.00000000 0.00000000
vn 0.00000000 1.00000000 0.00000000
vn 0.00000000 1.00000000 0.00000000
vn 0.00000000 1.00000000 0.00000000
vn 0.57735027 0.57735027 0.57735027
vn 0.57735027 0.57735027 0.57735027
vn 0.57735027 0.57735027 0.57735027
vn -0.70710678 0.00000000 0.70710678
vn -0.70710678 0.00000000 0.70710678
vn -0.70710678 0.00000000 0.70710678
vn -0.70710678 0.00000000 0.70710678
vn -0.70710678 0.70710678 -0.00000000
vn -0.70710678 0.70710678 -0.00000000
vn -0.70710678 0.70710678 -0.00000000
vn -0.70710678 0.70710678 -0.00000000
s 1
usemtl Fabric_1
f 23/75/75 22/74/74 21/73/73
s 2
f 21/79/79 25/78/78 24/77/77
f 21/79/79 24/77/77 23/76/76
s 3
f 26/80/80 27/81/81 21/83/83
f 27/81/81 25/82/82 21/83/83
s 4
f 29/87/87 28/86/86 27/85/85
f 29/87/87 27/85/85 26/84/84
s 5
f 30/88/88 31/89/89 28/90/90
f 30/88/88 28/90/90 29/91/91
s 6
f 32/92/92 31/93/93 33/95/95
f 31/93/93 30/94/94 33/95/95
s 7
f 31/98/98 32/97/97 34/96/96
s 8
f 34/99/99 32/100/100 36/102/102
f 32/100/100 35/101/101 36/102/102
s 9
f 36/103/103 37/104/104 34/106/106
f 37/104/104 38/105/105 34/106/106
s 10
f 37/107/107 36/108/108 24/110/110
f 36/108/108 39/109/109 24/110/110
s 11
f 39/113/113 36/112/112 35/111/111
s 12
f 40/114/114 39/115/115 35/116/116
f 40/114/114 35/116/116 41/117/117
s 13
f 41/118/118 42/119/119 40/120/120
s 14
f 42/124/124 41/123/123 43/121/121
f 41/123/123 33/122/122 43/121/121
s 15
f 43/128/128 44/127/127 42/125/125
f 44/127/127 22/126/126 42/125/125
s 16
f 41/132/132 35/131/131 33/129/129
f 35/131/131 32/130/130 33/129/129
s 17
f 43/133/133 33/134/134 30/135/135
s 18
f 29/139/139 44/138/138 30/136/136
f 44/138/138 43/137/137 30/136/136
s 19
f 31/140/140 34/141/141 38/142/142
f 31/140/140 38/142/142 28/143/143
s 20
f 29/146/146 26/145/145 44/144/144
s 21
f 38/147/147 27/148/148 28/149/149
s 22
f 37/153/153 25/152/152 27/151/151
f 37/153/153 27/151/151 38/150/150
s 23
f 23/157/157 24/156/156 39/155/155
f 23/157/157 39/155/155 40/154/154
s 24
f 25/158/158 37/159/159 24/160/160
s 25
f 44/161/161 26/162/162 21/163/163
f 44/161/161 21/163/163 22/164/164
s 26
f 23/168/168 40/167/167 22/165/165
f 40/167/167 42/166/166 22/165/165
