mtllib Prop_Living_Room_Modular_Couch_End.mtl
o object1
g object1
v 0.37500000 0.75000000 0.47500000
v 0.37500000 0.72500000 0.50000000
v 0.35000000 0.72500000 0.47500000
v 0.37500000 0.75000000 -0.47500000
v 0.35000000 0.72500000 -0.47500000
v 0.35000000 0.02500000 -0.47500000
v 0.35000000 0.02500000 0.47500000
v 0.37500000 0.00000000 0.47500000
v 0.37500000 0.00000000 -0.47500000
v 0.37500000 0.02500000 0.50000000
v 0.50000000 -0.00000000 0.47500000
v 0.50000000 0.02500000 0.50000000
v 0.50000000 0.72500000 -0.39736842
v 0.50000000 0.72500000 0.47500000
v 0.50000000 0.27500000 0.47500000
v 0.50000000 0.25000000 0.50000000
v 0.50000000 0.00000000 -0.47500000
v 0.50000000 0.02500000 -0.50000000
v 0.50000000 0.72500000 -0.50000000
v 0.50000000 0.75000000 -0.47500000
v 0.50000000 0.75000000 -0.42250654
v 0.50000000 0.72761712 -0.39764391
v 0.49738288 0.72761712 -0.39764391
v 0.47500000 0.75000000 -0.42250654
v 0.47500000 0.75000000 0.47500000
v 0.47500000 0.72500000 0.50000000
v 0.37500000 0.72500000 -0.50000000
v 0.37500000 0.02500000 -0.50000000
v 0.47500000 0.25000000 0.50000000
vt 1.00000000 1.00000000
vt 0.00000000 0.50000000
vt 1.00000000 0.00000000
vt 0.00000000 1.00000000
vt 0.00000000 0.00000000
vt 1.00000000 0.00000000
vt 1.00000000 1.00000000
vt 0.00000000 1.00000000
vt 0.00000000 0.00000000
vt 1.00000000 0.00000000
vt 1.00000000 1.00000000
vt 0.00000000 1.00000000
vt 0.00000000 0.00000000
vt 1.00000000 0.00000000
vt 1.00000000 1.00000000
vt 1.00000000 0.00000000
vt 1.00000000 1.00000000
vt 0.00000000 0.50000000
vt 1.00000000 1.00000000
vt 0.00000000 1.00000000
vt 0.00000000 0.00000000
vt 1.00000000 0.00000000
vt 0.89736842 0.96666667
vt 0.02500000 0.96666667
vt 0.02500000 0.36666667
vt 0.00000000 0.33333333
vt 0.00000000 0.03333333
vt 0.02500000 0.00000000
vt 0.97500000 0.00000000
vt 1.00000000 0.03333333
vt 1.00000000 0.96666667
vt 0.97500000 1.00000000
vt 0.92250654 1.00000000
vt 0.89764391 0.97015616
vt 0.97199115 0.00000000
vt 0.97229810 0.10468478
vt 1.00000000 1.00000000
vt 0.00000000 1.00000000
vt 0.00000000 0.00000000
vt 1.00000000 0.00000000
vt 1.00000000 1.00000000
vt 0.00000000 0.50000000
vt 1.00000000 1.00000000
vt 0.00000000 1.00000000
vt 0.00000000 0.00000000
vt 0.00000000 0.00000000
vt 1.00000000 0.00000000
vt 0.10468478 1.00000000
vt 0.00000000 1.00000000
vt 0.00000000 1.00000000
vt 0.00000000 0.00000000
vt 1.00000000 0.00000000
vt 1.00000000 1.00000000
vt 1.00000000 1.00000000
vt 0.00000000 1.00000000
vt 0.00000000 0.00000000
vt 1.00000000 0.00000000
vt 0.00000000 1.00000000
vt 0.00000000 0.00000000
vt 1.00000000 0.00000000
vt 1.00000000 1.00000000
vt 0.00000000 0.00000000
vt 1.00000000 0.00000000
vt 1.00000000 1.00000000
vt 1.00000000 1.00000000
vt 0.00000000 1.00000000
vt 0.05263158 0.00000000
vt 1.00000000 0.00000000
vt 1.00000000 0.20000000
vt 1.00000000 1.00000000
vt 0.00000000 1.00000000
vt 0.00000000 0.00000000
vt 0.32142857 0.00000000
vt 0.32142857 0.20000000
vt 0.00000000 1.00000000
vt 0.00000000 0.00000000
vt 1.00000000 0.00000000
vt 1.00000000 1.00000000
vt 1.00000000 0.50000000
vt 0.00000000 1.00000000
vt 0.00000000 0.00000000
vt 0.00000000 1.00000000
vt 0.00000000 0.00000000
vt 1.00000000 0.00000000
vt 1.00000000 1.00000000
vt 0.00000000 1.00000000
vt 0.00000000 0.00000000
vt 1.00000000 0.50000000
vt 0.00000000 1.00000000
vt 0.00000000 0.20000000
vt 0.94474373 0.20000000
vt 0.94474373 0.00000000
vt 1.00000000 0.00000000
vt 1.00000000 1.00000000
vt 0.00000000 1.00000000
vt 0.00000000 0.00000000
vt 1.00000000 0.00000000
vt 1.00000000 1.00000000
vt 0.00000000 1.00000000
vt 0.00000000 0.00000000
vt 1.00000000 0.00000000
vt 1.00000000 1.00000000
vn -0.57735027 0.57735027 0.57735027
vn -0.57735027 0.57735027 0.57735027
vn -0.57735027 0.57735027 0.57735027
vn -0.70710678 0.70710678 0.00000000
vn -0.70710678 0.70710678 0.00000000
vn -0.70710678 0.70710678 0.00000000
vn -0.70710678 0.70710678 0.00000000
vn -1.00000000 0.00000000 0.00000000
vn -1.00000000 0.00000000 0.00000000
vn -1.00000000 0.00000000 0.00000000
vn -1.00000000 0.00000000 0.00000000
vn -0.70710678 -0.70710678 0.00000000
vn -0.70710678 -0.70710678 0.00000000
vn -0.70710678 -0.70710678 0.00000000
vn -0.70710678 -0.70710678 0.00000000
vn -0.57735027 -0.57735027 0.57735027
vn -0.57735027 -0.57735027 0.57735027
vn -0.57735027 -0.57735027 0.57735027
vn 0.00000000 -0.70710678 0.70710678
vn 0.00000000 -0.70710678 0.70710678
vn 0.00000000 -0.70710678 0.70710678
vn 0.00000000 -0.70710678 0.70710678
vn 1.00000000 0.00000000 0.00000000
vn 1.00000000 0.00000000 0.00000000
vn 1.00000000 0.00000000 0.00000000
vn 1.00000000 0.00000000 0.00000000
vn 1.00000000 0.00000000 0.00000000
vn 1.00000000 0.00000000 0.00000000
vn 1.00000000 0.00000000 0.00000000
vn 1.00000000 0.00000000 0.00000000
vn 1.00000000 0.00000000 0.00000000
vn 1.00000000 0.00000000 0.00000000
vn 1.00000000 0.00000000 0.00000000
vn 1.00000000 0.00000000 0.00000000
vn 0.70710678 0.70710678 0.00000000
vn 0.70710678 0.70710678 0.00000000
vn 0.70710678 0.70710678 0.00000000
vn 0.70710678 0.70710678 0.00000000
vn 0.70710678 0.70710678 0.00000000
vn 0.57735027 0.57735027 0.57735027
vn 0.57735027 0.57735027 0.57735027
vn 0.57735027 0.57735027 0.57735027
vn 0.00000000 0.10468478 0.99450545
vn 0.00000000 0.10468478 0.99450545
vn 0.00000000 0.10468478 0.99450545
vn 0.00000000 0.74319741 0.66907220
vn 0.00000000 0.74319741 0.66907220
vn 0.00000000 0.74319741 0.66907220
vn 0.00000000 0.74319741 0.66907220
vn 0.00000000 0.70710678 -0.70710678
vn 0.00000000 0.70710678 -0.70710678
vn 0.00000000 0.70710678 -0.70710678
vn 0.00000000 0.70710678 -0.70710678
vn 0.00000000 -0.00000000 -1.00000000
vn 0.00000000 -0.00000000 -1.00000000
vn 0.00000000 -0.00000000 -1.00000000
vn 0.00000000 -0.00000000 -1.00000000
vn -0.00000000 -0.70710678 -0.70710678
vn -0.00000000 -0.70710678 -0.70710678
vn -0.00000000 -0.70710678 -0.70710678
vn -0.00000000 -0.70710678 -0.70710678
vn 0.00000000 0.70710678 0.70710678
vn 0.00000000 0.70710678 0.70710678
vn 0.00000000 0.70710678 0.70710678
vn 0.70710678 0.00000000 0.70710678
vn 0.70710678 0.00000000 0.70710678
vn 0.70710678 0.00000000 0.70710678
vn 0.70710678 0.00000000 0.70710678
vn 0.00000000 0.00000000 1.00000000
vn 0.00000000 0.00000000 1.00000000
vn 0.00000000 0.00000000 1.00000000
vn 0.00000000 0.00000000 1.00000000
vn 0.00000000 0.00000000 1.00000000
vn 0.00000000 0.00000000 1.00000000
vn 0.00000000 -1.00000000 0.00000000
vn 0.00000000 -1.00000000 0.00000000
vn 0.00000000 -1.00000000 0.00000000
vn 0.00000000 -1.00000000 0.00000000
vn -0.57735027 -0.57735027 -0.57735027
vn -0.57735027 -0.57735027 -0.57735027
vn -0.57735027 -0.57735027 -0.57735027
vn -0.70710678 -0.00000000 -0.70710678
vn -0.70710678 0.00000000 -0.70710678
vn -0.70710678 0.00000000 -0.70710678
vn -0.70710678 -0.00000000 -0.70710678
vn -0.57735027 0.57735027 -0.57735027
vn -0.57735027 0.57735027 -0.57735027
vn -0.57735027 0.57735027 -0.57735027
vn -0.00000000 1.00000000 0.00000000
vn -0.00000000 1.00000000 0.00000000
vn -0.00000000 1.00000000 0.00000000
vn -0.00000000 1.00000000 0.00000000
vn -0.00000000 1.00000000 0.00000000
vn -0.00000000 1.00000000 0.00000000
vn 0.00000000 0.70710678 0.70710678
vn -0.00000000 0.70710678 0.70710678
vn -0.00000000 0.70710678 0.70710678
vn 0.00000000 0.70710678 0.70710678
vn -0.70710678 0.00000000 0.70710678
vn -0.70710678 0.00000000 0.70710678
vn -0.70710678 0.00000000 0.70710678
vn -0.70710678 0.00000000 0.70710678
s 1
usemtl Fabric_2
f 3/3/3 2/2/2 1/1/1
s 2
f 3/4/4 1/5/5 4/6/6
f 3/4/4 4/6/6 5/7/7
s 3
f 6/8/8 7/9/9 5/11/11
f 7/9/9 3/10/10 5/11/11
s 4
f 8/12/12 7/13/13 9/15/15
f 7/13/13 6/14/14 9/15/15
s 5
f 10/18/18 7/17/17 8/16/16
s 6
f 11/19/19 12/20/20 8/22/22
f 12/20/20 10/21/21 8/22/22
s 7
f 20/32/32 21/33/33 22/34/34
f 19/31/31 22/34/34 13/23/23
f 13/23/23 12/27/27 11/28/28
f 15/25/25 16/26/26 12/27/27
f 13/23/23 15/25/25 12/27/27
f 13/23/23 14/24/24 15/25/25
f 13/23/23 11/28/28 19/31/31
f 11/28/28 17/29/29 19/31/31
f 17/29/29 18/30/30 19/31/31
f 19/31/31 20/32/32 22/34/34
s 8
f 14/39/39 13/35/35 23/36/36
f 23/36/36 24/37/37 25/38/38
f 25/38/38 14/39/39 23/36/36
s 9
f 26/42/42 14/41/41 25/40/40
s 10
f 13/45/45 22/44/44 23/43/43
s 11
f 21/46/46 24/47/47 23/48/48
f 21/46/46 23/48/48 22/49/49
s 12
f 4/50/50 20/51/51 19/52/52
f 4/50/50 19/52/52 27/53/53
s 13
f 19/54/54 18/55/55 27/57/57
f 18/55/55 28/56/56 27/57/57
s 14
f 28/61/61 18/60/60 17/59/59
f 28/61/61 17/59/59 9/58/58
s 15
f 29/62/62 16/63/63 15/64/64
s 16
f 26/65/65 29/66/66 15/67/67
f 26/65/65 15/67/67 14/68/68
s 17
f 10/71/71 12/72/72 16/73/73
f 10/71/71 16/73/73 29/74/74
f 29/74/74 26/69/69 2/70/70
f 29/74/74 2/70/70 10/71/71
s 18
f 11/75/75 8/76/76 17/78/78
f 8/76/76 9/77/77 17/78/78
s 19
f 9/81/81 6/80/80 28/79/79
s 20
f 28/82/82 6/83/83 27/85/85
f 6/83/83 5/84/84 27/85/85
s 21
f 27/88/88 5/87/87 4/86/86
s 22
f 24/91/91 21/92/92 20/93/93
f 1/89/89 24/91/91 4/94/94
f 1/89/89 25/90/90 24/91/91
f 24/91/91 20/93/93 4/94/94
s 23
f 1/95/95 2/96/96 26/97/97
f 1/95/95 26/97/97 25/98/98
s 24
f 7/99/99 10/100/100 2/101/101
f 7/99/99 2/101/101 3/102/102
