mtllib Prop_Living_Room_Modular_Couch_Center.mtl
o object1
g object1
v -0.50000000 0.43750000 0.46250000
v -0.46250000 0.43750000 0.50000000
v -0.46250000 0.47500000 0.46250000
v -0.46250000 0.31250000 0.50000000
v -0.50000000 0.31250000 0.46250000
v 0.46250000 0.43750000 0.50000000
v 0.46250000 0.31250000 0.50000000
v 0.50000000 0.31250000 0.46250000
v 0.50000000 0.43750000 0.46250000
v 0.46250000 0.27500000 0.46250000
v 0.46250000 0.27500000 -0.31250000
v 0.50000000 0.31250000 -0.31250000
v 0.46250000 0.31250000 -0.35000000
v -0.46250000 0.27500000 -0.31250000
v -0.46250000 0.31250000 -0.35000000
v -0.46250000 0.43750000 -0.35000000
v 0.46250000 0.43750000 -0.35000000
v 0.46250000 0.47500000 -0.31250000
v -0.46250000 0.47500000 -0.31250000
v 0.50000000 0.43750000 -0.31250000
v 0.46250000 0.47500000 0.46250000
v -0.50000000 0.43750000 -0.31250000
v -0.50000000 0.31250000 -0.31250000
v -0.46250000 0.27500000 0.46250000
vt 1.00000000 1.00000000
vt 0.00000000 0.50000000
vt 1.00000000 0.00000000
vt 0.00000000 1.00000000
vt 0.00000000 0.00000000
vt 1.00000000 0.00000000
vt 1.00000000 1.00000000
vt 1.00000000 0.00000000
vt 1.00000000 1.00000000
vt 0.00000000 1.00000000
vt 0.00000000 0.00000000
vt 0.00000000 1.00000000
vt 0.00000000 0.00000000
vt 1.00000000 0.00000000
vt 1.00000000 1.00000000
vt 0.00000000 0.50000000
vt 1.00000000 0.00000000
vt 1.00000000 1.00000000
vt 0.00000000 1.00000000
vt 0.00000000 0.00000000
vt 1.00000000 0.00000000
vt 1.00000000 1.00000000
vt 0.00000000 1.00000000
vt 0.00000000 0.00000000
vt 1.00000000 0.50000000
vt 0.00000000 1.00000000
vt 0.00000000 0.00000000
vt 1.00000000 0.00000000
vt 1.00000000 1.00000000
vt 0.00000000 1.00000000
vt 0.00000000 0.00000000
vt 1.00000000 0.00000000
vt 1.00000000 1.00000000
vt 0.00000000 1.00000000
vt 0.00000000 0.00000000
vt 1.00000000 0.00000000
vt 1.00000000 1.00000000
vt 0.00000000 0.00000000
vt 1.00000000 0.50000000
vt 0.00000000 1.00000000
vt 0.00000000 1.00000000
vt 0.00000000 0.00000000
vt 1.00000000 0.00000000
vt 1.00000000 1.00000000
vt 0.00000000 1.00000000
vt 0.00000000 0.00000000
vt 1.00000000 0.00000000
vt 1.00000000 1.00000000
vt 0.00000000 0.00000000
vt 1.00000000 0.50000000
vt 0.00000000 1.00000000
vt 0.00000000 1.00000000
vt 0.00000000 0.00000000
vt 1.00000000 0.00000000
vt 1.00000000 1.00000000
vt 0.00000000 1.00000000
vt 0.00000000 0.00000000
vt 1.00000000 0.50000000
vt 0.00000000 1.00000000
vt 0.00000000 0.00000000
vt 1.00000000 0.00000000
vt 1.00000000 1.00000000
vt 0.00000000 1.00000000
vt 0.00000000 0.00000000
vt 1.00000000 0.00000000
vt 1.00000000 1.00000000
vt 0.00000000 1.00000000
vt 0.00000000 0.00000000
vt 1.00000000 0.00000000
vt 1.00000000 1.00000000
vt 1.00000000 1.00000000
vt 0.00000000 0.50000000
vt 1.00000000 0.00000000
vt 0.00000000 1.00000000
vt 0.00000000 0.00000000
vt 1.00000000 0.00000000
vt 1.00000000 1.00000000
vt 1.00000000 0.00000000
vt 1.00000000 1.00000000
vt 0.00000000 1.00000000
vt 0.00000000 0.00000000
vt 0.00000000 0.50000000
vt 1.00000000 0.00000000
vt 1.00000000 1.00000000
vt 0.00000000 1.00000000
vt 0.00000000 0.00000000
vt 1.00000000 0.00000000
vt 1.00000000 1.00000000
vt 0.00000000 1.00000000
vt 0.00000000 0.00000000
vt 1.00000000 0.00000000
vt 1.00000000 1.00000000
vt 0.00000000 0.00000000
vt 1.00000000 0.00000000
vt 1.00000000 1.00000000
vt 0.00000000 1.00000000
vn -0.57735027 0.57735027 0.57735027
vn -0.57735027 0.57735027 0.57735027
vn -0.57735027 0.57735027 0.57735027
vn -0.70710678 0.00000000 0.70710678
vn -0.70710678 0.00000000 0.70710678
vn -0.70710678 0.00000000 0.70710678
vn -0.70710678 0.00000000 0.70710678
vn 0.00000000 0.00000000 1.00000000
vn 0.00000000 0.00000000 1.00000000
vn 0.00000000 0.00000000 1.00000000
vn 0.00000000 0.00000000 1.00000000
vn 0.70710678 0.00000000 0.70710678
vn 0.70710678 0.00000000 0.70710678
vn 0.70710678 0.00000000 0.70710678
vn 0.70710678 0.00000000 0.70710678
vn 0.57735027 -0.57735027 0.57735027
vn 0.57735027 -0.57735027 0.57735027
vn 0.57735027 -0.57735027 0.57735027
vn 0.70710678 -0.70710678 0.00000000
vn 0.70710678 -0.70710678 0.00000000
vn 0.70710678 -0.70710678 0.00000000
vn 0.70710678 -0.70710678 0.00000000
vn 0.57735027 -0.57735027 -0.57735027
vn 0.57735027 -0.57735027 -0.57735027
vn 0.57735027 -0.57735027 -0.57735027
vn 0.00000000 -0.70710678 -0.70710678
vn 0.00000000 -0.70710678 -0.70710678
vn 0.00000000 -0.70710678 -0.70710678
vn 0.00000000 -0.70710678 -0.70710678
vn -0.00000000 0.00000000 -1.00000000
vn -0.00000000 0.00000000 -1.00000000
vn -0.00000000 0.00000000 -1.00000000
vn -0.00000000 0.00000000 -1.00000000
vn 0.00000000 0.70710678 -0.70710678
vn 0.00000000 0.70710678 -0.70710678
vn 0.00000000 0.70710678 -0.70710678
vn 0.00000000 0.70710678 -0.70710678
vn 0.57735027 0.57735027 -0.57735027
vn 0.57735027 0.57735027 -0.57735027
vn 0.57735027 0.57735027 -0.57735027
vn 0.70710678 0.70710678 0.00000000
vn 0.70710678 0.70710678 0.00000000
vn 0.70710678 0.70710678 0.00000000
vn 0.70710678 0.70710678 0.00000000
vn 0.00000000 1.00000000 0.00000000
vn 0.00000000 1.00000000 0.00000000
vn 0.00000000 1.00000000 0.00000000
vn 0.00000000 1.00000000 0.00000000
vn -0.57735027 0.57735027 -0.57735027
vn -0.57735027 0.57735027 -0.57735027
vn -0.57735027 0.57735027 -0.57735027
vn -0.70710678 0.00000000 -0.70710678
vn -0.70710678 0.00000000 -0.70710678
vn -0.70710678 0.00000000 -0.70710678
vn -0.70710678 0.00000000 -0.70710678
vn -0.57735027 -0.57735027 -0.57735027
vn -0.57735027 -0.57735027 -0.57735027
vn -0.57735027 -0.57735027 -0.57735027
vn -0.70710678 -0.70710678 0.00000000
vn -0.70710678 -0.70710678 0.00000000
vn -0.70710678 -0.70710678 0.00000000
vn -0.70710678 -0.70710678 0.00000000
vn 0.70710678 0.00000000 -0.70710678
vn 0.70710678 0.00000000 -0.70710678
vn 0.70710678 0.00000000 -0.70710678
vn 0.70710678 0.00000000 -0.70710678
vn 0.00000000 -1.00000000 0.00000000
vn 0.00000000 -1.00000000 0.00000000
vn 0.00000000 -1.00000000 0.00000000
vn 0.00000000 -1.00000000 0.00000000
vn 0.57735027 0.57735027 0.57735027
vn 0.57735027 0.57735027 0.57735027
vn 0.57735027 0.57735027 0.57735027
vn 1.00000000 0.00000000 0.00000000
vn 1.00000000 0.00000000 0.00000000
vn 1.00000000 0.00000000 0.00000000
vn 1.00000000 0.00000000 0.00000000
vn -0.00000000 -0.70710678 0.70710678
vn -0.00000000 -0.70710678 0.70710678
vn -0.00000000 -0.70710678 0.70710678
vn -0.00000000 -0.70710678 0.70710678
vn -0.57735027 -0.57735027 0.57735027
vn -0.57735027 -0.57735027 0.57735027
vn -0.57735027 -0.57735027 0.57735027
vn -1.00000000 0.00000000 0.00000000
vn -1.00000000 0.00000000 0.00000000
vn -1.00000000 0.00000000 0.00000000
vn -1.00000000 0.00000000 0.00000000
vn -0.70710678 0.70710678 0.00000000
vn -0.70710678 0.70710678 0.00000000
vn -0.70710678 0.70710678 0.00000000
vn -0.70710678 0.70710678 0.00000000
vn 0.00000000 0.70710678 0.70710678
vn 0.00000000 0.70710678 0.70710678
vn 0.00000000 0.70710678 0.70710678
vn 0.00000000 0.70710678 0.70710678
s 1
usemtl Fabric_1
f 1/1/1 2/2/2 3/3/3
s 2
f 2/7/7 1/6/6 4/4/4
f 1/6/6 5/5/5 4/4/4
s 3
f 6/8/8 2/9/9 7/11/11
f 2/9/9 4/10/10 7/11/11
s 4
f 7/12/12 8/13/13 6/15/15
f 8/13/13 9/14/14 6/15/15
s 5
f 10/18/18 8/17/17 7/16/16
s 6
f 8/19/19 10/20/20 12/22/22
f 10/20/20 11/21/21 12/22/22
s 7
f 13/25/25 12/24/24 11/23/23
s 8
f 13/26/26 11/27/27 15/29/29
f 11/27/27 14/28/28 15/29/29
s 9
f 13/30/30 15/31/31 17/33/33
f 15/31/31 16/32/32 17/33/33
s 10
f 18/34/34 17/35/35 19/37/37
f 17/35/35 16/36/36 19/37/37
s 11
f 20/40/40 17/39/39 18/38/38
s 12
f 21/41/41 9/42/42 20/43/43
f 21/41/41 20/43/43 18/44/44
s 13
f 18/48/48 19/47/47 21/45/45
f 19/47/47 3/46/46 21/45/45
s 14
f 19/49/49 16/50/50 22/51/51
s 15
f 22/55/55 16/54/54 23/52/52
f 16/54/54 15/53/53 23/52/52
s 16
f 14/56/56 23/57/57 15/58/58
s 17
f 23/62/62 14/61/61 24/60/60
f 23/62/62 24/60/60 5/59/59
s 18
f 12/63/63 13/64/64 20/66/66
f 13/64/64 17/65/65 20/66/66
s 19
f 10/67/67 24/68/68 11/70/70
f 24/68/68 14/69/69 11/70/70
s 20
f 21/73/73 6/72/72 9/71/71
s 21
f 20/77/77 9/76/76 12/74/74
f 9/76/76 8/75/75 12/74/74
s 22
f 10/78/78 7/79/79 24/81/81
f 7/79/79 4/80/80 24/81/81
s 23
f 4/82/82 5/83/83 24/84/84
s 24
f 23/85/85 5/86/86 22/88/88
f 5/86/86 1/87/87 22/88/88
s 25
f 19/92/92 22/91/91 3/89/89
f 22/91/91 1/90/90 3/89/89
s 26
f 2/93/93 6/94/94 21/95/95
f 2/93/93 21/95/95 3/96/96
o object2
g object2
v 0.50000000 0.00000000 0.47500000
v -0.50000000 0.00000000 0.47500000
v -0.50000000 0.00000000 -0.35000000
v -0.50000000 0.00000000 -0.47500000
v 0.50000000 0.00000000 -0.47500000
v -0.50000000 0.02500000 0.50000000
v 0.50000000 0.02500000 0.50000000
v -0.50000000 0.25000000 0.50000000
v 0.50000000 0.25000000 0.50000000
v -0.50000000 0.27500000 0.47500000
v 0.50000000 0.27500000 0.47500000
v 0.50000000 0.27500000 -0.35000000
v -0.50000000 0.27500000 -0.35000000
v -0.50000000 0.72761712 -0.39764391
v 0.50000000 0.72761712 -0.39764391
v 0.50000000 0.75000000 -0.42250654
v -0.50000000 0.75000000 -0.42250654
v -0.50000000 0.75000000 -0.47500000
v 0.50000000 0.75000000 -0.47500000
v 0.50000000 0.72500000 -0.50000000
v -0.50000000 0.72500000 -0.50000000
v -0.50000000 0.02500000 -0.50000000
v 0.50000000 0.02500000 -0.50000000
vt 0.00000000 1.00000000
vt 0.00000000 0.00000000
vt 0.86842105 0.00000000
vt 1.00000000 0.00000000
vt 1.00000000 1.00000000
vt 0.00000000 1.00000000
vt 0.00000000 0.00000000
vt 1.00000000 0.00000000
vt 1.00000000 1.00000000
vt 0.00000000 0.00000000
vt 1.00000000 0.00000000
vt 1.00000000 1.00000000
vt 0.00000000 1.00000000
vt 0.00000000 1.00000000
vt 0.00000000 0.00000000
vt 1.00000000 0.00000000
vt 1.00000000 1.00000000
vt 1.00000000 1.00000000
vt 0.00000000 1.00000000
vt 0.00000000 0.00000000
vt 1.00000000 0.00000000
vt 1.00000000 0.00000000
vt 1.00000000 1.00000000
vt 0.00000000 1.00000000
vt 0.00000000 0.00000000
vt 0.00000000 1.00000000
vt 0.00000000 0.00000000
vt 1.00000000 0.00000000
vt 1.00000000 1.00000000
vt 1.00000000 1.00000000
vt 0.00000000 1.00000000
vt 0.00000000 0.00000000
vt 1.00000000 0.00000000
vt 0.00000000 1.00000000
vt 0.00000000 0.00000000
vt 1.00000000 0.00000000
vt 1.00000000 1.00000000
vt 1.00000000 1.00000000
vt 0.00000000 1.00000000
vt 0.00000000 0.00000000
vt 1.00000000 0.00000000
vt 0.00000000 0.02500000
vt 0.03333333 0.00000000
vt 0.33333333 0.00000000
vt 0.36666667 0.02500000
vt 0.36666667 0.85000000
vt 0.97015616 0.89764391
vt 1.00000000 0.92250654
vt 1.00000000 0.97500000
vt 0.96666667 1.00000000
vt 0.03333333 1.00000000
vt 0.00000000 0.97500000
vt 0.00000000 1.00000000
vt 0.00000000 0.00000000
vt 1.00000000 0.00000000
vt 1.00000000 1.00000000
vt 0.00000000 0.02500000
vt 0.03333333 0.00000000
vt 0.33333333 0.00000000
vt 0.36666667 0.02500000
vt 0.36666667 0.85000000
vt 0.97015616 0.89764391
vt 1.00000000 0.92250654
vt 1.00000000 0.97500000
vt 0.96666667 1.00000000
vt 0.03333333 1.00000000
vt 0.00000000 0.97500000
vt 0.00000000 0.85000000
vn 0.00000000 -1.00000000 0.00000000
vn 0.00000000 -1.00000000 0.00000000
vn 0.00000000 -1.00000000 0.00000000
vn 0.00000000 -1.00000000 0.00000000
vn 0.00000000 -1.00000000 0.00000000
vn 0.00000000 -0.70710678 0.70710678
vn 0.00000000 -0.70710678 0.70710678
vn 0.00000000 -0.70710678 0.70710678
vn 0.00000000 -0.70710678 0.70710678
vn 0.00000000 0.00000000 1.00000000
vn 0.00000000 0.00000000 1.00000000
vn 0.00000000 0.00000000 1.00000000
vn 0.00000000 0.00000000 1.00000000
vn 0.00000000 0.70710678 0.70710678
vn 0.00000000 0.70710678 0.70710678
vn 0.00000000 0.70710678 0.70710678
vn 0.00000000 0.70710678 0.70710678
vn 0.00000000 1.00000000 0.00000000
vn 0.00000000 1.00000000 0.00000000
vn 0.00000000 1.00000000 0.00000000
vn 0.00000000 1.00000000 0.00000000
vn -0.00000000 0.10468478 0.99450545
vn -0.00000000 0.10468478 0.99450545
vn -0.00000000 0.10468478 0.99450545
vn -0.00000000 0.10468478 0.99450545
vn -0.00000000 0.74319741 0.66907220
vn -0.00000000 0.74319741 0.66907220
vn -0.00000000 0.74319741 0.66907220
vn -0.00000000 0.74319741 0.66907220
vn 0.00000000 1.00000000 0.00000000
vn 0.00000000 1.00000000 0.00000000
vn 0.00000000 1.00000000 0.00000000
vn 0.00000000 1.00000000 0.00000000
vn 0.00000000 0.70710678 -0.70710678
vn 0.00000000 0.70710678 -0.70710678
vn 0.00000000 0.70710678 -0.70710678
vn 0.00000000 0.70710678 -0.70710678
vn 0.00000000 0.00000000 -1.00000000
vn 0.00000000 0.00000000 -1.00000000
vn 0.00000000 0.00000000 -1.00000000
vn 0.00000000 0.00000000 -1.00000000
vn 1.00000000 0.00000000 0.00000000
vn 1.00000000 0.00000000 0.00000000
vn 1.00000000 0.00000000 0.00000000
vn 1.00000000 0.00000000 0.00000000
vn 1.00000000 0.00000000 0.00000000
vn 1.00000000 0.00000000 0.00000000
vn 1.00000000 0.00000000 0.00000000
vn 1.00000000 0.00000000 0.00000000
vn 1.00000000 0.00000000 0.00000000
vn 1.00000000 0.00000000 0.00000000
vn 1.00000000 0.00000000 0.00000000
vn 0.00000000 -0.70710678 -0.70710678
vn 0.00000000 -0.70710678 -0.70710678
vn 0.00000000 -0.70710678 -0.70710678
vn 0.00000000 -0.70710678 -0.70710678
vn -1.00000000 0.00000000 0.00000000
vn -1.00000000 0.00000000 0.00000000
vn -1.00000000 0.00000000 0.00000000
vn -1.00000000 0.00000000 0.00000000
vn -1.00000000 0.00000000 0.00000000
vn -1.00000000 0.00000000 0.00000000
vn -1.00000000 0.00000000 0.00000000
vn -1.00000000 0.00000000 0.00000000
vn -1.00000000 0.00000000 0.00000000
vn -1.00000000 0.00000000 0.00000000
vn -1.00000000 0.00000000 0.00000000
vn -1.00000000 0.00000000 0.00000000
s 1
usemtl Fabric_2
f 25/97/97 26/98/98 27/99/99
f 27/99/99 28/100/100 29/101/101
f 29/101/101 25/97/97 27/99/99
s 2
f 30/102/102 26/103/103 25/104/104
f 30/102/102 25/104/104 31/105/105
s 3
f 31/109/109 33/108/108 30/106/106
f 33/108/108 32/107/107 30/106/106
s 4
f 34/110/110 32/111/111 33/112/112
f 34/110/110 33/112/112 35/113/113
s 5
f 37/117/117 34/116/116 35/115/115
f 37/117/117 35/115/115 36/114/114
s 6
f 36/121/121 39/120/120 37/118/118
f 39/120/120 38/119/119 37/118/118
s 7
f 39/122/122 40/123/123 38/125/125
f 40/123/123 41/124/124 38/125/125
s 8
f 42/126/126 41/127/127 40/128/128
f 42/126/126 40/128/128 43/129/129
s 9
f 43/130/130 44/131/131 42/133/133
f 44/131/131 45/132/132 42/133/133
s 10
f 44/137/137 47/136/136 45/134/134
f 47/136/136 46/135/135 45/134/134
s 11
f 43/145/145 40/144/144 39/143/143
f 44/146/146 39/143/143 36/142/142
f 47/147/147 36/142/142 35/141/141
f 35/141/141 33/140/140 29/148/148
f 33/140/140 25/138/138 29/148/148
f 33/140/140 31/139/139 25/138/138
f 29/148/148 47/147/147 35/141/141
f 47/147/147 44/146/146 36/142/142
f 44/146/146 43/145/145 39/143/143
s 12
f 47/149/149 29/150/150 46/152/152
f 29/150/150 28/151/151 46/152/152
s 13
f 38/158/158 41/159/159 42/160/160
f 37/157/157 38/158/158 45/161/161
f 34/156/156 37/157/157 46/162/162
f 46/162/162 28/163/163 27/164/164
f 27/164/164 26/153/153 32/155/155
f 26/153/153 30/154/154 32/155/155
f 34/156/156 46/162/162 27/164/164
f 27/164/164 32/155/155 34/156/156
f 37/157/157 45/161/161 46/162/162
f 38/158/158 42/160/160 45/161/161
o object3
g object3
v -0.46250000 0.48577709 -0.18229490
v -0.50000000 0.52267221 -0.18900311
v -0.50000000 0.50031153 -0.31198684
v -0.46250000 0.46341641 -0.30527864
v -0.46250000 0.52938041 -0.15210798
v -0.46250000 0.94752512 -0.22813430
v -0.50000000 0.94081692 -0.26502942
v -0.46250000 0.97771204 -0.27173762
v -0.46250000 0.95535136 -0.39472136
v -0.50000000 0.91845624 -0.38801316
v -0.46250000 0.91174804 -0.42490828
v 0.46250000 0.95535136 -0.39472136
v 0.46250000 0.91174804 -0.42490828
v -0.46250000 0.49360333 -0.34888197
v 0.46250000 0.49360333 -0.34888197
v 0.46250000 0.46341641 -0.30527864
v 0.50000000 0.50031153 -0.31198684
v 0.46250000 0.48577709 -0.18229490
v 0.50000000 0.52267221 -0.18900311
v 0.46250000 0.52938041 -0.15210798
v 0.46250000 0.94752512 -0.22813430
v 0.50000000 0.94081692 -0.26502942
v 0.46250000 0.97771204 -0.27173762
v 0.50000000 0.91845624 -0.38801316
vt 0.00000000 1.00000000
vt 0.00000000 0.00000000
vt 1.00000000 0.00000000
vt 1.00000000 1.00000000
vt 1.00000000 1.00000000
vt 0.00000000 0.50000000
vt 1.00000000 0.00000000
vt 0.00000000 1.00000000
vt 0.00000000 0.00000000
vt 1.00000000 0.00000000
vt 1.00000000 1.00000000
vt 1.00000000 1.00000000
vt 0.00000000 0.50000000
vt 1.00000000 0.00000000
vt 0.00000000 1.00000000
vt 0.00000000 0.00000000
vt 1.00000000 0.00000000
vt 1.00000000 1.00000000
vt 0.00000000 1.00000000
vt 0.00000000 0.00000000
vt 1.00000000 0.50000000
vt 1.00000000 1.00000000
vt 0.00000000 1.00000000
vt 0.00000000 0.00000000
vt 1.00000000 0.00000000
vt 0.00000000 1.00000000
vt 0.00000000 0.00000000
vt 1.00000000 0.00000000
vt 1.00000000 1.00000000
vt 0.00000000 0.00000000
vt 1.00000000 0.00000000
vt 1.00000000 1.00000000
vt 0.00000000 1.00000000
vt 0.00000000 0.00000000
vt 1.00000000 0.50000000
vt 0.00000000 1.00000000
vt 0.00000000 1.00000000
vt 0.00000000 0.00000000
vt 1.00000000 0.00000000
vt 1.00000000 1.00000000
vt 1.00000000 1.00000000
vt 0.00000000 0.50000000
vt 1.00000000 0.00000000
vt 0.00000000 1.00000000
vt 0.00000000 0.00000000
vt 1.00000000 0.00000000
vt 1.00000000 1.00000000
vt 1.00000000 1.00000000
vt 0.00000000 0.50000000
vt 1.00000000 0.00000000
vt 0.00000000 1.00000000
vt 0.00000000 0.00000000
vt 1.00000000 0.00000000
vt 1.00000000 1.00000000
vt 0.00000000 1.00000000
vt 0.00000000 0.00000000
vt 1.00000000 0.00000000
vt 1.00000000 1.00000000
vt 0.00000000 1.00000000
vt 0.00000000 0.00000000
vt 1.00000000 0.00000000
vt 1.00000000 1.00000000
vt 0.00000000 1.00000000
vt 0.00000000 0.00000000
vt 1.00000000 0.50000000
vt 0.00000000 1.00000000
vt 0.00000000 0.00000000
vt 1.00000000 0.00000000
vt 1.00000000 1.00000000
vt 0.00000000 0.00000000
vt 1.00000000 0.00000000
vt 1.00000000 1.00000000
vt 0.00000000 1.00000000
vt 1.00000000 0.00000000
vt 1.00000000 1.00000000
vt 0.00000000 1.00000000
vt 0.00000000 0.00000000
vt 0.00000000 0.00000000
vt 1.00000000 0.00000000
vt 1.00000000 1.00000000
vt 0.00000000 1.00000000
vt 1.00000000 1.00000000
vt 0.00000000 1.00000000
vt 0.00000000 0.00000000
vt 1.00000000 0.00000000
vt 0.00000000 1.00000000
vt 0.00000000 0.00000000
vt 1.00000000 0.00000000
vt 1.00000000 1.00000000
vt 0.00000000 0.00000000
vt 1.00000000 0.50000000
vt 0.00000000 1.00000000
vt 0.00000000 1.00000000
vt 0.00000000 0.00000000
vt 1.00000000 0.00000000
vt 1.00000000 1.00000000
vn -0.70710678 -0.69570109 0.12649111
vn -0.70710678 -0.69570109 0.12649111
vn -0.70710678 -0.69570109 0.12649111
vn -0.70710678 -0.69570109 0.12649111
vn -0.57735027 -0.46475800 0.67131711
vn -0.57735027 -0.46475800 0.67131711
vn -0.57735027 -0.46475800 0.67131711
vn -0.70710678 0.12649111 0.69570109
vn -0.70710678 0.12649111 0.69570109
vn -0.70710678 0.12649111 0.69570109
vn -0.70710678 0.12649111 0.69570109
vn -0.57735027 0.67131711 0.46475800
vn -0.57735027 0.67131711 0.46475800
vn -0.57735027 0.67131711 0.46475800
vn -0.70710678 0.69570109 -0.12649111
vn -0.70710678 0.69570109 -0.12649111
vn -0.70710678 0.69570109 -0.12649111
vn -0.70710678 0.69570109 -0.12649111
vn -0.57735027 0.46475800 -0.67131711
vn -0.57735027 0.46475800 -0.67131711
vn -0.57735027 0.46475800 -0.67131711
vn 0.00000000 0.56920998 -0.82219219
vn 0.00000000 0.56920998 -0.82219219
vn 0.00000000 0.56920998 -0.82219219
vn 0.00000000 0.56920998 -0.82219219
vn 0.00000000 -0.17888544 -0.98386991
vn 0.00000000 -0.17888544 -0.98386991
vn 0.00000000 -0.17888544 -0.98386991
vn 0.00000000 -0.17888544 -0.98386991
vn 0.00000000 -0.82219219 -0.56920998
vn 0.00000000 -0.82219219 -0.56920998
vn 0.00000000 -0.82219219 -0.56920998
vn 0.00000000 -0.82219219 -0.56920998
vn 0.57735027 -0.67131711 -0.46475800
vn 0.57735027 -0.67131711 -0.46475800
vn 0.57735027 -0.67131711 -0.46475800
vn 0.70710678 -0.69570109 0.12649111
vn 0.70710678 -0.69570109 0.12649111
vn 0.70710678 -0.69570109 0.12649111
vn 0.70710678 -0.69570109 0.12649111
vn 0.57735027 -0.46475800 0.67131711
vn 0.57735027 -0.46475800 0.67131711
vn 0.57735027 -0.46475800 0.67131711
vn 0.70710678 0.12649111 0.69570109
vn 0.70710678 0.12649111 0.69570109
vn 0.70710678 0.12649111 0.69570109
vn 0.70710678 0.12649111 0.69570109
vn 0.57735027 0.67131711 0.46475800
vn 0.57735027 0.67131711 0.46475800
vn 0.57735027 0.67131711 0.46475800
vn 0.70710678 0.69570109 -0.12649111
vn 0.70710678 0.69570109 -0.12649111
vn 0.70710678 0.69570109 -0.12649111
vn 0.70710678 0.69570109 -0.12649111
vn 1.00000000 0.00000000 -0.00000000
vn 1.00000000 0.00000000 -0.00000000
vn 1.00000000 0.00000000 -0.00000000
vn 1.00000000 0.00000000 -0.00000000
vn 0.70710678 -0.12649111 -0.69570109
vn 0.70710678 -0.12649111 -0.69570109
vn 0.70710678 -0.12649111 -0.69570109
vn 0.70710678 -0.12649111 -0.69570109
vn 0.57735027 0.46475800 -0.67131711
vn 0.57735027 0.46475800 -0.67131711
vn 0.57735027 0.46475800 -0.67131711
vn -0.70710678 -0.12649111 -0.69570109
vn -0.70710678 -0.12649111 -0.69570109
vn -0.70710678 -0.12649111 -0.69570109
vn -0.70710678 -0.12649111 -0.69570109
vn 0.00000000 0.98386991 -0.17888544
vn 0.00000000 0.98386991 -0.17888544
vn 0.00000000 0.98386991 -0.17888544
vn 0.00000000 0.98386991 -0.17888544
vn 0.00000000 0.82219219 0.56920998
vn 0.00000000 0.82219219 0.56920998
vn -0.00000000 0.82219219 0.56920998
vn -0.00000000 0.82219219 0.56920998
vn 0.00000000 0.17888544 0.98386991
vn -0.00000000 0.17888544 0.98386991
vn -0.00000000 0.17888544 0.98386991
vn 0.00000000 0.17888544 0.98386991
vn 0.00000000 -0.56920998 0.82219219
vn 0.00000000 -0.56920998 0.82219219
vn 0.00000000 -0.56920998 0.82219219
vn 0.00000000 -0.56920998 0.82219219
vn -0.00000000 -0.98386991 0.17888544
vn -0.00000000 -0.98386991 0.17888544
vn 0.00000000 -0.98386991 0.17888544
vn 0.00000000 -0.98386991 0.17888544
vn -0.57735027 -0.67131711 -0.46475800
vn -0.57735027 -0.67131711 -0.46475800
vn -0.57735027 -0.67131711 -0.46475800
vn -1.00000000 0.00000000 -0.00000000
vn -1.00000000 0.00000000 -0.00000000
vn -1.00000000 0.00000000 -0.00000000
vn -1.00000000 0.00000000 -0.00000000
s 1
usemtl Fabric_1
f 48/165/165 49/166/166 51/168/168
f 49/166/166 50/167/167 51/168/168
s 2
f 48/171/171 52/170/170 49/169/169
s 3
f 49/172/172 52/173/173 53/174/174
f 49/172/172 53/174/174 54/175/175
s 4
f 54/178/178 53/177/177 55/176/176
s 5
f 54/179/179 55/180/180 56/181/181
f 54/179/179 56/181/181 57/182/182
s 6
f 58/185/185 57/184/184 56/183/183
s 7
f 58/186/186 56/187/187 59/188/188
f 58/186/186 59/188/188 60/189/189
s 8
f 58/193/193 60/192/192 62/191/191
f 58/193/193 62/191/191 61/190/190
s 9
f 51/197/197 61/196/196 62/195/195
f 51/197/197 62/195/195 63/194/194
s 10
f 63/198/198 62/199/199 64/200/200
s 11
f 63/204/204 64/203/203 66/202/202
f 63/204/204 66/202/202 65/201/201
s 12
f 66/205/205 67/206/206 65/207/207
s 13
f 69/211/211 68/210/210 66/208/208
f 68/210/210 67/209/209 66/208/208
s 14
f 70/212/212 68/213/213 69/214/214
s 15
f 71/218/218 59/217/217 69/215/215
f 59/217/217 70/216/216 69/215/215
s 16
f 71/222/222 69/221/221 64/219/219
f 69/221/221 66/220/220 64/219/219
s 17
f 60/226/226 71/225/225 64/224/224
f 60/226/226 64/224/224 62/223/223
s 18
f 59/227/227 71/228/228 60/229/229
s 19
f 61/230/230 50/231/231 58/233/233
f 50/231/231 57/232/232 58/233/233
s 20
f 70/237/237 59/236/236 55/234/234
f 59/236/236 56/235/235 55/234/234
s 21
f 70/238/238 55/239/239 68/241/241
f 55/239/239 53/240/240 68/241/241
s 22
f 67/242/242 68/243/243 52/245/245
f 68/243/243 53/244/244 52/245/245
s 23
f 65/249/249 67/248/248 48/246/246
f 67/248/248 52/247/247 48/246/246
s 24
f 65/250/250 48/251/251 63/253/253
f 48/251/251 51/252/252 63/253/253
s 25
f 50/256/256 61/255/255 51/254/254
s 26
f 50/257/257 49/258/258 57/260/260
f 49/258/258 54/259/259 57/260/260
