mtllib Prop_Misc_Rug_Square.mtl
o object1
g object1
v -0.20000000 0.00625000 -0.20000000
v -0.18750000 0.01250000 -0.18750000
v -0.18750000 0.01250000 0.18750000
v -0.20000000 0.00625000 0.20000000
v 0.20000000 0.00625000 0.20000000
v 0.18750000 0.01250000 0.18750000
v 0.21250000 0.01250000 0.21250000
v -0.21250000 0.01250000 0.21250000
v 0.21250000 0.01250000 -0.21250000
v 0.20000000 0.00625000 -0.20000000
v 0.21250000 0.01250000 -0.00000000
v -0.21250000 0.01250000 -0.21250000
v -0.21250000 0.01250000 -0.00000000
v -0.33750000 0.01250000 -0.00000000
v -0.33750000 0.01250000 -0.33750000
v 0.33750000 0.01250000 -0.33750000
v 0.33750000 0.01250000 -0.00000000
v 0.33750000 0.01250000 0.33750000
v -0.33750000 0.01250000 0.33750000
v -0.35000000 0.00625000 -0.35000000
v -0.35000000 0.00625000 0.35000000
v -0.36250000 0.01250000 -0.36250000
v -0.36250000 0.01250000 0.36250000
v -0.36250000 0.01250000 -0.00000000
v 0.35000000 0.00625000 0.35000000
v 0.36250000 0.01250000 0.36250000
v 0.36250000 0.01250000 -0.36250000
v 0.35000000 0.00625000 -0.35000000
v 0.36250000 0.01250000 -0.00000000
v 0.47500000 0.01250000 -0.00000000
v 0.47500000 0.01250000 0.42742311
v 0.46635806 0.01250000 0.44828660
v 0.44828660 0.01250000 0.46635806
v 0.42742311 0.01250000 0.47500000
v -0.42742311 0.01250000 0.47500000
v -0.44828660 0.01250000 0.46635806
v -0.46635806 0.01250000 0.44828660
v -0.47500000 0.01250000 0.42742311
v -0.47500000 0.01250000 -0.00000000
v -0.47500000 0.01250000 -0.42742311
v -0.46635806 0.01250000 -0.44828660
v -0.44828660 0.01250000 -0.46635806
v -0.42742311 0.01250000 -0.47500000
v 0.42742311 0.01250000 -0.47500000
v 0.44828660 0.01250000 -0.46635806
v 0.46635806 0.01250000 -0.44828660
v 0.47500000 0.01250000 -0.42742311
v -0.46244796 -0.00000000 0.48755204
v -0.43239592 0.00000000 0.50000000
v 0.48755204 -0.00000000 -0.46244796
v 0.46244796 0.00000000 -0.48755204
v 0.43239592 0.00000000 -0.50000000
v -0.43239592 0.00000000 -0.50000000
v -0.46244796 0.00000000 -0.48755204
v -0.48755204 -0.00000000 -0.46244796
v -0.50000000 0.00000000 -0.43239592
v -0.50000000 -0.00000000 0.43239592
v -0.48755204 -0.00000000 0.46244796
v 0.43239592 0.00000000 0.50000000
v 0.46244796 -0.00000000 0.48755204
v 0.48755204 -0.00000000 0.46244796
v 0.50000000 -0.00000000 0.43239592
v 0.50000000 0.00000000 -0.43239592
v 0.18750000 0.01250000 -0.18750000
vt 0.00000000 1.00000000
vt 0.03125000 0.00000000
vt 0.96875000 0.00000000
vt 1.00000000 1.00000000
vt 0.00000000 0.00000000
vt 1.00000000 0.00000000
vt 0.96875000 1.00000000
vt 0.03125000 1.00000000
vt 1.00000000 0.00000000
vt 0.97058824 1.00000000
vt 0.02941176 1.00000000
vt 0.00000000 0.00000000
vt 0.00000000 1.00000000
vt 0.02941176 0.00000000
vt 0.97058824 0.00000000
vt 1.00000000 1.00000000
vt 0.50000000 1.00000000
vt 0.02941176 0.00000000
vt 0.97058824 0.00000000
vt 1.00000000 1.00000000
vt 0.00000000 1.00000000
vt 0.81481481 0.50000000
vt 0.81481481 0.18518519
vt 0.18518519 0.18518519
vt 0.18518519 0.50000000
vt 0.00000000 0.50000000
vt 0.00000000 0.00000000
vt 1.00000000 0.00000000
vt 1.00000000 0.50000000
vt 0.18518519 0.81481481
vt 0.81481481 0.81481481
vt 1.00000000 1.00000000
vt 0.00000000 1.00000000
vt 0.00000000 1.00000000
vt 0.01785714 0.00000000
vt 0.98214286 0.00000000
vt 1.00000000 1.00000000
vt 0.50000000 0.00000000
vt 0.00000000 1.00000000
vt 0.01724138 0.00000000
vt 0.98275862 0.00000000
vt 1.00000000 1.00000000
vt 0.50000000 1.00000000
vt 0.00000000 0.00000000
vt 1.00000000 0.01724138
vt 1.00000000 0.98275862
vt 0.00000000 1.00000000
vt 0.00000000 1.00000000
vt 0.01724138 0.00000000
vt 0.98275862 0.00000000
vt 1.00000000 1.00000000
vt 0.50000000 1.00000000
vt 0.50000000 0.11842105
vt 0.11842105 0.11842105
vt 0.11842105 0.88157895
vt 0.50000000 0.88157895
vt 0.50000000 1.00000000
vt 0.05008093 1.00000000
vt 0.02811937 0.99090322
vt 0.00909678 0.97188063
vt 0.00000000 0.94991907
vt 0.00000000 0.05008093
vt 0.00909678 0.02811937
vt 0.02811937 0.00909678
vt 0.05008093 0.00000000
vt 0.50000000 0.00000000
vt 0.88157895 0.88157895
vt 0.88157895 0.11842105
vt 0.94991907 0.00000000
vt 0.97188063 0.00909678
vt 0.99090322 0.02811937
vt 1.00000000 0.05008093
vt 1.00000000 0.94991907
vt 0.99090322 0.97188063
vt 0.97188063 0.99090322
vt 0.94991907 1.00000000
vt 0.00000000 1.00000000
vt 0.15287737 0.00000000
vt 0.84712263 0.00000000
vt 1.00000000 1.00000000
vt 0.96244796 0.01244796
vt 0.98755204 0.03755204
vt 1.00000000 0.06760408
vt 1.00000000 0.93239592
vt 0.98755204 0.96244796
vt 0.96244796 0.98755204
vt 0.93239592 1.00000000
vt 0.06760408 1.00000000
vt 0.03755204 0.98755204
vt 0.01244796 0.96244796
vt 0.00000000 0.93239592
vt 0.00000000 0.06760408
vt 0.01244796 0.03755204
vt 0.03755204 0.01244796
vt 0.06760408 0.00000000
vt 0.93239592 0.00000000
vt 0.00000000 1.00000000
vt 0.14006917 0.00000000
vt 0.85993083 0.00000000
vt 1.00000000 1.00000000
vt 0.00000000 1.00000000
vt 0.15287737 0.00000000
vt 0.84712263 0.00000000
vt 1.00000000 1.00000000
vt 0.00000000 1.00000000
vt 0.00575030 0.00000000
vt 0.99424970 0.00000000
vt 1.00000000 1.00000000
vt 0.50000000 0.00000000
vt 0.00000000 1.00000000
vt 0.15287737 0.00000000
vt 0.84712263 0.00000000
vt 1.00000000 1.00000000
vt 0.00000000 1.00000000
vt 0.14006917 0.00000000
vt 0.85993083 0.00000000
vt 1.00000000 1.00000000
vt 0.00000000 1.00000000
vt 0.15287737 0.00000000
vt 0.84712263 0.00000000
vt 1.00000000 1.00000000
vt 0.00000000 0.00575030
vt 1.00000000 0.00000000
vt 1.00000000 1.00000000
vt 0.00000000 0.99424970
vt 0.00000000 1.00000000
vt 0.15287737 0.00000000
vt 0.84712263 0.00000000
vt 1.00000000 1.00000000
vt 0.00000000 1.00000000
vt 0.14006917 0.00000000
vt 0.85993083 0.00000000
vt 1.00000000 1.00000000
vt 0.00000000 1.00000000
vt 0.15287737 0.00000000
vt 0.84712263 0.00000000
vt 1.00000000 1.00000000
vt 0.00000000 1.00000000
vt 0.00575030 0.00000000
vt 0.99424970 0.00000000
vt 1.00000000 1.00000000
vt 0.50000000 0.00000000
vt 0.00000000 1.00000000
vt 0.15287737 0.00000000
vt 0.84712263 0.00000000
vt 1.00000000 1.00000000
vt 0.00000000 1.00000000
vt 0.14006917 0.00000000
vt 0.85993083 0.00000000
vt 1.00000000 1.00000000
vt 0.00000000 1.00000000
vt 0.15287737 0.00000000
vt 0.84712263 0.00000000
vt 1.00000000 1.00000000
vt 0.00000000 0.00000000
vt 1.00000000 0.00575030
vt 1.00000000 0.99424970
vt 0.00000000 1.00000000
vt 0.00000000 0.01724138
vt 1.00000000 0.00000000
vt 1.00000000 1.00000000
vt 0.00000000 0.98275862
vt 0.01785714 0.00000000
vt 0.98214286 0.00000000
vt 1.00000000 1.00000000
vt 0.00000000 1.00000000
vt 0.00000000 1.00000000
vt 0.01785714 0.00000000
vt 0.98214286 0.00000000
vt 1.00000000 1.00000000
vt 0.50000000 0.00000000
vt 0.00000000 0.00000000
vt 1.00000000 0.00000000
vt 0.98214286 1.00000000
vt 0.01785714 1.00000000
vt 0.00000000 1.00000000
vt 0.03125000 0.00000000
vt 0.96875000 0.00000000
vt 1.00000000 1.00000000
vt 0.00000000 1.00000000
vt 0.02941176 0.00000000
vt 0.97058824 0.00000000
vt 1.00000000 1.00000000
vt 0.50000000 1.00000000
vt 0.03125000 0.00000000
vt 0.96875000 0.00000000
vt 1.00000000 1.00000000
vt 0.00000000 1.00000000
vt 0.00000000 0.00000000
vt 1.00000000 0.00000000
vt 1.00000000 1.00000000
vt 0.00000000 1.00000000
vn -0.44721360 0.89442719 0.00000000
vn -0.44721360 0.89442719 0.00000000
vn -0.44721360 0.89442719 0.00000000
vn -0.44721360 0.89442719 0.00000000
vn 0.00000000 0.89442719 0.44721360
vn 0.00000000 0.89442719 0.44721360
vn 0.00000000 0.89442719 0.44721360
vn 0.00000000 0.89442719 0.44721360
vn 0.00000000 0.89442719 -0.44721360
vn 0.00000000 0.89442719 -0.44721360
vn 0.00000000 0.89442719 -0.44721360
vn 0.00000000 0.89442719 -0.44721360
vn -0.44721360 0.89442719 0.00000000
vn -0.44721360 0.89442719 0.00000000
vn -0.44721360 0.89442719 0.00000000
vn -0.44721360 0.89442719 0.00000000
vn -0.44721360 0.89442719 0.00000000
vn 0.00000000 0.89442719 0.44721360
vn 0.00000000 0.89442719 0.44721360
vn 0.00000000 0.89442719 0.44721360
vn 0.00000000 0.89442719 0.44721360
vn 0.00000000 1.00000000 0.00000000
vn 0.00000000 1.00000000 0.00000000
vn 0.00000000 1.00000000 0.00000000
vn 0.00000000 1.00000000 0.00000000
vn 0.00000000 1.00000000 0.00000000
vn 0.00000000 1.00000000 0.00000000
vn 0.00000000 1.00000000 0.00000000
vn 0.00000000 1.00000000 0.00000000
vn 0.00000000 1.00000000 0.00000000
vn 0.00000000 1.00000000 0.00000000
vn 0.00000000 1.00000000 0.00000000
vn 0.00000000 1.00000000 0.00000000
vn -0.44721360 0.89442719 0.00000000
vn -0.44721360 0.89442719 0.00000000
vn -0.44721360 0.89442719 0.00000000
vn -0.44721360 0.89442719 0.00000000
vn -0.44721360 0.89442719 0.00000000
vn 0.44721360 0.89442719 0.00000000
vn 0.44721360 0.89442719 0.00000000
vn 0.44721360 0.89442719 0.00000000
vn 0.44721360 0.89442719 0.00000000
vn 0.44721360 0.89442719 0.00000000
vn -0.00000000 0.89442719 -0.44721360
vn -0.00000000 0.89442719 -0.44721360
vn -0.00000000 0.89442719 -0.44721360
vn -0.00000000 0.89442719 -0.44721360
vn -0.44721360 0.89442719 0.00000000
vn -0.44721360 0.89442719 0.00000000
vn -0.44721360 0.89442719 0.00000000
vn -0.44721360 0.89442719 0.00000000
vn -0.44721360 0.89442719 0.00000000
vn 0.00000000 1.00000000 0.00000000
vn 0.00000000 1.00000000 0.00000000
vn 0.00000000 1.00000000 0.00000000
vn 0.00000000 1.00000000 0.00000000
vn 0.00000000 1.00000000 0.00000000
vn 0.00000000 1.00000000 0.00000000
vn 0.00000000 1.00000000 0.00000000
vn 0.00000000 1.00000000 0.00000000
vn 0.00000000 1.00000000 0.00000000
vn 0.00000000 1.00000000 0.00000000
vn 0.00000000 1.00000000 0.00000000
vn 0.00000000 1.00000000 0.00000000
vn 0.00000000 1.00000000 0.00000000
vn 0.00000000 1.00000000 0.00000000
vn 0.00000000 1.00000000 0.00000000
vn 0.00000000 1.00000000 0.00000000
vn 0.00000000 1.00000000 0.00000000
vn 0.00000000 1.00000000 0.00000000
vn 0.00000000 1.00000000 0.00000000
vn 0.00000000 1.00000000 0.00000000
vn 0.00000000 1.00000000 0.00000000
vn 0.00000000 1.00000000 0.00000000
vn 0.00000000 1.00000000 0.00000000
vn 0.00000000 1.00000000 0.00000000
vn -0.17114123 0.89442719 0.41317149
vn -0.17114123 0.89442719 0.41317149
vn -0.17114123 0.89442719 0.41317149
vn -0.17114123 0.89442719 0.41317149
vn 0.00000000 -1.00000000 -0.00000000
vn 0.00000000 -1.00000000 -0.00000000
vn 0.00000000 -1.00000000 -0.00000000
vn 0.00000000 -1.00000000 -0.00000000
vn 0.00000000 -1.00000000 -0.00000000
vn 0.00000000 -1.00000000 -0.00000000
vn 0.00000000 -1.00000000 -0.00000000
vn 0.00000000 -1.00000000 -0.00000000
vn 0.00000000 -1.00000000 -0.00000000
vn 0.00000000 -1.00000000 -0.00000000
vn 0.00000000 -1.00000000 -0.00000000
vn 0.00000000 -1.00000000 -0.00000000
vn 0.00000000 -1.00000000 -0.00000000
vn 0.00000000 -1.00000000 -0.00000000
vn 0.00000000 -1.00000000 -0.00000000
vn 0.00000000 -1.00000000 -0.00000000
vn -0.31622777 0.89442719 0.31622777
vn -0.31622777 0.89442719 0.31622777
vn -0.31622777 0.89442719 0.31622777
vn -0.31622777 0.89442719 0.31622777
vn -0.41317149 0.89442719 0.17114123
vn -0.41317149 0.89442719 0.17114123
vn -0.41317149 0.89442719 0.17114123
vn -0.41317149 0.89442719 0.17114123
vn -0.44721360 0.89442719 0.00000000
vn -0.44721360 0.89442719 0.00000000
vn -0.44721360 0.89442719 0.00000000
vn -0.44721360 0.89442719 0.00000000
vn -0.44721360 0.89442719 0.00000000
vn -0.41317149 0.89442719 -0.17114123
vn -0.41317149 0.89442719 -0.17114123
vn -0.41317149 0.89442719 -0.17114123
vn -0.41317149 0.89442719 -0.17114123
vn -0.31622777 0.89442719 -0.31622777
vn -0.31622777 0.89442719 -0.31622777
vn -0.31622777 0.89442719 -0.31622777
vn -0.31622777 0.89442719 -0.31622777
vn -0.17114123 0.89442719 -0.41317149
vn -0.17114123 0.89442719 -0.41317149
vn -0.17114123 0.89442719 -0.41317149
vn -0.17114123 0.89442719 -0.41317149
vn -0.00000000 0.89442719 -0.44721360
vn -0.00000000 0.89442719 -0.44721360
vn -0.00000000 0.89442719 -0.44721360
vn -0.00000000 0.89442719 -0.44721360
vn 0.17114123 0.89442719 -0.41317149
vn 0.17114123 0.89442719 -0.41317149
vn 0.17114123 0.89442719 -0.41317149
vn 0.17114123 0.89442719 -0.41317149
vn 0.31622777 0.89442719 -0.31622777
vn 0.31622777 0.89442719 -0.31622777
vn 0.31622777 0.89442719 -0.31622777
vn 0.31622777 0.89442719 -0.31622777
vn 0.41317149 0.89442719 -0.17114123
vn 0.41317149 0.89442719 -0.17114123
vn 0.41317149 0.89442719 -0.17114123
vn 0.41317149 0.89442719 -0.17114123
vn 0.44721360 0.89442719 0.00000000
vn 0.44721360 0.89442719 0.00000000
vn 0.44721360 0.89442719 0.00000000
vn 0.44721360 0.89442719 0.00000000
vn 0.44721360 0.89442719 0.00000000
vn 0.41317149 0.89442719 0.17114123
vn 0.41317149 0.89442719 0.17114123
vn 0.41317149 0.89442719 0.17114123
vn 0.41317149 0.89442719 0.17114123
vn 0.31622777 0.89442719 0.31622777
vn 0.31622777 0.89442719 0.31622777
vn 0.31622777 0.89442719 0.31622777
vn 0.31622777 0.89442719 0.31622777
vn 0.17114123 0.89442719 0.41317149
vn 0.17114123 0.89442719 0.41317149
vn 0.17114123 0.89442719 0.41317149
vn 0.17114123 0.89442719 0.41317149
vn 0.00000000 0.89442719 0.44721360
vn -0.00000000 0.89442719 0.44721360
vn -0.00000000 0.89442719 0.44721360
vn 0.00000000 0.89442719 0.44721360
vn 0.00000000 0.89442719 0.44721360
vn 0.00000000 0.89442719 0.44721360
vn 0.00000000 0.89442719 0.44721360
vn 0.00000000 0.89442719 0.44721360
vn 0.00000000 0.89442719 -0.44721360
vn 0.00000000 0.89442719 -0.44721360
vn 0.00000000 0.89442719 -0.44721360
vn 0.00000000 0.89442719 -0.44721360
vn 0.44721360 0.89442719 0.00000000
vn 0.44721360 0.89442719 0.00000000
vn 0.44721360 0.89442719 0.00000000
vn 0.44721360 0.89442719 0.00000000
vn 0.44721360 0.89442719 0.00000000
vn 0.00000000 0.89442719 0.44721360
vn 0.00000000 0.89442719 0.44721360
vn 0.00000000 0.89442719 0.44721360
vn 0.00000000 0.89442719 0.44721360
vn 0.44721360 0.89442719 0.00000000
vn 0.44721360 0.89442719 0.00000000
vn 0.44721360 0.89442719 0.00000000
vn 0.44721360 0.89442719 0.00000000
vn 0.44721360 0.89442719 0.00000000
vn 0.44721360 0.89442719 0.00000000
vn 0.44721360 0.89442719 0.00000000
vn 0.44721360 0.89442719 0.00000000
vn 0.44721360 0.89442719 0.00000000
vn 0.00000000 0.89442719 -0.44721360
vn 0.00000000 0.89442719 -0.44721360
vn 0.00000000 0.89442719 -0.44721360
vn 0.00000000 0.89442719 -0.44721360
vn 0.00000000 1.00000000 0.00000000
vn 0.00000000 1.00000000 0.00000000
vn 0.00000000 1.00000000 0.00000000
vn 0.00000000 1.00000000 0.00000000
s 1
usemtl Fabric_7
f 4/4/4 3/3/3 2/2/2
f 4/4/4 2/2/2 1/1/1
s 2
f 4/5/5 5/6/6 6/7/7
f 4/5/5 6/7/7 3/8/8
s 3
usemtl Fabric_8
f 7/9/9 5/10/10 8/12/12
f 5/10/10 4/11/11 8/12/12
s 4
f 5/15/15 7/16/16 11/17/17
f 11/17/17 9/13/13 10/14/14
f 10/14/14 5/15/15 11/17/17
s 5
f 1/18/18 10/19/19 9/20/20
f 1/18/18 9/20/20 12/21/21
s 6
f 9/23/23 11/22/22 17/29/29
f 18/32/32 17/29/29 7/31/31
f 7/31/31 8/30/30 19/33/33
f 8/30/30 14/26/26 19/33/33
f 15/27/27 14/26/26 12/24/24
f 16/28/28 15/27/27 12/24/24
f 14/26/26 13/25/25 12/24/24
f 8/30/30 13/25/25 14/26/26
f 19/33/33 18/32/32 7/31/31
f 17/29/29 11/22/22 7/31/31
f 12/24/24 9/23/23 16/28/28
f 9/23/23 17/29/29 16/28/28
s 7
f 14/38/38 15/35/35 20/34/34
f 21/37/37 14/38/38 20/34/34
f 21/37/37 19/36/36 14/38/38
s 8
usemtl Fabric_7
f 20/40/40 22/39/39 24/43/43
f 24/43/43 23/42/42 21/41/41
f 21/41/41 20/40/40 24/43/43
s 9
f 26/47/47 25/46/46 23/44/44
f 25/46/46 21/45/45 23/44/44
s 10
f 29/52/52 27/48/48 28/49/49
f 28/49/49 25/50/50 29/52/52
f 25/50/50 26/51/51 29/52/52
s 11
f 37/64/64 36/63/63 35/62/62
f 35/62/62 34/61/61 26/55/55
f 31/58/58 30/57/57 26/55/55
f 27/67/67 30/57/57 47/76/76
f 47/76/76 46/75/75 44/73/73
f 44/73/73 43/72/72 22/68/68
f 40/69/69 39/66/66 22/68/68
f 23/54/54 39/66/66 38/65/65
f 23/54/54 24/53/53 39/66/66
f 42/71/71 41/70/70 40/69/69
f 39/66/66 24/53/53 22/68/68
f 43/72/72 40/69/69 22/68/68
f 43/72/72 42/71/71 40/69/69
f 46/75/75 45/74/74 44/73/73
f 22/68/68 27/67/67 44/73/73
f 27/67/67 47/76/76 44/73/73
f 27/67/67 29/56/56 30/57/57
f 30/57/57 29/56/56 26/55/55
f 34/61/61 31/58/58 26/55/55
f 34/61/61 32/59/59 31/58/58
f 34/61/61 33/60/60 32/59/59
f 26/55/55 23/54/54 35/62/62
f 23/54/54 38/65/65 35/62/62
f 38/65/65 37/64/64 35/62/62
s 12
f 49/80/80 35/79/79 48/77/77
f 35/79/79 36/78/78 48/77/77
s 13
f 51/82/82 50/81/81 63/96/96
f 63/96/96 49/91/91 57/88/88
f 57/88/88 56/87/87 52/83/83
f 56/87/87 53/84/84 52/83/83
f 55/86/86 54/85/85 53/84/84
f 56/87/87 55/86/86 53/84/84
f 49/91/91 58/89/89 57/88/88
f 49/91/91 48/90/90 58/89/89
f 57/88/88 52/83/83 63/96/96
f 63/96/96 59/92/92 49/91/91
f 62/95/95 60/93/93 59/92/92
f 62/95/95 61/94/94 60/93/93
f 63/96/96 62/95/95 59/92/92
f 52/83/83 51/82/82 63/96/96
s 14
f 48/100/100 36/99/99 37/98/98
f 48/100/100 37/98/98 58/97/97
s 15
f 58/104/104 37/103/103 38/102/102
f 58/104/104 38/102/102 57/101/101
s 16
f 39/109/109 40/106/106 56/105/105
f 57/108/108 39/109/109 56/105/105
f 57/108/108 38/107/107 39/109/109
s 17
f 56/113/113 40/112/112 41/111/111
f 56/113/113 41/111/111 55/110/110
s 18
f 55/117/117 41/116/116 42/115/115
f 55/117/117 42/115/115 54/114/114
s 19
f 54/121/121 42/120/120 43/119/119
f 54/121/121 43/119/119 53/118/118
s 20
f 44/122/122 52/123/123 43/125/125
f 52/123/123 53/124/124 43/125/125
s 21
f 52/126/126 44/127/127 45/128/128
f 52/126/126 45/128/128 51/129/129
s 22
f 51/130/130 45/131/131 50/133/133
f 45/131/131 46/132/132 50/133/133
s 23
f 50/134/134 46/135/135 63/137/137
f 46/135/135 47/136/136 63/137/137
s 24
f 63/138/138 47/139/139 30/142/142
f 30/142/142 31/140/140 62/141/141
f 63/138/138 30/142/142 62/141/141
s 25
f 62/143/143 31/144/144 61/146/146
f 31/144/144 32/145/145 61/146/146
s 26
f 61/147/147 32/148/148 60/150/150
f 32/148/148 33/149/149 60/150/150
s 27
f 60/151/151 33/152/152 59/154/154
f 33/152/152 34/153/153 59/154/154
s 28
f 59/155/155 34/156/156 49/158/158
f 34/156/156 35/157/157 49/158/158
s 29
f 28/162/162 27/161/161 20/159/159
f 27/161/161 22/160/160 20/159/159
s 30
usemtl Fabric_8
f 15/163/163 16/164/164 28/165/165
f 15/163/163 28/165/165 20/166/166
s 31
f 28/167/167 16/168/168 17/171/171
f 17/171/171 18/169/169 25/170/170
f 28/167/167 17/171/171 25/170/170
s 32
f 21/172/172 25/173/173 18/174/174
f 21/172/172 18/174/174 19/175/175
s 33
usemtl Fabric_7
f 10/176/176 64/177/177 5/179/179
f 64/177/177 6/178/178 5/179/179
s 34
usemtl Fabric_8
f 13/184/184 8/183/183 4/182/182
f 4/182/182 1/181/181 13/184/184
f 1/181/181 12/180/180 13/184/184
s 35
usemtl Fabric_7
f 2/185/185 64/186/186 10/187/187
f 2/185/185 10/187/187 1/188/188
s 36
f 3/192/192 6/191/191 64/190/190
f 3/192/192 64/190/190 2/189/189
