mtllib Structure_Stairs_Railing_Peg.mtl
o object1
g object1
v 0.51500000 0.10000000 -0.51500000
v 0.52500000 0.12500000 -0.52500000
v 0.52500000 0.12500000 -0.47500000
v 0.51500000 0.10000000 -0.48500000
v 0.48500000 0.10000000 -0.51500000
v 0.47500000 0.12500000 -0.52500000
v 0.48500000 0.10000000 -0.48500000
v 0.47500000 0.12500000 -0.47500000
v 0.48500000 0.15000000 -0.51500000
v 0.48500000 0.15000000 -0.48500000
v 0.48500000 0.45000000 -0.48500000
v 0.48500000 0.45000000 -0.51500000
v 0.51500000 0.15000000 -0.51500000
v 0.51500000 0.45000000 -0.51500000
v 0.51500000 0.15000000 -0.48500000
v 0.51500000 0.45000000 -0.48500000
v 0.48500000 0.07500000 -0.51500000
v 0.48500000 0.07500000 -0.48500000
v 0.47500000 0.05000000 -0.52500000
v 0.47500000 0.05000000 -0.47500000
v 0.51500000 0.07500000 -0.51500000
v 0.52500000 0.05000000 -0.52500000
v 0.51500000 0.07500000 -0.48500000
v 0.52500000 0.05000000 -0.47500000
v 0.52500000 -0.00000000 -0.52500000
v 0.52500000 -0.00000000 -0.47500000
v 0.47500000 -0.00000000 -0.47500000
v 0.47500000 -0.00000000 -0.52500000
vt 0.80000000 0.00000000
vt 1.00000000 1.00000000
vt 0.00000000 1.00000000
vt 0.20000000 0.00000000
vt 0.80000000 0.00000000
vt 1.00000000 1.00000000
vt 0.00000000 1.00000000
vt 0.20000000 0.00000000
vt 1.00000000 0.00000000
vt 0.80000000 1.00000000
vt 0.20000000 1.00000000
vt 0.00000000 0.00000000
vt 0.80000000 0.00000000
vt 1.00000000 1.00000000
vt 0.00000000 1.00000000
vt 0.20000000 0.00000000
vt 0.00000000 1.00000000
vt 0.00000000 0.00000000
vt 1.00000000 0.00000000
vt 1.00000000 1.00000000
vt 0.00000000 1.00000000
vt 0.00000000 0.00000000
vt 1.00000000 0.00000000
vt 1.00000000 1.00000000
vt 0.00000000 1.00000000
vt 0.00000000 0.00000000
vt 1.00000000 0.00000000
vt 1.00000000 1.00000000
vt 1.00000000 0.00000000
vt 1.00000000 1.00000000
vt 0.00000000 1.00000000
vt 0.00000000 0.00000000
vt 0.00000000 1.00000000
vt 0.00000000 0.00000000
vt 1.00000000 0.00000000
vt 1.00000000 1.00000000
vt 1.00000000 0.00000000
vt 0.80000000 1.00000000
vt 0.20000000 1.00000000
vt 0.00000000 0.00000000
vt 0.00000000 1.00000000
vt 0.00000000 0.00000000
vt 1.00000000 0.00000000
vt 1.00000000 1.00000000
vt 0.80000000 0.00000000
vt 1.00000000 1.00000000
vt 0.00000000 1.00000000
vt 0.20000000 0.00000000
vt 0.80000000 0.00000000
vt 1.00000000 1.00000000
vt 0.00000000 1.00000000
vt 0.20000000 0.00000000
vt 1.00000000 0.00000000
vt 0.80000000 1.00000000
vt 0.20000000 1.00000000
vt 0.00000000 0.00000000
vt 1.00000000 0.00000000
vt 1.00000000 1.00000000
vt 0.00000000 1.00000000
vt 0.00000000 0.00000000
vt 0.00000000 0.00000000
vt 1.00000000 0.00000000
vt 1.00000000 1.00000000
vt 0.00000000 1.00000000
vt 1.00000000 0.00000000
vt 1.00000000 1.00000000
vt 0.00000000 1.00000000
vt 0.00000000 0.00000000
vt 1.00000000 0.00000000
vt 1.00000000 1.00000000
vt 0.00000000 1.00000000
vt 0.00000000 0.00000000
vt 1.00000000 0.00000000
vt 0.80000000 1.00000000
vt 0.20000000 1.00000000
vt 0.00000000 0.00000000
vt 1.00000000 0.00000000
vt 1.00000000 1.00000000
vt 0.00000000 1.00000000
vt 0.00000000 0.00000000
vt 0.00000000 1.00000000
vt 0.00000000 0.00000000
vt 1.00000000 0.00000000
vt 1.00000000 1.00000000
vt 0.00000000 1.00000000
vt 0.00000000 0.00000000
vt 1.00000000 0.00000000
vt 1.00000000 1.00000000
vt 0.80000000 0.00000000
vt 1.00000000 1.00000000
vt 0.00000000 1.00000000
vt 0.20000000 0.00000000
vt 0.00000000 1.00000000
vt 0.00000000 0.00000000
vt 1.00000000 0.00000000
vt 1.00000000 1.00000000
vt 1.00000000 0.00000000
vt 0.80000000 1.00000000
vt 0.20000000 1.00000000
vt 0.00000000 0.00000000
vt 1.00000000 0.00000000
vt 0.80000000 1.00000000
vt 0.20000000 1.00000000
vt 0.00000000 0.00000000
vn 0.92847669 -0.37139068 0.00000000
vn 0.92847669 -0.37139068 0.00000000
vn 0.92847669 -0.37139068 0.00000000
vn 0.92847669 -0.37139068 0.00000000
vn 0.00000000 -0.37139068 -0.92847669
vn 0.00000000 -0.37139068 -0.92847669
vn 0.00000000 -0.37139068 -0.92847669
vn 0.00000000 -0.37139068 -0.92847669
vn -0.92847669 -0.37139068 0.00000000
vn -0.92847669 -0.37139068 0.00000000
vn -0.92847669 -0.37139068 0.00000000
vn -0.92847669 -0.37139068 0.00000000
vn -0.92847669 0.37139068 0.00000000
vn -0.92847669 0.37139068 0.00000000
vn -0.92847669 0.37139068 0.00000000
vn -0.92847669 0.37139068 0.00000000
vn -1.00000000 0.00000000 0.00000000
vn -1.00000000 0.00000000 0.00000000
vn -1.00000000 0.00000000 0.00000000
vn -1.00000000 0.00000000 0.00000000
vn 0.00000000 0.00000000 -1.00000000
vn 0.00000000 0.00000000 -1.00000000
vn 0.00000000 0.00000000 -1.00000000
vn 0.00000000 0.00000000 -1.00000000
vn 1.00000000 0.00000000 0.00000000
vn 1.00000000 0.00000000 0.00000000
vn 1.00000000 0.00000000 0.00000000
vn 1.00000000 0.00000000 0.00000000
vn 0.00000000 1.00000000 0.00000000
vn 0.00000000 1.00000000 0.00000000
vn 0.00000000 1.00000000 0.00000000
vn 0.00000000 1.00000000 0.00000000
vn 0.00000000 0.00000000 1.00000000
vn 0.00000000 0.00000000 1.00000000
vn 0.00000000 0.00000000 1.00000000
vn 0.00000000 0.00000000 1.00000000
vn 0.00000000 0.37139068 0.92847669
vn 0.00000000 0.37139068 0.92847669
vn 0.00000000 0.37139068 0.92847669
vn 0.00000000 0.37139068 0.92847669
vn -1.00000000 0.00000000 0.00000000
vn -1.00000000 0.00000000 0.00000000
vn -1.00000000 0.00000000 0.00000000
vn -1.00000000 0.00000000 0.00000000
vn -0.92847669 0.37139068 0.00000000
vn -0.92847669 0.37139068 0.00000000
vn -0.92847669 0.37139068 0.00000000
vn -0.92847669 0.37139068 0.00000000
vn 0.00000000 0.37139068 -0.92847669
vn 0.00000000 0.37139068 -0.92847669
vn 0.00000000 0.37139068 -0.92847669
vn 0.00000000 0.37139068 -0.92847669
vn 0.92847669 0.37139068 0.00000000
vn 0.92847669 0.37139068 0.00000000
vn 0.92847669 0.37139068 0.00000000
vn 0.92847669 0.37139068 0.00000000
vn 1.00000000 0.00000000 0.00000000
vn 1.00000000 0.00000000 0.00000000
vn 1.00000000 0.00000000 0.00000000
vn 1.00000000 0.00000000 0.00000000
vn 0.00000000 -1.00000000 0.00000000
vn 0.00000000 -1.00000000 0.00000000
vn 0.00000000 -1.00000000 0.00000000
vn 0.00000000 -1.00000000 0.00000000
vn 0.00000000 0.00000000 1.00000000
vn 0.00000000 0.00000000 1.00000000
vn 0.00000000 0.00000000 1.00000000
vn 0.00000000 0.00000000 1.00000000
vn 0.00000000 0.00000000 -1.00000000
vn 0.00000000 0.00000000 -1.00000000
vn 0.00000000 0.00000000 -1.00000000
vn 0.00000000 0.00000000 -1.00000000
vn 0.00000000 0.37139068 0.92847669
vn 0.00000000 0.37139068 0.92847669
vn 0.00000000 0.37139068 0.92847669
vn 0.00000000 0.37139068 0.92847669
vn -1.00000000 0.00000000 0.00000000
vn -1.00000000 0.00000000 0.00000000
vn -1.00000000 0.00000000 0.00000000
vn -1.00000000 0.00000000 0.00000000
vn 0.00000000 0.00000000 1.00000000
vn 0.00000000 0.00000000 1.00000000
vn 0.00000000 0.00000000 1.00000000
vn 0.00000000 0.00000000 1.00000000
vn 0.00000000 0.00000000 -1.00000000
vn 0.00000000 0.00000000 -1.00000000
vn 0.00000000 0.00000000 -1.00000000
vn 0.00000000 0.00000000 -1.00000000
vn 0.00000000 0.37139068 -0.92847669
vn 0.00000000 0.37139068 -0.92847669
vn 0.00000000 0.37139068 -0.92847669
vn 0.00000000 0.37139068 -0.92847669
vn 1.00000000 0.00000000 0.00000000
vn 1.00000000 0.00000000 0.00000000
vn 1.00000000 0.00000000 0.00000000
vn 1.00000000 0.00000000 0.00000000
vn 0.00000000 -0.37139068 0.92847669
vn 0.00000000 -0.37139068 0.92847669
vn 0.00000000 -0.37139068 0.92847669
vn 0.00000000 -0.37139068 0.92847669
vn 0.92847669 0.37139068 0.00000000
vn 0.92847669 0.37139068 0.00000000
vn 0.92847669 0.37139068 0.00000000
vn 0.92847669 0.37139068 0.00000000
s 1
usemtl Medium_Wood
f 1/1/1 2/2/2 3/3/3
f 1/1/1 3/3/3 4/4/4
s 2
f 5/5/5 6/6/6 2/7/7
f 5/5/5 2/7/7 1/8/8
s 3
f 6/9/9 5/10/10 7/11/11
f 6/9/9 7/11/11 8/12/12
s 4
f 9/13/13 6/14/14 10/16/16
f 6/14/14 8/15/15 10/16/16
s 5
f 9/17/17 10/18/18 12/20/20
f 10/18/18 11/19/19 12/20/20
s 6
f 13/21/21 9/22/22 14/24/24
f 9/22/22 12/23/23 14/24/24
s 7
f 14/28/28 16/27/27 13/25/25
f 16/27/27 15/26/26 13/25/25
s 8
f 11/29/29 16/30/30 14/31/31
f 11/29/29 14/31/31 12/32/32
s 9
f 16/36/36 11/35/35 15/33/33
f 11/35/35 10/34/34 15/33/33
s 10
f 3/37/37 15/38/38 8/40/40
f 15/38/38 10/39/39 8/40/40
s 11
f 17/41/41 18/42/42 7/43/43
f 17/41/41 7/43/43 5/44/44
s 12
f 17/45/45 19/46/46 18/48/48
f 19/46/46 20/47/47 18/48/48
s 13
f 21/49/49 22/50/50 17/52/52
f 22/50/50 19/51/51 17/52/52
s 14
f 22/53/53 21/54/54 24/56/56
f 21/54/54 23/55/55 24/56/56
s 15
f 26/60/60 25/59/59 24/57/57
f 25/59/59 22/58/58 24/57/57
s 16
f 27/61/61 28/62/62 25/63/63
f 27/61/61 25/63/63 26/64/64
s 17
f 27/68/68 26/67/67 24/66/66
f 27/68/68 24/66/66 20/65/65
s 18
f 19/69/69 22/70/70 25/71/71
f 19/69/69 25/71/71 28/72/72
s 19
f 24/73/73 23/74/74 20/76/76
f 23/74/74 18/75/75 20/76/76
s 20
f 20/77/77 19/78/78 28/79/79
f 20/77/77 28/79/79 27/80/80
s 21
f 4/84/84 7/83/83 23/81/81
f 7/83/83 18/82/82 23/81/81
s 22
f 21/85/85 17/86/86 1/88/88
f 17/86/86 5/87/87 1/88/88
s 23
f 13/89/89 2/90/90 9/92/92
f 2/90/90 6/91/91 9/92/92
s 24
f 1/96/96 4/95/95 21/93/93
f 4/95/95 23/94/94 21/93/93
s 25
f 8/97/97 7/98/98 4/99/99
f 8/97/97 4/99/99 3/100/100
s 26
f 2/101/101 13/102/102 3/104/104
f 13/102/102 15/103/103 3/104/104
