mtllib Structure_Exterior_Doorway.mtl
o object1
g object1
v -0.42500000 1.92500000 -0.58125000
v -0.42500000 0.00000000 -0.58125000
v -0.42500000 0.00000000 -0.60000000
v -0.42500000 1.92500000 -0.60000000
v 0.40000000 0.00000000 -0.58125000
v 0.40000000 1.90000000 -0.58125000
v -0.40000000 1.90000000 -0.58125000
v -0.40000000 0.00000000 -0.58125000
v 0.42500000 1.92500000 -0.58125000
v 0.42500000 0.00000000 -0.58125000
v 0.40000000 1.90000000 -0.31875000
v 0.40000000 0.00000000 -0.31875000
v 0.42500000 0.00000000 -0.31875000
v 0.42500000 1.92500000 -0.31875000
v -0.42500000 1.92500000 -0.31875000
v -0.42500000 0.00000000 -0.31875000
v -0.40000000 0.00000000 -0.31875000
v -0.40000000 1.90000000 -0.31875000
v -0.42500000 0.00000000 -0.30000000
v -0.42500000 1.92500000 -0.30000000
v 0.42500000 1.92500000 -0.30000000
v 0.42500000 0.00000000 -0.30000000
v 0.50000000 0.00000000 -0.30000000
v 0.50000000 2.00000000 -0.30000000
v -0.50000000 2.00000000 -0.30000000
v -0.50000000 0.00000000 -0.30000000
v -0.50000000 2.00000000 -0.60000000
v -0.50000000 0.00000000 -0.60000000
v 0.50000000 2.00000000 -0.60000000
v 0.50000000 0.00000000 -0.60000000
v 0.42500000 0.00000000 -0.60000000
v 0.42500000 1.92500000 -0.60000000
vt 1.00000000 1.00000000
vt 0.00000000 1.00000000
vt 0.00000000 0.00000000
vt 1.00000000 0.00000000
vt 1.00000000 0.02941176
vt 0.01298701 0.02941176
vt 0.01298701 0.97058824
vt 1.00000000 0.97058824
vt 1.00000000 1.00000000
vt 0.00000000 1.00000000
vt 0.00000000 0.00000000
vt 1.00000000 0.00000000
vt 0.00000000 0.00000000
vt 1.00000000 0.00000000
vt 1.00000000 1.00000000
vt 0.00000000 1.00000000
vt 0.98701299 0.02941176
vt 0.00000000 0.02941176
vt 0.00000000 0.00000000
vt 1.00000000 0.00000000
vt 1.00000000 1.00000000
vt 0.00000000 1.00000000
vt 0.00000000 0.97058824
vt 0.98701299 0.97058824
vt 0.00000000 1.00000000
vt 0.00000000 0.00000000
vt 1.00000000 0.00000000
vt 1.00000000 1.00000000
vt 0.96250000 0.07500000
vt 0.00000000 0.07500000
vt 0.00000000 0.00000000
vt 1.00000000 0.00000000
vt 1.00000000 1.00000000
vt 0.00000000 1.00000000
vt 0.00000000 0.92500000
vt 0.96250000 0.92500000
vt 1.00000000 1.00000000
vt 0.00000000 1.00000000
vt 0.00000000 0.00000000
vt 1.00000000 0.00000000
vt 1.00000000 1.00000000
vt 0.00000000 1.00000000
vt 0.00000000 0.00000000
vt 1.00000000 0.00000000
vt 0.00000000 1.00000000
vt 0.00000000 0.00000000
vt 1.00000000 0.00000000
vt 1.00000000 1.00000000
vt 1.00000000 1.00000000
vt 0.00000000 1.00000000
vt 0.00000000 0.00000000
vt 1.00000000 0.00000000
vt 0.00000000 1.00000000
vt 0.00000000 0.00000000
vt 1.00000000 0.00000000
vt 1.00000000 1.00000000
vt 0.06250000 0.00000000
vt 0.93750000 0.00000000
vt 0.93750000 0.25000000
vt 1.00000000 0.25000000
vt 1.00000000 1.00000000
vt 0.00000000 1.00000000
vt 0.00000000 0.25000000
vt 0.06250000 0.25000000
vt 0.00000000 1.00000000
vt 0.00000000 0.00000000
vt 1.00000000 0.00000000
vt 1.00000000 1.00000000
vt 0.00000000 0.00000000
vt 1.00000000 0.00000000
vt 1.00000000 1.00000000
vt 0.00000000 1.00000000
vt 0.00000000 0.00000000
vt 1.00000000 0.00000000
vt 1.00000000 1.00000000
vt 0.00000000 1.00000000
vt 0.00000000 0.00000000
vt 1.00000000 0.00000000
vt 1.00000000 1.00000000
vt 0.00000000 1.00000000
vt 0.03750000 0.07500000
vt 0.03750000 0.92500000
vt 1.00000000 0.92500000
vt 1.00000000 1.00000000
vt 0.00000000 1.00000000
vt 0.00000000 0.00000000
vt 1.00000000 0.00000000
vt 1.00000000 0.07500000
vt 0.00000000 0.75000000
vt 0.00000000 0.00000000
vt 1.00000000 0.00000000
vt 1.00000000 0.75000000
vt 0.93750000 0.75000000
vt 0.93750000 1.00000000
vt 0.06250000 1.00000000
vt 0.06250000 0.75000000
vn 1.00000000 0.00000000 0.00000000
vn 1.00000000 0.00000000 0.00000000
vn 1.00000000 0.00000000 0.00000000
vn 1.00000000 0.00000000 0.00000000
vn 0.00000000 0.00000000 -1.00000000
vn 0.00000000 0.00000000 -1.00000000
vn 0.00000000 0.00000000 -1.00000000
vn 0.00000000 0.00000000 -1.00000000
vn 0.00000000 0.00000000 -1.00000000
vn 0.00000000 0.00000000 -1.00000000
vn 0.00000000 0.00000000 -1.00000000
vn 0.00000000 0.00000000 -1.00000000
vn -1.00000000 -0.00000000 0.00000000
vn -1.00000000 -0.00000000 0.00000000
vn -1.00000000 -0.00000000 0.00000000
vn -1.00000000 -0.00000000 0.00000000
vn 0.00000000 0.00000000 1.00000000
vn 0.00000000 0.00000000 1.00000000
vn 0.00000000 0.00000000 1.00000000
vn 0.00000000 0.00000000 1.00000000
vn 0.00000000 0.00000000 1.00000000
vn 0.00000000 0.00000000 1.00000000
vn 0.00000000 0.00000000 1.00000000
vn 0.00000000 0.00000000 1.00000000
vn 1.00000000 0.00000000 0.00000000
vn 1.00000000 0.00000000 0.00000000
vn 1.00000000 0.00000000 0.00000000
vn 1.00000000 0.00000000 0.00000000
vn 0.00000000 0.00000000 1.00000000
vn 0.00000000 0.00000000 1.00000000
vn 0.00000000 0.00000000 1.00000000
vn 0.00000000 0.00000000 1.00000000
vn 0.00000000 0.00000000 1.00000000
vn 0.00000000 0.00000000 1.00000000
vn 0.00000000 0.00000000 1.00000000
vn 0.00000000 0.00000000 1.00000000
vn -1.00000000 0.00000000 0.00000000
vn -1.00000000 0.00000000 0.00000000
vn -1.00000000 0.00000000 0.00000000
vn -1.00000000 0.00000000 0.00000000
vn 0.00000000 1.00000000 0.00000000
vn 0.00000000 1.00000000 0.00000000
vn 0.00000000 1.00000000 0.00000000
vn 0.00000000 1.00000000 0.00000000
vn 1.00000000 0.00000000 0.00000000
vn 1.00000000 0.00000000 0.00000000
vn 1.00000000 0.00000000 0.00000000
vn 1.00000000 0.00000000 0.00000000
vn 0.00000000 -1.00000000 0.00000000
vn 0.00000000 -1.00000000 0.00000000
vn 0.00000000 -1.00000000 0.00000000
vn 0.00000000 -1.00000000 0.00000000
vn -1.00000000 0.00000000 0.00000000
vn -1.00000000 0.00000000 0.00000000
vn -1.00000000 0.00000000 0.00000000
vn -1.00000000 0.00000000 0.00000000
vn 0.00000000 -1.00000000 0.00000000
vn 0.00000000 -1.00000000 0.00000000
vn 0.00000000 -1.00000000 0.00000000
vn 0.00000000 -1.00000000 0.00000000
vn 0.00000000 -1.00000000 0.00000000
vn 0.00000000 -1.00000000 0.00000000
vn 0.00000000 -1.00000000 0.00000000
vn 0.00000000 -1.00000000 0.00000000
vn -1.00000000 0.00000000 0.00000000
vn -1.00000000 0.00000000 0.00000000
vn -1.00000000 0.00000000 0.00000000
vn -1.00000000 0.00000000 0.00000000
vn 1.00000000 0.00000000 0.00000000
vn 1.00000000 0.00000000 0.00000000
vn 1.00000000 0.00000000 0.00000000
vn 1.00000000 0.00000000 0.00000000
vn 0.00000000 -1.00000000 0.00000000
vn 0.00000000 -1.00000000 0.00000000
vn 0.00000000 -1.00000000 0.00000000
vn 0.00000000 -1.00000000 0.00000000
vn 0.00000000 -1.00000000 0.00000000
vn 0.00000000 -1.00000000 0.00000000
vn 0.00000000 -1.00000000 0.00000000
vn 0.00000000 -1.00000000 0.00000000
vn 0.00000000 0.00000000 -1.00000000
vn 0.00000000 0.00000000 -1.00000000
vn 0.00000000 0.00000000 -1.00000000
vn 0.00000000 0.00000000 -1.00000000
vn 0.00000000 0.00000000 -1.00000000
vn 0.00000000 0.00000000 -1.00000000
vn 0.00000000 0.00000000 -1.00000000
vn 0.00000000 0.00000000 -1.00000000
vn 0.00000000 -1.00000000 0.00000000
vn 0.00000000 -1.00000000 0.00000000
vn 0.00000000 -1.00000000 0.00000000
vn 0.00000000 -1.00000000 0.00000000
vn 0.00000000 -1.00000000 0.00000000
vn 0.00000000 -1.00000000 0.00000000
vn 0.00000000 -1.00000000 0.00000000
vn 0.00000000 -1.00000000 0.00000000
s 1
usemtl White
f 1/1/1 2/2/2 4/4/4
f 2/2/2 3/3/3 4/4/4
s 2
f 10/12/12 5/5/5 6/6/6
f 9/11/11 6/6/6 7/7/7
f 7/7/7 2/9/9 1/10/10
f 7/7/7 8/8/8 2/9/9
f 1/10/10 9/11/11 7/7/7
f 9/11/11 10/12/12 6/6/6
s 3
f 5/16/16 12/15/15 6/13/13
f 12/15/15 11/14/14 6/13/13
s 4
f 11/17/17 12/18/18 13/19/19
f 11/17/17 13/19/19 14/20/20
f 14/20/20 15/21/21 11/17/17
f 15/21/21 16/22/22 18/24/24
f 16/22/22 17/23/23 18/24/24
f 15/21/21 18/24/24 11/17/17
s 5
f 19/25/25 16/26/26 20/28/28
f 16/26/26 15/27/27 20/28/28
s 6
f 26/34/34 19/35/35 20/36/36
f 25/33/33 20/36/36 21/29/29
f 21/29/29 23/31/31 24/32/32
f 21/29/29 22/30/30 23/31/31
f 24/32/32 25/33/33 21/29/29
f 25/33/33 26/34/34 20/36/36
s 7
f 28/40/40 26/39/39 27/37/37
f 26/39/39 25/38/38 27/37/37
s 8
f 27/41/41 25/42/42 24/43/43
f 27/41/41 24/43/43 29/44/44
s 9
f 29/45/45 24/46/46 30/48/48
f 24/46/46 23/47/47 30/48/48
s 10
f 20/49/49 15/50/50 14/51/51
f 20/49/49 14/51/51 21/52/52
s 11
f 21/53/53 14/54/54 22/56/56
f 14/54/54 13/55/55 22/56/56
s 12
f 23/61/61 22/60/60 13/59/59
f 10/64/64 13/59/59 12/58/58
f 12/58/58 5/57/57 10/64/64
f 10/64/64 31/63/63 30/62/62
f 10/64/64 23/61/61 13/59/59
f 10/64/64 30/62/62 23/61/61
s 13
f 9/65/65 32/66/66 10/68/68
f 32/66/66 31/67/67 10/68/68
s 14
f 7/69/69 18/70/70 8/72/72
f 18/70/70 17/71/71 8/72/72
s 15
f 6/73/73 11/74/74 7/76/76
f 11/74/74 18/75/75 7/76/76
s 16
f 32/77/77 9/78/78 4/80/80
f 9/78/78 1/79/79 4/80/80
s 17
f 4/82/82 3/83/83 28/84/84
f 32/81/81 4/82/82 27/85/85
f 32/81/81 29/86/86 30/87/87
f 32/81/81 27/85/85 29/86/86
f 30/87/87 31/88/88 32/81/81
f 4/82/82 28/84/84 27/85/85
s 18
f 16/93/93 19/92/92 26/91/91
f 26/91/91 28/90/90 2/96/96
f 2/96/96 8/95/95 17/94/94
f 28/90/90 3/89/89 2/96/96
f 17/94/94 16/93/93 2/96/96
f 16/93/93 26/91/91 2/96/96
