mtllib Structure_Wall_Straight_Base.mtl
o object1
g object1
v -0.50000000 0.00000000 -0.50000000
v -0.50000000 0.15000000 -0.50000000
v 0.50000000 0.15000000 -0.50000000
v 0.50000000 -0.00000000 -0.50000000
v -0.50000000 0.10000000 -0.43000000
v -0.50000000 0.09500000 -0.42500000
v -0.50000000 0.00000000 -0.42500000
v -0.50000000 0.15000000 -0.45000000
v -0.50000000 0.13500000 -0.43500000
v -0.50000000 0.12500000 -0.43500000
v -0.50000000 0.12000000 -0.43000000
v 0.50000000 0.13500000 -0.43500000
v 0.50000000 0.15000000 -0.45000000
v 0.50000000 0.12500000 -0.43500000
v 0.50000000 0.12000000 -0.43000000
v 0.50000000 0.10000000 -0.43000000
v 0.50000000 0.09500000 -0.42500000
v 0.50000000 0.00000000 -0.42500000
vt 1.00000000 0.00000000
vt 1.00000000 1.00000000
vt 0.00000000 1.00000000
vt 0.00000000 0.00000000
vt 0.66666667 0.93333333
vt 0.63333333 1.00000000
vt 0.00000000 1.00000000
vt 0.00000000 0.00000000
vt 1.00000000 0.00000000
vt 1.00000000 0.66666667
vt 0.90000000 0.86666667
vt 0.83333333 0.86666667
vt 0.80000000 0.93333333
vt 1.00000000 0.00000000
vt 1.00000000 1.00000000
vt 0.00000000 1.00000000
vt 0.00000000 0.00000000
vt 1.00000000 0.00000000
vt 1.00000000 1.00000000
vt 0.00000000 1.00000000
vt 0.00000000 0.00000000
vt 1.00000000 0.00000000
vt 1.00000000 1.00000000
vt 0.00000000 1.00000000
vt 0.00000000 0.00000000
vt 1.00000000 0.00000000
vt 1.00000000 1.00000000
vt 0.00000000 1.00000000
vt 0.00000000 0.00000000
vt 1.00000000 0.00000000
vt 1.00000000 1.00000000
vt 0.00000000 1.00000000
vt 0.00000000 0.00000000
vt 1.00000000 0.00000000
vt 1.00000000 1.00000000
vt 0.00000000 1.00000000
vt 0.00000000 0.00000000
vt 1.00000000 0.00000000
vt 1.00000000 1.00000000
vt 0.00000000 1.00000000
vt 0.00000000 0.00000000
vt 0.66666667 0.93333333
vt 0.63333333 1.00000000
vt 0.00000000 1.00000000
vt 0.00000000 0.00000000
vt 1.00000000 0.00000000
vt 1.00000000 0.66666667
vt 0.90000000 0.86666667
vt 0.83333333 0.86666667
vt 0.80000000 0.93333333
vt 1.00000000 0.00000000
vt 1.00000000 1.00000000
vt 0.00000000 1.00000000
vt 0.00000000 0.00000000
vn 0.00000000 0.00000000 -1.00000000
vn 0.00000000 0.00000000 -1.00000000
vn 0.00000000 0.00000000 -1.00000000
vn 0.00000000 0.00000000 -1.00000000
vn -1.00000000 -0.00000000 -0.00000000
vn -1.00000000 -0.00000000 -0.00000000
vn -1.00000000 -0.00000000 -0.00000000
vn -1.00000000 -0.00000000 -0.00000000
vn -1.00000000 -0.00000000 -0.00000000
vn -1.00000000 -0.00000000 -0.00000000
vn -1.00000000 -0.00000000 -0.00000000
vn -1.00000000 -0.00000000 -0.00000000
vn -1.00000000 -0.00000000 -0.00000000
vn 0.00000000 0.70710678 0.70710678
vn 0.00000000 0.70710678 0.70710678
vn 0.00000000 0.70710678 0.70710678
vn 0.00000000 0.70710678 0.70710678
vn 0.00000000 0.00000000 1.00000000
vn 0.00000000 0.00000000 1.00000000
vn 0.00000000 0.00000000 1.00000000
vn 0.00000000 0.00000000 1.00000000
vn 0.00000000 0.70710678 0.70710678
vn 0.00000000 0.70710678 0.70710678
vn 0.00000000 0.70710678 0.70710678
vn 0.00000000 0.70710678 0.70710678
vn 0.00000000 0.00000000 1.00000000
vn 0.00000000 0.00000000 1.00000000
vn 0.00000000 0.00000000 1.00000000
vn 0.00000000 0.00000000 1.00000000
vn 0.00000000 0.70710678 0.70710678
vn 0.00000000 0.70710678 0.70710678
vn 0.00000000 0.70710678 0.70710678
vn 0.00000000 0.70710678 0.70710678
vn 0.00000000 0.00000000 1.00000000
vn 0.00000000 0.00000000 1.00000000
vn 0.00000000 0.00000000 1.00000000
vn 0.00000000 0.00000000 1.00000000
vn -0.00000000 -1.00000000 0.00000000
vn -0.00000000 -1.00000000 0.00000000
vn -0.00000000 -1.00000000 0.00000000
vn -0.00000000 -1.00000000 0.00000000
vn 1.00000000 0.00000000 0.00000000
vn 1.00000000 0.00000000 0.00000000
vn 1.00000000 0.00000000 0.00000000
vn 1.00000000 0.00000000 0.00000000
vn 1.00000000 0.00000000 0.00000000
vn 1.00000000 0.00000000 0.00000000
vn 1.00000000 0.00000000 0.00000000
vn 1.00000000 0.00000000 0.00000000
vn 1.00000000 0.00000000 0.00000000
vn 0.00000000 1.00000000 0.00000000
vn 0.00000000 1.00000000 0.00000000
vn 0.00000000 1.00000000 0.00000000
vn 0.00000000 1.00000000 0.00000000
s 1
usemtl White
f 1/1/1 2/2/2 4/4/4
f 2/2/2 3/3/3 4/4/4
s 2
f 5/5/5 11/13/13 10/12/12
f 10/12/12 8/10/10 2/9/9
f 10/12/12 9/11/11 8/10/10
f 1/8/8 6/6/6 5/5/5
f 1/8/8 7/7/7 6/6/6
f 5/5/5 2/9/9 1/8/8
f 5/5/5 10/12/12 2/9/9
s 3
f 8/14/14 9/15/15 12/16/16
f 8/14/14 12/16/16 13/17/17
s 4
f 9/18/18 10/19/19 12/21/21
f 10/19/19 14/20/20 12/21/21
s 5
f 10/22/22 11/23/23 15/24/24
f 10/22/22 15/24/24 14/25/25
s 6
f 11/26/26 5/27/27 15/29/29
f 5/27/27 16/28/28 15/29/29
s 7
f 5/30/30 6/31/31 17/32/32
f 5/30/30 17/32/32 16/33/33
s 8
f 6/34/34 7/35/35 17/37/37
f 7/35/35 18/36/36 17/37/37
s 9
f 7/38/38 1/39/39 4/40/40
f 7/38/38 4/40/40 18/41/41
s 10
f 14/49/49 15/50/50 16/42/42
f 16/42/42 17/43/43 4/45/45
f 17/43/43 18/44/44 4/45/45
f 4/45/45 3/46/46 16/42/42
f 3/46/46 14/49/49 16/42/42
f 3/46/46 13/47/47 14/49/49
f 13/47/47 12/48/48 14/49/49
s 11
f 2/51/51 8/52/52 13/53/53
f 2/51/51 13/53/53 3/54/54
