mtllib Structure_Wall_Inner_Joint_Main.mtl
o object1
g object1
v 0.46464466 0.00000000 -0.46464466
v 0.50000000 0.00000000 -0.45000000
v 0.53535534 0.00000000 -0.46464466
v 0.55000000 0.00000000 -0.50000000
v 0.53535534 0.00000000 -0.53535534
v 0.50000000 0.00000000 -0.55000000
v 0.46464466 0.00000000 -0.53535534
v 0.45000000 0.00000000 -0.50000000
v 0.50000000 0.00000000 -0.50000000
v 0.53535534 1.00000000 -0.46464466
v 0.55000000 1.00000000 -0.50000000
v 0.46464466 1.00000000 -0.46464466
v 0.50000000 1.00000000 -0.45000000
v 0.53535534 1.00000000 -0.53535534
v 0.50000000 1.00000000 -0.55000000
v 0.46464466 1.00000000 -0.53535534
v 0.45000000 1.00000000 -0.50000000
v 0.50000000 1.00000000 -0.50000000
vt 0.14644661 0.85355339
vt 0.00000000 0.50000000
vt 0.14644661 0.14644661
vt 0.50000000 0.00000000
vt 0.85355339 0.14644661
vt 1.00000000 0.50000000
vt 0.85355339 0.85355339
vt 0.50000000 1.00000000
vt 0.50000000 0.50000000
vt 1.00000000 0.00000000
vt 1.00000000 1.00000000
vt 0.00000000 1.00000000
vt 0.00000000 0.00000000
vt 0.14644661 0.85355339
vt 0.00000000 0.50000000
vt 0.14644661 0.14644661
vt 0.50000000 0.00000000
vt 0.85355339 0.14644661
vt 1.00000000 0.50000000
vt 0.85355339 0.85355339
vt 0.50000000 1.00000000
vt 0.50000000 0.50000000
vt 1.00000000 0.00000000
vt 1.00000000 1.00000000
vt 0.00000000 1.00000000
vt 0.00000000 0.00000000
vt 1.00000000 0.00000000
vt 1.00000000 1.00000000
vt 0.00000000 1.00000000
vt 0.00000000 0.00000000
vt 1.00000000 0.00000000
vt 1.00000000 1.00000000
vt 0.00000000 1.00000000
vt 0.00000000 0.00000000
vt 1.00000000 0.00000000
vt 1.00000000 1.00000000
vt 0.00000000 1.00000000
vt 0.00000000 0.00000000
vt 1.00000000 0.00000000
vt 1.00000000 1.00000000
vt 0.00000000 1.00000000
vt 0.00000000 0.00000000
vt 1.00000000 0.00000000
vt 1.00000000 1.00000000
vt 0.00000000 1.00000000
vt 0.00000000 0.00000000
vt 1.00000000 0.00000000
vt 1.00000000 1.00000000
vt 0.00000000 1.00000000
vt 0.00000000 0.00000000
vn 0.00000000 -1.00000000 0.00000000
vn 0.00000000 -1.00000000 0.00000000
vn 0.00000000 -1.00000000 0.00000000
vn 0.00000000 -1.00000000 0.00000000
vn 0.00000000 -1.00000000 0.00000000
vn 0.00000000 -1.00000000 0.00000000
vn 0.00000000 -1.00000000 0.00000000
vn 0.00000000 -1.00000000 0.00000000
vn 0.00000000 -1.00000000 0.00000000
vn 0.92387953 0.00000000 0.38268343
vn 0.92387953 0.00000000 0.38268343
vn 0.92387953 0.00000000 0.38268343
vn 0.92387953 0.00000000 0.38268343
vn 0.00000000 1.00000000 0.00000000
vn 0.00000000 1.00000000 0.00000000
vn 0.00000000 1.00000000 0.00000000
vn 0.00000000 1.00000000 0.00000000
vn 0.00000000 1.00000000 0.00000000
vn 0.00000000 1.00000000 0.00000000
vn 0.00000000 1.00000000 0.00000000
vn 0.00000000 1.00000000 0.00000000
vn 0.00000000 1.00000000 0.00000000
vn 0.92387953 0.00000000 -0.38268343
vn 0.92387953 0.00000000 -0.38268343
vn 0.92387953 0.00000000 -0.38268343
vn 0.92387953 0.00000000 -0.38268343
vn 0.38268343 0.00000000 -0.92387953
vn 0.38268343 0.00000000 -0.92387953
vn 0.38268343 0.00000000 -0.92387953
vn 0.38268343 0.00000000 -0.92387953
vn -0.38268343 0.00000000 -0.92387953
vn -0.38268343 0.00000000 -0.92387953
vn -0.38268343 0.00000000 -0.92387953
vn -0.38268343 0.00000000 -0.92387953
vn -0.92387953 0.00000000 -0.38268343
vn -0.92387953 0.00000000 -0.38268343
vn -0.92387953 0.00000000 -0.38268343
vn -0.92387953 0.00000000 -0.38268343
vn -0.92387953 0.00000000 0.38268343
vn -0.92387953 0.00000000 0.38268343
vn -0.92387953 0.00000000 0.38268343
vn -0.92387953 0.00000000 0.38268343
vn -0.38268343 0.00000000 0.92387953
vn -0.38268343 0.00000000 0.92387953
vn -0.38268343 0.00000000 0.92387953
vn -0.38268343 0.00000000 0.92387953
vn 0.38268343 0.00000000 0.92387953
vn 0.38268343 0.00000000 0.92387953
vn 0.38268343 0.00000000 0.92387953
vn 0.38268343 0.00000000 0.92387953
s 1
usemtl White
f 8/8/8 7/7/7 9/9/9
f 2/2/2 1/1/1 9/9/9
f 3/3/3 2/2/2 9/9/9
f 4/4/4 3/3/3 9/9/9
f 5/5/5 4/4/4 9/9/9
f 6/6/6 5/5/5 9/9/9
f 7/7/7 6/6/6 9/9/9
f 1/1/1 8/8/8 9/9/9
s 2
usemtl Beige
f 3/13/13 4/12/12 10/10/10
f 4/12/12 11/11/11 10/10/10
s 3
usemtl Dark_Wood
f 12/14/14 13/15/15 18/22/22
f 16/20/20 17/21/21 18/22/22
f 15/19/19 16/20/20 18/22/22
f 14/18/18 15/19/19 18/22/22
f 11/17/17 14/18/18 18/22/22
f 10/16/16 11/17/17 18/22/22
f 13/15/15 10/16/16 18/22/22
f 17/21/21 12/14/14 18/22/22
s 4
usemtl Beige
f 4/26/26 5/25/25 11/23/23
f 5/25/25 14/24/24 11/23/23
s 5
f 5/30/30 6/29/29 14/27/27
f 6/29/29 15/28/28 14/27/27
s 6
f 6/34/34 7/33/33 15/31/31
f 7/33/33 16/32/32 15/31/31
s 7
f 7/38/38 8/37/37 16/35/35
f 8/37/37 17/36/36 16/35/35
s 8
f 8/42/42 1/41/41 17/39/39
f 1/41/41 12/40/40 17/39/39
s 9
f 1/46/46 2/45/45 12/43/43
f 2/45/45 13/44/44 12/43/43
s 10
f 2/50/50 3/49/49 13/47/47
f 3/49/49 10/48/48 13/47/47
