mtllib Structure_Exterior_Wall_Straight.mtl
o object1
g object1
v 0.49999999 -0.00000000 -0.34999999
v -0.50000001 0.00000000 -0.35000001
v -0.50000001 1.00000000 -0.35000001
v 0.49999999 1.00000000 -0.34999999
v -0.50000001 1.00000000 -0.55000001
v 0.49999999 1.00000000 -0.54999999
v -0.50000001 -0.00000000 -0.55000001
v 0.49999999 -0.00000000 -0.54999999
vt 0.00000000 0.00000000
vt 1.00000000 0.00000000
vt 1.00000000 1.00000000
vt 0.00000000 1.00000000
vt 0.00000000 0.00000000
vt 1.00000000 0.00000000
vt 1.00000000 1.00000000
vt 0.00000000 1.00000000
vt 0.00000000 0.00000000
vt 1.00000000 0.00000000
vt 1.00000000 1.00000000
vt 0.00000000 1.00000000
vt 1.00000000 1.00000000
vt 0.00000000 1.00000000
vt 0.00000000 0.00000000
vt 1.00000000 0.00000000
vt 0.00000000 0.00000000
vt 1.00000000 0.00000000
vt 1.00000000 1.00000000
vt 0.00000000 1.00000000
vt 1.00000000 1.00000000
vt 0.00000000 1.00000000
vt 0.00000000 0.00000000
vt 1.00000000 0.00000000
vn -0.00000001 -0.00000000 1.00000000
vn -0.00000001 -0.00000000 1.00000000
vn -0.00000001 -0.00000000 1.00000000
vn -0.00000001 -0.00000000 1.00000000
vn 0.00000000 1.00000000 0.00000000
vn 0.00000000 1.00000000 0.00000000
vn 0.00000000 1.00000000 0.00000000
vn 0.00000000 1.00000000 0.00000000
vn 0.00000001 0.00000000 -1.00000000
vn 0.00000001 0.00000000 -1.00000000
vn 0.00000001 0.00000000 -1.00000000
vn 0.00000001 0.00000000 -1.00000000
vn 1.00000000 0.00000000 0.00000001
vn 1.00000000 0.00000000 0.00000001
vn 1.00000000 0.00000000 0.00000001
vn 1.00000000 0.00000000 0.00000001
vn -0.00000000 -1.00000000 -0.00000000
vn -0.00000000 -1.00000000 -0.00000000
vn -0.00000000 -1.00000000 -0.00000000
vn -0.00000000 -1.00000000 -0.00000000
vn -1.00000000 -0.00000000 -0.00000001
vn -1.00000000 -0.00000000 -0.00000001
vn -1.00000000 -0.00000000 -0.00000001
vn -1.00000000 -0.00000000 -0.00000001
s 1
usemtl Exterior_Wall
f 4/4/4 3/3/3 1/1/1
f 3/3/3 2/2/2 1/1/1
s 2
usemtl Dark_Wood
f 6/8/8 5/7/7 4/5/5
f 5/7/7 3/6/6 4/5/5
s 3
usemtl Beige
f 8/12/12 7/11/11 6/9/9
f 7/11/11 5/10/10 6/9/9
s 4
f 4/16/16 1/15/15 6/13/13
f 1/15/15 8/14/14 6/13/13
s 5
usemtl White
f 1/17/17 2/18/18 8/20/20
f 2/18/18 7/19/19 8/20/20
s 6
usemtl Beige
f 5/21/21 7/22/22 2/23/23
f 5/21/21 2/23/23 3/24/24
