mtllib Structure_Balcony_3_Edges.mtl
o object1
g object1
v -0.55000000 -0.05000000 -0.55000000
v -0.60000000 -0.02500000 -0.60000000
v 0.50000000 -0.02500000 -0.60000000
v 0.50000000 -0.05000000 -0.55000000
v -0.55000000 -0.05000000 0.55000000
v -0.60000000 -0.02500000 0.60000000
v 0.50000000 -0.02500000 0.60000000
v 0.50000000 -0.05000000 0.55000000
v -0.60000000 0.00000000 0.60000000
v 0.50000000 0.00000000 0.60000000
v -0.60000000 0.00000000 -0.60000000
v 0.50000000 0.00000000 -0.60000000
v -0.55000000 -0.20000000 -0.55000000
v 0.50000000 -0.20000000 -0.55000000
v 0.50000000 -0.20000000 0.55000000
v -0.55000000 -0.20000000 0.55000000
vt 0.95454545 0.00000000
vt 1.00000000 1.00000000
vt 0.00000000 1.00000000
vt 0.00000000 0.00000000
vt 0.95454545 0.00000000
vt 1.00000000 1.00000000
vt 0.00000000 1.00000000
vt 0.00000000 0.00000000
vt 1.00000000 0.00000000
vt 1.00000000 1.00000000
vt 0.00000000 1.00000000
vt 0.00000000 0.00000000
vt 1.00000000 0.00000000
vt 1.00000000 1.00000000
vt 0.00000000 1.00000000
vt 0.00000000 0.00000000
vt 0.00000000 1.00000000
vt 0.00000000 0.00000000
vt 1.00000000 0.00000000
vt 1.00000000 1.00000000
vt 1.00000000 0.00000000
vt 1.00000000 1.00000000
vt 0.00000000 1.00000000
vt 0.00000000 0.00000000
vt 0.95833333 0.00000000
vt 1.00000000 1.00000000
vt 0.00000000 1.00000000
vt 0.04166667 0.00000000
vt 1.00000000 0.00000000
vt 1.00000000 1.00000000
vt 0.00000000 1.00000000
vt 0.00000000 0.00000000
vt 1.00000000 0.95833333
vt 0.25000000 0.95833333
vt 0.12500000 1.00000000
vt 0.00000000 1.00000000
vt 0.00000000 0.00000000
vt 0.12500000 0.00000000
vt 0.25000000 0.04166667
vt 1.00000000 0.04166667
vt 1.00000000 0.00000000
vt 1.00000000 1.00000000
vt 0.00000000 1.00000000
vt 0.00000000 0.00000000
vt 1.00000000 0.00000000
vt 1.00000000 1.00000000
vt 0.00000000 1.00000000
vt 0.00000000 0.00000000
vt 1.00000000 0.00000000
vt 1.00000000 1.00000000
vt 0.00000000 1.00000000
vt 0.00000000 0.00000000
vn -0.00000000 -0.89442719 -0.44721360
vn -0.00000000 -0.89442719 -0.44721360
vn -0.00000000 -0.89442719 -0.44721360
vn -0.00000000 -0.89442719 -0.44721360
vn 0.00000000 -0.89442719 0.44721360
vn 0.00000000 -0.89442719 0.44721360
vn 0.00000000 -0.89442719 0.44721360
vn 0.00000000 -0.89442719 0.44721360
vn 0.00000000 0.00000000 1.00000000
vn 0.00000000 0.00000000 1.00000000
vn 0.00000000 0.00000000 1.00000000
vn 0.00000000 0.00000000 1.00000000
vn 0.00000000 1.00000000 0.00000000
vn 0.00000000 1.00000000 0.00000000
vn 0.00000000 1.00000000 0.00000000
vn 0.00000000 1.00000000 0.00000000
vn -1.00000000 0.00000000 0.00000000
vn -1.00000000 0.00000000 0.00000000
vn -1.00000000 0.00000000 0.00000000
vn -1.00000000 0.00000000 0.00000000
vn -0.00000000 0.00000000 -1.00000000
vn -0.00000000 0.00000000 -1.00000000
vn -0.00000000 0.00000000 -1.00000000
vn -0.00000000 0.00000000 -1.00000000
vn -0.44721360 -0.89442719 0.00000000
vn -0.44721360 -0.89442719 0.00000000
vn -0.44721360 -0.89442719 0.00000000
vn -0.44721360 -0.89442719 0.00000000
vn -0.00000000 0.00000000 -1.00000000
vn -0.00000000 0.00000000 -1.00000000
vn -0.00000000 0.00000000 -1.00000000
vn -0.00000000 0.00000000 -1.00000000
vn 1.00000000 0.00000000 0.00000000
vn 1.00000000 0.00000000 0.00000000
vn 1.00000000 0.00000000 0.00000000
vn 1.00000000 0.00000000 0.00000000
vn 1.00000000 0.00000000 0.00000000
vn 1.00000000 0.00000000 0.00000000
vn 1.00000000 0.00000000 0.00000000
vn 1.00000000 0.00000000 0.00000000
vn 0.00000000 0.00000000 1.00000000
vn 0.00000000 0.00000000 1.00000000
vn 0.00000000 0.00000000 1.00000000
vn 0.00000000 0.00000000 1.00000000
vn 0.00000000 -1.00000000 0.00000000
vn 0.00000000 -1.00000000 0.00000000
vn 0.00000000 -1.00000000 0.00000000
vn 0.00000000 -1.00000000 0.00000000
vn -1.00000000 0.00000000 0.00000000
vn -1.00000000 0.00000000 0.00000000
vn -1.00000000 0.00000000 0.00000000
vn -1.00000000 0.00000000 0.00000000
s 1
usemtl Dark_Wood
f 1/1/1 2/2/2 3/3/3
f 1/1/1 3/3/3 4/4/4
s 2
f 8/8/8 7/7/7 5/5/5
f 7/7/7 6/6/6 5/5/5
s 3
f 9/9/9 6/10/10 10/12/12
f 6/10/10 7/11/11 10/12/12
s 4
f 11/13/13 9/14/14 10/15/15
f 11/13/13 10/15/15 12/16/16
s 5
f 2/20/20 6/19/19 11/17/17
f 6/19/19 9/18/18 11/17/17
s 6
f 12/24/24 3/23/23 11/21/21
f 3/23/23 2/22/22 11/21/21
s 7
f 5/25/25 6/26/26 2/27/27
f 5/25/25 2/27/27 1/28/28
s 8
usemtl Beige
f 4/32/32 14/31/31 13/30/30
f 4/32/32 13/30/30 1/29/29
s 9
f 10/36/36 7/35/35 8/34/34
f 8/34/34 15/33/33 14/40/40
f 14/40/40 4/39/39 10/36/36
f 4/39/39 3/38/38 12/37/37
f 4/39/39 12/37/37 10/36/36
f 10/36/36 8/34/34 14/40/40
s 10
f 15/44/44 8/43/43 16/41/41
f 8/43/43 5/42/42 16/41/41
s 11
usemtl White
f 14/48/48 15/47/47 13/45/45
f 15/47/47 16/46/46 13/45/45
s 12
usemtl Beige
f 1/52/52 13/51/51 5/49/49
f 13/51/51 16/50/50 5/49/49
