mtllib Structure_Balcony_2_Edges_Opposite.mtl
o object1
g object1
v 0.60000000 -0.02500000 -0.50000000
v 0.55000000 -0.05000000 -0.50000000
v 0.55000000 -0.20000000 -0.50000000
v -0.55000000 -0.20000000 -0.50000000
v -0.55000000 -0.05000000 -0.50000000
v -0.60000000 -0.02500000 -0.50000000
v -0.60000000 0.00000000 -0.50000000
v 0.60000000 0.00000000 -0.50000000
v -0.60000000 0.00000000 0.50000000
v -0.60000000 -0.02500000 0.50000000
v 0.60000000 -0.02500000 0.50000000
v 0.55000000 -0.05000000 0.50000000
v 0.55000000 -0.20000000 0.50000000
v -0.55000000 -0.20000000 0.50000000
v -0.55000000 -0.05000000 0.50000000
v 0.60000000 0.00000000 0.50000000
vt 0.12500000 0.00000000
vt 0.25000000 0.04166667
vt 1.00000000 0.04166667
vt 1.00000000 0.95833333
vt 0.25000000 0.95833333
vt 0.12500000 1.00000000
vt 0.00000000 1.00000000
vt 0.00000000 0.00000000
vt 1.00000000 0.00000000
vt 1.00000000 1.00000000
vt 0.00000000 1.00000000
vt 0.00000000 0.00000000
vt 0.12500000 0.00000000
vt 0.25000000 0.04166667
vt 1.00000000 0.04166667
vt 1.00000000 0.95833333
vt 0.25000000 0.95833333
vt 0.12500000 1.00000000
vt 0.00000000 1.00000000
vt 0.00000000 0.00000000
vt 1.00000000 0.00000000
vt 1.00000000 1.00000000
vt 0.00000000 1.00000000
vt 0.00000000 0.00000000
vt 1.00000000 0.00000000
vt 1.00000000 1.00000000
vt 0.00000000 1.00000000
vt 0.00000000 0.00000000
vt 1.00000000 0.00000000
vt 1.00000000 1.00000000
vt 0.00000000 1.00000000
vt 0.00000000 0.00000000
vt 1.00000000 0.00000000
vt 1.00000000 1.00000000
vt 0.00000000 1.00000000
vt 0.00000000 0.00000000
vt 1.00000000 0.00000000
vt 1.00000000 1.00000000
vt 0.00000000 1.00000000
vt 0.00000000 0.00000000
vt 1.00000000 0.00000000
vt 1.00000000 1.00000000
vt 0.00000000 1.00000000
vt 0.00000000 0.00000000
vt 1.00000000 0.00000000
vt 1.00000000 1.00000000
vt 0.00000000 1.00000000
vt 0.00000000 0.00000000
vn 0.00000000 -0.00000000 -1.00000000
vn 0.00000000 -0.00000000 -1.00000000
vn 0.00000000 -0.00000000 -1.00000000
vn 0.00000000 -0.00000000 -1.00000000
vn 0.00000000 -0.00000000 -1.00000000
vn 0.00000000 -0.00000000 -1.00000000
vn 0.00000000 -0.00000000 -1.00000000
vn 0.00000000 -0.00000000 -1.00000000
vn -1.00000000 0.00000000 0.00000000
vn -1.00000000 0.00000000 0.00000000
vn -1.00000000 0.00000000 0.00000000
vn -1.00000000 0.00000000 0.00000000
vn 0.00000000 -0.00000000 1.00000000
vn 0.00000000 -0.00000000 1.00000000
vn 0.00000000 -0.00000000 1.00000000
vn 0.00000000 -0.00000000 1.00000000
vn 0.00000000 -0.00000000 1.00000000
vn 0.00000000 -0.00000000 1.00000000
vn 0.00000000 -0.00000000 1.00000000
vn 0.00000000 -0.00000000 1.00000000
vn -0.44721360 -0.89442719 0.00000000
vn -0.44721360 -0.89442719 0.00000000
vn -0.44721360 -0.89442719 0.00000000
vn -0.44721360 -0.89442719 0.00000000
vn 0.44721360 -0.89442719 0.00000000
vn 0.44721360 -0.89442719 0.00000000
vn 0.44721360 -0.89442719 0.00000000
vn 0.44721360 -0.89442719 0.00000000
vn 1.00000000 0.00000000 0.00000000
vn 1.00000000 0.00000000 0.00000000
vn 1.00000000 0.00000000 0.00000000
vn 1.00000000 0.00000000 0.00000000
vn 0.00000000 1.00000000 0.00000000
vn 0.00000000 1.00000000 0.00000000
vn 0.00000000 1.00000000 0.00000000
vn 0.00000000 1.00000000 0.00000000
vn -1.00000000 0.00000000 0.00000000
vn -1.00000000 0.00000000 0.00000000
vn -1.00000000 0.00000000 0.00000000
vn -1.00000000 0.00000000 0.00000000
vn 0.00000000 -1.00000000 0.00000000
vn 0.00000000 -1.00000000 0.00000000
vn 0.00000000 -1.00000000 0.00000000
vn 0.00000000 -1.00000000 0.00000000
vn 1.00000000 0.00000000 0.00000000
vn 1.00000000 0.00000000 0.00000000
vn 1.00000000 0.00000000 0.00000000
vn 1.00000000 0.00000000 0.00000000
s 1
usemtl Dark_Wood
f 8/8/8 1/1/1 2/2/2
f 2/2/2 3/3/3 4/4/4
f 4/4/4 5/5/5 8/8/8
f 5/5/5 6/6/6 7/7/7
f 5/5/5 7/7/7 8/8/8
f 8/8/8 2/2/2 4/4/4
s 2
f 7/12/12 6/11/11 9/9/9
f 6/11/11 10/10/10 9/9/9
s 3
f 12/14/14 11/13/13 16/20/20
f 16/20/20 15/17/17 14/16/16
f 9/19/19 10/18/18 15/17/17
f 16/20/20 9/19/19 15/17/17
f 14/16/16 12/14/14 16/20/20
f 14/16/16 13/15/15 12/14/14
s 4
f 15/21/21 10/22/22 5/24/24
f 10/22/22 6/23/23 5/24/24
s 5
f 2/28/28 1/27/27 11/26/26
f 2/28/28 11/26/26 12/25/25
s 6
f 16/29/29 11/30/30 8/32/32
f 11/30/30 1/31/31 8/32/32
s 7
f 9/33/33 16/34/34 8/35/35
f 9/33/33 8/35/35 7/36/36
s 8
usemtl Beige
f 5/40/40 4/39/39 14/38/38
f 5/40/40 14/38/38 15/37/37
s 9
usemtl White
f 4/44/44 3/43/43 13/42/42
f 4/44/44 13/42/42 14/41/41
s 10
usemtl Beige
f 3/48/48 2/47/47 13/45/45
f 2/47/47 12/46/46 13/45/45
