mtllib Structure_Roof_Center_Eave.mtl
o object1
g object1
v -0.81819660 0.01590170 0.50000000
v -0.81819660 0.01590170 -0.50000000
v -0.79819660 -0.02409830 -0.50000000
v -0.79819660 -0.02409830 0.50000000
v 0.50000000 0.67500000 0.50000000
v 0.50000000 0.67500000 -0.50000000
v 0.50000000 0.47500000 -0.50000000
v 0.50000000 0.47500000 0.50000000
v -0.45000000 0.00000000 0.50000000
v -0.45000000 -0.00000000 -0.50000000
v -0.65000000 0.00000000 0.50000000
v -0.65000000 -0.00000000 -0.50000000
v -0.65000000 0.05000000 -0.50000000
v -0.65000000 0.05000000 0.50000000
vt 0.00000000 0.00000000
vt 1.00000000 0.00000000
vt 1.00000000 1.00000000
vt 0.00000000 1.00000000
vt 0.00000000 0.00000000
vt 1.00000000 0.00000000
vt 1.00000000 1.00000000
vt 0.00000000 1.00000000
vt 1.00000000 1.00000000
vt 0.00000000 1.00000000
vt 0.00000000 0.00000000
vt 1.00000000 0.00000000
vt 0.00000000 1.00000000
vt 0.00000000 0.00000000
vt 1.00000000 0.00000000
vt 1.00000000 1.00000000
vt 0.00000000 1.00000000
vt 0.00000000 0.00000000
vt 1.00000000 0.00000000
vt 1.00000000 1.00000000
vt 0.00000000 0.00000000
vt 1.00000000 0.00000000
vt 1.00000000 1.00000000
vt 0.00000000 1.00000000
vt 0.00000000 0.98482776
vt 0.10599125 0.87240401
vt 0.03447055 0.87240401
vt 0.03447055 0.72068157
vt 0.71391720 0.00000000
vt 1.00000000 0.00000000
vt 0.05721656 1.00000000
vt 0.00000000 0.00000000
vt 1.00000000 0.00000000
vt 1.00000000 1.00000000
vt 0.00000000 1.00000000
vt 0.00000000 0.98482776
vt 0.10599125 0.87240401
vt 0.03447055 0.87240401
vt 0.03447055 0.72068157
vt 0.71391720 0.00000000
vt 1.00000000 0.00000000
vt 0.05721656 1.00000000
vn -0.89442719 -0.44721360 -0.00000000
vn -0.89442719 -0.44721360 -0.00000000
vn -0.89442719 -0.44721360 -0.00000000
vn -0.89442719 -0.44721360 -0.00000000
vn -0.44721360 0.89442719 -0.00000000
vn -0.44721360 0.89442719 -0.00000000
vn -0.44721360 0.89442719 -0.00000000
vn -0.44721360 0.89442719 -0.00000000
vn 1.00000000 0.00000000 0.00000000
vn 1.00000000 0.00000000 0.00000000
vn 1.00000000 0.00000000 0.00000000
vn 1.00000000 0.00000000 0.00000000
vn 0.44721360 -0.89442719 0.00000000
vn 0.44721360 -0.89442719 0.00000000
vn 0.44721360 -0.89442719 0.00000000
vn 0.44721360 -0.89442719 0.00000000
vn -0.00000000 -1.00000000 0.00000000
vn -0.00000000 -1.00000000 0.00000000
vn -0.00000000 -1.00000000 0.00000000
vn -0.00000000 -1.00000000 0.00000000
vn -1.00000000 -0.00000000 -0.00000000
vn -1.00000000 -0.00000000 -0.00000000
vn -1.00000000 -0.00000000 -0.00000000
vn -1.00000000 -0.00000000 -0.00000000
vn -0.00000000 0.00000000 1.00000000
vn -0.00000000 0.00000000 1.00000000
vn -0.00000000 0.00000000 1.00000000
vn -0.00000000 0.00000000 1.00000000
vn -0.00000000 0.00000000 1.00000000
vn -0.00000000 0.00000000 1.00000000
vn -0.00000000 0.00000000 1.00000000
vn 0.44721360 -0.89442719 0.00000000
vn 0.44721360 -0.89442719 0.00000000
vn 0.44721360 -0.89442719 0.00000000
vn 0.44721360 -0.89442719 0.00000000
vn 0.00000000 0.00000000 -1.00000000
vn 0.00000000 0.00000000 -1.00000000
vn 0.00000000 0.00000000 -1.00000000
vn 0.00000000 0.00000000 -1.00000000
vn 0.00000000 0.00000000 -1.00000000
vn 0.00000000 0.00000000 -1.00000000
vn 0.00000000 0.00000000 -1.00000000
s 1
usemtl Roof
f 1/1/1 2/2/2 3/3/3
f 1/1/1 3/3/3 4/4/4
s 2
f 5/5/5 6/6/6 1/8/8
f 6/6/6 2/7/7 1/8/8
s 3
f 6/12/12 5/11/11 7/9/9
f 5/11/11 8/10/10 7/9/9
s 4
usemtl White
f 10/16/16 7/15/15 8/14/14
f 10/16/16 8/14/14 9/13/13
s 5
usemtl Roof
f 9/17/17 11/18/18 10/20/20
f 11/18/18 12/19/19 10/20/20
s 6
f 14/24/24 13/23/23 12/22/22
f 14/24/24 12/22/22 11/21/21
s 7
f 1/31/31 4/25/25 14/26/26
f 14/26/26 9/28/28 5/30/30
f 9/28/28 8/29/29 5/30/30
f 14/26/26 11/27/27 9/28/28
f 14/26/26 5/30/30 1/31/31
s 8
f 4/32/32 3/33/33 13/34/34
f 4/32/32 13/34/34 14/35/35
s 9
f 13/37/37 3/36/36 2/42/42
f 2/42/42 6/41/41 13/37/37
f 6/41/41 7/40/40 10/39/39
f 6/41/41 10/39/39 13/37/37
f 10/39/39 12/38/38 13/37/37
